%TF.GenerationSoftware,KiCad,Pcbnew,8.0.6*%
%TF.CreationDate,2025-01-19T12:17:07-08:00*%
%TF.ProjectId,DFboard2,4446626f-6172-4643-922e-6b696361645f,Rev0.1*%
%TF.SameCoordinates,Original*%
%TF.FileFunction,Copper,L1,Top*%
%TF.FilePolarity,Positive*%
%FSLAX46Y46*%
G04 Gerber Fmt 4.6, Leading zero omitted, Abs format (unit mm)*
G04 Created by KiCad (PCBNEW 8.0.6) date 2025-01-19 12:17:07*
%MOMM*%
%LPD*%
G01*
G04 APERTURE LIST*
G04 Aperture macros list*
%AMRoundRect*
0 Rectangle with rounded corners*
0 $1 Rounding radius*
0 $2 $3 $4 $5 $6 $7 $8 $9 X,Y pos of 4 corners*
0 Add a 4 corners polygon primitive as box body*
4,1,4,$2,$3,$4,$5,$6,$7,$8,$9,$2,$3,0*
0 Add four circle primitives for the rounded corners*
1,1,$1+$1,$2,$3*
1,1,$1+$1,$4,$5*
1,1,$1+$1,$6,$7*
1,1,$1+$1,$8,$9*
0 Add four rect primitives between the rounded corners*
20,1,$1+$1,$2,$3,$4,$5,0*
20,1,$1+$1,$4,$5,$6,$7,0*
20,1,$1+$1,$6,$7,$8,$9,0*
20,1,$1+$1,$8,$9,$2,$3,0*%
G04 Aperture macros list end*
%TA.AperFunction,SMDPad,CuDef*%
%ADD10RoundRect,0.200000X-0.275000X0.200000X-0.275000X-0.200000X0.275000X-0.200000X0.275000X0.200000X0*%
%TD*%
%TA.AperFunction,ComponentPad*%
%ADD11R,1.700000X1.700000*%
%TD*%
%TA.AperFunction,ComponentPad*%
%ADD12O,1.700000X1.700000*%
%TD*%
%TA.AperFunction,ComponentPad*%
%ADD13R,1.524000X1.524000*%
%TD*%
%TA.AperFunction,ComponentPad*%
%ADD14C,1.524000*%
%TD*%
%TA.AperFunction,SMDPad,CuDef*%
%ADD15R,0.800000X0.800000*%
%TD*%
%TA.AperFunction,ComponentPad*%
%ADD16C,4.000000*%
%TD*%
%TA.AperFunction,ComponentPad*%
%ADD17R,1.600000X1.600000*%
%TD*%
%TA.AperFunction,ComponentPad*%
%ADD18C,1.600000*%
%TD*%
%TA.AperFunction,ComponentPad*%
%ADD19C,1.514000*%
%TD*%
%TA.AperFunction,ViaPad*%
%ADD20C,0.800000*%
%TD*%
%TA.AperFunction,Conductor*%
%ADD21C,0.254000*%
%TD*%
G04 APERTURE END LIST*
D10*
%TO.P,R2,1*%
%TO.N,Net-(D2-A)*%
X71628000Y-130239000D03*
%TO.P,R2,2*%
%TO.N,3V3*%
X71628000Y-131889000D03*
%TD*%
D11*
%TO.P,JP5,1,A*%
%TO.N,Net-(JP5-A)*%
X111379000Y-42164000D03*
D12*
%TO.P,JP5,2,C*%
%TO.N,Net-(JP5-C)*%
X111379000Y-44704000D03*
%TO.P,JP5,3,B*%
%TO.N,unconnected-(JP5-B-Pad3)*%
X111379000Y-47244000D03*
%TD*%
D11*
%TO.P,TP9,1,1*%
%TO.N,Net-(U4-R2_Out)*%
X115926000Y-94996000D03*
%TD*%
D10*
%TO.P,R1,1*%
%TO.N,Net-(D1-A)*%
X64516000Y-130175000D03*
%TO.P,R1,2*%
%TO.N,3V3*%
X64516000Y-131825000D03*
%TD*%
D13*
%TO.P,U6,1,Ground*%
%TO.N,GND*%
X164338000Y-91567000D03*
D14*
%TO.P,U6,2,Ground*%
%TO.N,unconnected-(U6-Ground-Pad2)*%
X161798000Y-91567000D03*
%TO.P,U6,8,Ground*%
%TO.N,unconnected-(U6-Ground-Pad8)*%
X146558000Y-91567000D03*
%TO.P,U6,9,Ground*%
%TO.N,unconnected-(U6-Ground-Pad9)*%
X144018000Y-91567000D03*
%TO.P,U6,10,3.3V*%
%TO.N,unconnected-(U6-3.3V-Pad10)*%
X144018000Y-94107000D03*
%TO.P,U6,11,3.3V*%
%TO.N,unconnected-(U6-3.3V-Pad11)*%
X146558000Y-94107000D03*
%TO.P,U6,17,3.3V*%
%TO.N,unconnected-(U6-3.3V-Pad17)*%
X161798000Y-94107000D03*
%TO.P,U6,18,3.3V*%
%TO.N,5V*%
X164338000Y-94107000D03*
%TD*%
D11*
%TO.P,JP1,1,A*%
%TO.N,Net-(J2-P14)*%
X39624000Y-24257000D03*
D12*
%TO.P,JP1,2,C*%
%TO.N,Net-(J1-P14)*%
X39624000Y-26797000D03*
%TO.P,JP1,3,B*%
%TO.N,Net-(JP1-B)*%
X39624000Y-29337000D03*
%TD*%
D11*
%TO.P,TP10,1,1*%
%TO.N,Net-(U5-R2_Out)*%
X138651000Y-94742000D03*
%TD*%
D13*
%TO.P,U4,1,T1_Out*%
%TO.N,Net-(JP3-B)*%
X99060000Y-75931000D03*
D14*
%TO.P,U4,2,T2_Out*%
%TO.N,unconnected-(U4-T2_Out-Pad2)*%
X101600000Y-75931000D03*
%TO.P,U4,3,R1_In*%
%TO.N,Net-(U4-R1_In)*%
X104140000Y-75931000D03*
%TO.P,U4,4,R2_In*%
%TO.N,Net-(J2-P20)*%
X106680000Y-75931000D03*
%TO.P,U4,5,3-5.5V*%
%TO.N,3V3*%
X109220000Y-75931000D03*
%TO.P,U4,6,GND*%
%TO.N,GND*%
X111760000Y-75931000D03*
%TO.P,U4,7,T1_In*%
%TO.N,/TX3*%
X114300000Y-75931000D03*
%TO.P,U4,8,T2_In*%
%TO.N,unconnected-(U4-T2_In-Pad8)*%
X116840000Y-75931000D03*
%TO.P,U4,9,R1_Out*%
%TO.N,/RX3*%
X119380000Y-75931000D03*
%TO.P,U4,10,R2_Out*%
%TO.N,Net-(U4-R2_Out)*%
X121920000Y-75931000D03*
%TD*%
D11*
%TO.P,JP4,1,A*%
%TO.N,Net-(J2-P22)*%
X127762000Y-46243000D03*
D12*
%TO.P,JP4,2,C*%
%TO.N,Net-(J1-P22)*%
X127762000Y-48783000D03*
%TO.P,JP4,3,B*%
%TO.N,Net-(JP4-B)*%
X127762000Y-51323000D03*
%TD*%
D10*
%TO.P,R5,1*%
%TO.N,Net-(D5-A)*%
X90170000Y-130176000D03*
%TO.P,R5,2*%
%TO.N,3V3*%
X90170000Y-131826000D03*
%TD*%
D11*
%TO.P,TP2,1,1*%
%TO.N,/TX1*%
X50673000Y-96393000D03*
%TD*%
D15*
%TO.P,D1,1,K*%
%TO.N,Net-(D1-K)*%
X64389000Y-126897000D03*
%TO.P,D1,2,A*%
%TO.N,Net-(D1-A)*%
X64389000Y-128397000D03*
%TD*%
%TO.P,D2,1,K*%
%TO.N,Net-(D2-K)*%
X71501000Y-126758000D03*
%TO.P,D2,2,A*%
%TO.N,Net-(D2-A)*%
X71501000Y-128258000D03*
%TD*%
D16*
%TO.P,J1,0,PAD*%
%TO.N,GND*%
X28783000Y-18470000D03*
X28783000Y-65570000D03*
D17*
%TO.P,J1,1,1*%
%TO.N,Net-(U2-R1_In)*%
X29083000Y-25400000D03*
D18*
%TO.P,J1,2,2*%
%TO.N,unconnected-(J1-Pad2)*%
X29083000Y-28170000D03*
%TO.P,J1,3,3*%
%TO.N,Net-(U3-R1_In)*%
X29083000Y-30940000D03*
%TO.P,J1,4,4*%
%TO.N,unconnected-(J1-Pad4)*%
X29083000Y-33710000D03*
%TO.P,J1,5,5*%
%TO.N,Net-(JP9-B)*%
X29083000Y-36480000D03*
%TO.P,J1,6,6*%
%TO.N,unconnected-(J1-Pad6)*%
X29083000Y-39250000D03*
%TO.P,J1,7,7*%
%TO.N,Net-(U4-R1_In)*%
X29083000Y-42020000D03*
%TO.P,J1,8,8*%
%TO.N,Net-(JP5-C)*%
X29083000Y-44790000D03*
%TO.P,J1,9,9*%
%TO.N,Net-(U5-R1_In)*%
X29083000Y-47560000D03*
%TO.P,J1,10,10*%
%TO.N,unconnected-(J1-Pad10)*%
X29083000Y-50330000D03*
%TO.P,J1,11,11*%
%TO.N,Net-(J1-P23)*%
X29083000Y-53100000D03*
%TO.P,J1,12,12*%
X29083000Y-55870000D03*
%TO.P,J1,13,13*%
X29083000Y-58640000D03*
%TO.P,J1,14,P14*%
%TO.N,Net-(J1-P14)*%
X26243000Y-26785000D03*
%TO.P,J1,15,P15*%
%TO.N,unconnected-(J1-P15-Pad15)*%
X26243000Y-29555000D03*
%TO.P,J1,16,P16*%
%TO.N,Net-(J1-P16)*%
X26243000Y-32325000D03*
%TO.P,J1,17,P17*%
%TO.N,unconnected-(J1-P17-Pad17)*%
X26243000Y-35095000D03*
%TO.P,J1,18,P18*%
%TO.N,Net-(J1-P18)*%
X26243000Y-37865000D03*
%TO.P,J1,19,P19*%
%TO.N,unconnected-(J1-P19-Pad19)*%
X26243000Y-40635000D03*
%TO.P,J1,20,P20*%
%TO.N,Net-(J1-P20)*%
X26243000Y-43405000D03*
%TO.P,J1,21,P21*%
%TO.N,GND*%
X26243000Y-46175000D03*
%TO.P,J1,22,P22*%
%TO.N,Net-(J1-P22)*%
X26243000Y-48945000D03*
%TO.P,J1,23,P23*%
%TO.N,Net-(J1-P23)*%
X26243000Y-51715000D03*
%TO.P,J1,24,P24*%
X26243000Y-54485000D03*
%TO.P,J1,25,P25*%
X26243000Y-57255000D03*
%TD*%
D15*
%TO.P,D5,1,K*%
%TO.N,Net-(D5-K)*%
X90170000Y-126873000D03*
%TO.P,D5,2,A*%
%TO.N,Net-(D5-A)*%
X90170000Y-128373000D03*
%TD*%
D16*
%TO.P,J2,0,PAD*%
%TO.N,GND*%
X160020000Y-65709000D03*
X160020000Y-18609000D03*
D17*
%TO.P,J2,1,1*%
%TO.N,Net-(U2-R1_In)*%
X159720000Y-25539000D03*
D18*
%TO.P,J2,2,2*%
%TO.N,unconnected-(J2-Pad2)*%
X159720000Y-28309000D03*
%TO.P,J2,3,3*%
%TO.N,Net-(U3-R1_In)*%
X159720000Y-31079000D03*
%TO.P,J2,4,4*%
%TO.N,unconnected-(J2-Pad4)*%
X159720000Y-33849000D03*
%TO.P,J2,5,5*%
%TO.N,Net-(JP9-A)*%
X159720000Y-36619000D03*
%TO.P,J2,6,6*%
%TO.N,unconnected-(J2-Pad6)*%
X159720000Y-39389000D03*
%TO.P,J2,7,7*%
%TO.N,Net-(U4-R1_In)*%
X159720000Y-42159000D03*
%TO.P,J2,8,8*%
%TO.N,Net-(JP5-A)*%
X159720000Y-44929000D03*
%TO.P,J2,9,9*%
%TO.N,Net-(U5-R1_In)*%
X159720000Y-47699000D03*
%TO.P,J2,10,10*%
%TO.N,unconnected-(J2-Pad10)*%
X159720000Y-50469000D03*
%TO.P,J2,11,11*%
%TO.N,Net-(J2-P23)*%
X159720000Y-53239000D03*
%TO.P,J2,12,12*%
X159720000Y-56009000D03*
%TO.P,J2,13,13*%
X159720000Y-58779000D03*
%TO.P,J2,14,P14*%
%TO.N,Net-(J2-P14)*%
X162560000Y-26924000D03*
%TO.P,J2,15,P15*%
%TO.N,unconnected-(J2-P15-Pad15)*%
X162560000Y-29694000D03*
%TO.P,J2,16,P16*%
%TO.N,Net-(J2-P16)*%
X162560000Y-32464000D03*
%TO.P,J2,17,P17*%
%TO.N,unconnected-(J2-P17-Pad17)*%
X162560000Y-35234000D03*
%TO.P,J2,18,P18*%
%TO.N,Net-(J2-P18)*%
X162560000Y-38004000D03*
%TO.P,J2,19,P19*%
%TO.N,unconnected-(J2-P19-Pad19)*%
X162560000Y-40774000D03*
%TO.P,J2,20,P20*%
%TO.N,Net-(J2-P20)*%
X162560000Y-43544000D03*
%TO.P,J2,21,P21*%
%TO.N,GND*%
X162560000Y-46314000D03*
%TO.P,J2,22,P22*%
%TO.N,Net-(J2-P22)*%
X162560000Y-49084000D03*
%TO.P,J2,23,P23*%
%TO.N,Net-(J2-P23)*%
X162560000Y-51854000D03*
%TO.P,J2,24,P24*%
X162560000Y-54624000D03*
%TO.P,J2,25,P25*%
X162560000Y-57394000D03*
%TD*%
D11*
%TO.P,TP1,1,1*%
%TO.N,/RX1*%
X55673000Y-96393000D03*
%TD*%
D15*
%TO.P,D4,1,K*%
%TO.N,Net-(D4-K)*%
X83820000Y-126643000D03*
%TO.P,D4,2,A*%
%TO.N,Net-(D4-A)*%
X83820000Y-128143000D03*
%TD*%
D11*
%TO.P,TP3,1,1*%
%TO.N,/RX2*%
X78279000Y-95885000D03*
%TD*%
D13*
%TO.P,U1,1,Ground*%
%TO.N,GND*%
X45720000Y-91567000D03*
D14*
%TO.P,U1,2,Ground*%
%TO.N,unconnected-(U1-Ground-Pad2)*%
X43180000Y-91567000D03*
%TO.P,U1,8,Ground*%
%TO.N,unconnected-(U1-Ground-Pad8)*%
X27940000Y-91567000D03*
%TO.P,U1,9,Ground*%
%TO.N,unconnected-(U1-Ground-Pad9)*%
X25400000Y-91567000D03*
%TO.P,U1,10,3.3V*%
%TO.N,unconnected-(U1-3.3V-Pad10)*%
X25400000Y-94107000D03*
%TO.P,U1,11,3.3V*%
%TO.N,3V3*%
X27940000Y-94107000D03*
%TO.P,U1,17,3.3V*%
%TO.N,unconnected-(U1-3.3V-Pad17)*%
X43180000Y-94107000D03*
%TO.P,U1,18,3.3V*%
%TO.N,unconnected-(U1-3.3V-Pad18)*%
X45720000Y-94107000D03*
%TD*%
D11*
%TO.P,TP11,1,1*%
%TO.N,/RX6*%
X82779000Y-95885000D03*
%TD*%
D13*
%TO.P,J13,1,1*%
%TO.N,GND*%
X123190000Y-108458000D03*
D14*
%TO.P,J13,2,2*%
%TO.N,/RX1*%
X120650000Y-108458000D03*
%TO.P,J13,3,3*%
%TO.N,/TX1*%
X118110000Y-108458000D03*
%TO.P,J13,4,4*%
%TO.N,unconnected-(J13-Pad4)*%
X115570000Y-108458000D03*
%TO.P,J13,5,5*%
%TO.N,unconnected-(J13-Pad5)*%
X113030000Y-108458000D03*
%TO.P,J13,6,6*%
%TO.N,unconnected-(J13-Pad6)*%
X110490000Y-108458000D03*
%TO.P,J13,7,7*%
%TO.N,unconnected-(J13-Pad7)*%
X107950000Y-108458000D03*
%TO.P,J13,8,8*%
%TO.N,unconnected-(J13-Pad8)*%
X105410000Y-108458000D03*
%TO.P,J13,9,9*%
%TO.N,/RX2*%
X102870000Y-108458000D03*
%TO.P,J13,10,10*%
%TO.N,/TX2*%
X100330000Y-108458000D03*
%TO.P,J13,11,11*%
%TO.N,unconnected-(J13-Pad11)*%
X97790000Y-108458000D03*
%TO.P,J13,12,12*%
%TO.N,unconnected-(J13-Pad12)*%
X95250000Y-108458000D03*
%TO.P,J13,13,13*%
%TO.N,unconnected-(J13-Pad13)*%
X92710000Y-108458000D03*
%TO.P,J13,14,14*%
%TO.N,unconnected-(J13-Pad14)*%
X90170000Y-108458000D03*
%TO.P,J13,15,15*%
%TO.N,unconnected-(J13-Pad15)*%
X87630000Y-108458000D03*
%TO.P,J13,16,16*%
%TO.N,Net-(J13-Pad16)*%
X85090000Y-108458000D03*
%TO.P,J13,17,17*%
%TO.N,/RX6*%
X82550000Y-108458000D03*
%TO.P,J13,18,18*%
%TO.N,unconnected-(J13-Pad18)*%
X80010000Y-108458000D03*
%TO.P,J13,19,19*%
%TO.N,unconnected-(J13-Pad19)*%
X77470000Y-108458000D03*
%TO.P,J13,20,20*%
%TO.N,Net-(U4-R2_Out)*%
X74930000Y-108458000D03*
%TO.P,J13,21,21*%
%TO.N,unconnected-(J13-Pad21)*%
X72390000Y-108458000D03*
%TO.P,J13,22,22*%
%TO.N,unconnected-(J13-Pad22)*%
X69850000Y-108458000D03*
%TO.P,J13,23,23*%
%TO.N,unconnected-(J13-Pad23)*%
X67310000Y-108458000D03*
%TO.P,J13,24,24*%
%TO.N,unconnected-(J13-Pad24)*%
X64770000Y-108458000D03*
%TO.P,J13,25,25*%
%TO.N,Net-(D1-K)*%
X64770000Y-123698000D03*
%TO.P,J13,26,26*%
%TO.N,Net-(U5-R2_Out)*%
X67310000Y-123698000D03*
%TO.P,J13,27,27*%
%TO.N,unconnected-(J13-Pad27)*%
X69850000Y-123698000D03*
%TO.P,J13,28,28*%
%TO.N,unconnected-(J13-Pad28)*%
X72390000Y-123698000D03*
D19*
%TO.P,J13,29,29*%
%TO.N,Net-(D2-K)*%
X74930000Y-123698000D03*
%TO.P,J13,30,30*%
%TO.N,Net-(D3-K)*%
X77470000Y-123698000D03*
%TO.P,J13,31,31*%
%TO.N,Net-(D4-K)*%
X80010000Y-123698000D03*
%TO.P,J13,32,32*%
%TO.N,unconnected-(J13-Pad32)*%
X82550000Y-123698000D03*
%TO.P,J13,33,33*%
%TO.N,unconnected-(J13-Pad33)*%
X85090000Y-123698000D03*
%TO.P,J13,34,34*%
%TO.N,GND*%
X87630000Y-123698000D03*
D14*
%TO.P,J13,35,35*%
%TO.N,Net-(D5-K)*%
X90170000Y-123698000D03*
%TO.P,J13,36,36*%
%TO.N,/TX3*%
X92710000Y-123698000D03*
%TO.P,J13,37,37*%
%TO.N,/RX3*%
X95250000Y-123698000D03*
%TO.P,J13,38,38*%
%TO.N,/RX4*%
X97790000Y-123698000D03*
%TO.P,J13,39,39*%
%TO.N,/TX4*%
X100330000Y-123698000D03*
%TO.P,J13,40,40*%
%TO.N,unconnected-(J13-Pad40)*%
X102870000Y-123698000D03*
%TO.P,J13,41,41*%
%TO.N,unconnected-(J13-Pad41)*%
X105410000Y-123698000D03*
%TO.P,J13,42,42*%
%TO.N,/TX5*%
X107950000Y-123698000D03*
%TO.P,J13,43,43*%
%TO.N,/RX5*%
X110490000Y-123698000D03*
%TO.P,J13,44,44*%
%TO.N,unconnected-(J13-Pad44)*%
X113030000Y-123698000D03*
%TO.P,J13,45,45*%
%TO.N,unconnected-(J13-Pad45)*%
X115570000Y-123698000D03*
%TO.P,J13,46,46*%
%TO.N,unconnected-(J13-Pad46)*%
X118110000Y-123698000D03*
%TO.P,J13,47,47*%
%TO.N,GND*%
X120650000Y-123698000D03*
%TO.P,J13,48,48*%
%TO.N,3V3*%
X123190000Y-123698000D03*
%TD*%
D11*
%TO.P,TP14,1,1*%
%TO.N,/TX5*%
X136525000Y-120904000D03*
%TD*%
D10*
%TO.P,R4,1*%
%TO.N,Net-(D4-A)*%
X83820000Y-130187000D03*
%TO.P,R4,2*%
%TO.N,3V3*%
X83820000Y-131837000D03*
%TD*%
%TO.P,R3,1*%
%TO.N,Net-(D3-A)*%
X77470000Y-130175000D03*
%TO.P,R3,2*%
%TO.N,3V3*%
X77470000Y-131825000D03*
%TD*%
D13*
%TO.P,U2,1,T1_Out*%
%TO.N,Net-(JP1-B)*%
X34417000Y-75438000D03*
D14*
%TO.P,U2,2,T2_Out*%
%TO.N,unconnected-(U2-T2_Out-Pad2)*%
X36957000Y-75438000D03*
%TO.P,U2,3,R1_In*%
%TO.N,Net-(U2-R1_In)*%
X39497000Y-75438000D03*
%TO.P,U2,4,R2_In*%
%TO.N,Net-(J2-P14)*%
X42037000Y-75438000D03*
%TO.P,U2,5,3-5.5V*%
%TO.N,3V3*%
X44577000Y-75438000D03*
%TO.P,U2,6,GND*%
%TO.N,GND*%
X47117000Y-75438000D03*
%TO.P,U2,7,T1_In*%
%TO.N,/TX1*%
X49657000Y-75438000D03*
%TO.P,U2,8,T2_In*%
%TO.N,unconnected-(U2-T2_In-Pad8)*%
X52197000Y-75438000D03*
%TO.P,U2,9,R1_Out*%
%TO.N,/RX1*%
X54737000Y-75438000D03*
%TO.P,U2,10,R2_Out*%
%TO.N,/RX5*%
X57277000Y-75438000D03*
%TD*%
D11*
%TO.P,TP5,1,1*%
%TO.N,/RX3*%
X111426000Y-94996000D03*
%TD*%
%TO.P,TP16,1,1*%
%TO.N,GND*%
X122428000Y-101600000D03*
%TD*%
%TO.P,JP9,1,A*%
%TO.N,Net-(JP9-A)*%
X80899000Y-36576000D03*
D12*
%TO.P,JP9,2,B*%
%TO.N,Net-(JP9-B)*%
X78359000Y-36576000D03*
%TD*%
D13*
%TO.P,U5,1,T1_Out*%
%TO.N,Net-(JP4-B)*%
X130810000Y-75677000D03*
D14*
%TO.P,U5,2,T2_Out*%
%TO.N,unconnected-(U5-T2_Out-Pad2)*%
X133350000Y-75677000D03*
%TO.P,U5,3,R1_In*%
%TO.N,Net-(U5-R1_In)*%
X135890000Y-75677000D03*
%TO.P,U5,4,R2_In*%
%TO.N,Net-(J2-P22)*%
X138430000Y-75677000D03*
%TO.P,U5,5,3-5.5V*%
%TO.N,3V3*%
X140970000Y-75677000D03*
%TO.P,U5,6,GND*%
%TO.N,GND*%
X143510000Y-75677000D03*
%TO.P,U5,7,T1_In*%
%TO.N,/TX4*%
X146050000Y-75677000D03*
%TO.P,U5,8,T2_In*%
%TO.N,unconnected-(U5-T2_In-Pad8)*%
X148590000Y-75677000D03*
%TO.P,U5,9,R1_Out*%
%TO.N,/RX4*%
X151130000Y-75677000D03*
%TO.P,U5,10,R2_Out*%
%TO.N,Net-(U5-R2_Out)*%
X153670000Y-75677000D03*
%TD*%
D11*
%TO.P,JP2,1,A*%
%TO.N,Net-(J2-P16)*%
X65024000Y-29718000D03*
D12*
%TO.P,JP2,2,C*%
%TO.N,Net-(J1-P16)*%
X65024000Y-32258000D03*
%TO.P,JP2,3,B*%
%TO.N,Net-(JP2-B)*%
X65024000Y-34798000D03*
%TD*%
D11*
%TO.P,TP12,1,1*%
%TO.N,/RX5*%
X60173000Y-96393000D03*
%TD*%
%TO.P,TP7,1,1*%
%TO.N,/RX4*%
X134151000Y-94742000D03*
%TD*%
%TO.P,TP13,1,1*%
%TO.N,Net-(J13-Pad16)*%
X56007000Y-118999000D03*
%TD*%
%TO.P,JP8,1,A*%
%TO.N,Net-(J1-P18)*%
X78359000Y-40386000D03*
D12*
%TO.P,JP8,2,B*%
%TO.N,Net-(J2-P18)*%
X80899000Y-40386000D03*
%TD*%
D11*
%TO.P,TP8,1,1*%
%TO.N,/TX4*%
X128651000Y-94742000D03*
%TD*%
D13*
%TO.P,U3,1,T1_Out*%
%TO.N,Net-(JP2-B)*%
X65024000Y-75819000D03*
D14*
%TO.P,U3,2,T2_Out*%
%TO.N,unconnected-(U3-T2_Out-Pad2)*%
X67564000Y-75819000D03*
%TO.P,U3,3,R1_In*%
%TO.N,Net-(U3-R1_In)*%
X70104000Y-75819000D03*
%TO.P,U3,4,R2_In*%
%TO.N,Net-(J2-P16)*%
X72644000Y-75819000D03*
%TO.P,U3,5,3-5.5V*%
%TO.N,3V3*%
X75184000Y-75819000D03*
%TO.P,U3,6,GND*%
%TO.N,GND*%
X77724000Y-75819000D03*
%TO.P,U3,7,T1_In*%
%TO.N,/TX2*%
X80264000Y-75819000D03*
%TO.P,U3,8,T2_In*%
%TO.N,unconnected-(U3-T2_In-Pad8)*%
X82804000Y-75819000D03*
%TO.P,U3,9,R1_Out*%
%TO.N,/RX2*%
X85344000Y-75819000D03*
%TO.P,U3,10,R2_Out*%
%TO.N,/RX6*%
X87884000Y-75819000D03*
%TD*%
D11*
%TO.P,JP7,1,A*%
%TO.N,Net-(J2-P23)*%
X149225000Y-56022000D03*
D12*
%TO.P,JP7,2,C*%
%TO.N,Net-(J1-P23)*%
X149225000Y-58562000D03*
%TO.P,JP7,3,B*%
%TO.N,5V*%
X149225000Y-61102000D03*
%TD*%
D11*
%TO.P,TP4,1,1*%
%TO.N,/TX2*%
X73279000Y-95885000D03*
%TD*%
D15*
%TO.P,D3,1,K*%
%TO.N,Net-(D3-K)*%
X77470000Y-126758000D03*
%TO.P,D3,2,A*%
%TO.N,Net-(D3-A)*%
X77470000Y-128258000D03*
%TD*%
D11*
%TO.P,JP3,1,A*%
%TO.N,Net-(J2-P20)*%
X99060000Y-41036000D03*
D12*
%TO.P,JP3,2,C*%
%TO.N,Net-(J1-P20)*%
X99060000Y-43576000D03*
%TO.P,JP3,3,B*%
%TO.N,Net-(JP3-B)*%
X99060000Y-46116000D03*
%TD*%
D11*
%TO.P,TP6,1,1*%
%TO.N,/TX3*%
X106426000Y-94996000D03*
%TD*%
D20*
%TO.N,/RX1*%
X80010000Y-105791000D03*
%TO.N,/RX2*%
X94043500Y-97345500D03*
X85344000Y-88646000D03*
%TO.N,/TX2*%
X88900000Y-97155000D03*
X80264000Y-88646000D03*
%TO.N,/RX5*%
X86360000Y-111252000D03*
X110490000Y-117856000D03*
X80010000Y-103505000D03*
X86360000Y-115316000D03*
X84963000Y-103505000D03*
%TO.N,Net-(U2-R1_In)*%
X36195000Y-61087000D03*
X35471197Y-25400000D03*
%TO.N,/TX4*%
X107569000Y-116713000D03*
%TO.N,/RX3*%
X111760000Y-110871000D03*
%TO.N,/TX3*%
X92710000Y-111252000D03*
%TO.N,Net-(U3-R1_In)*%
X73152000Y-66294000D03*
X73215500Y-28194000D03*
%TO.N,GND*%
X155956000Y-35121800D03*
X33401000Y-40767000D03*
X40767000Y-73025000D03*
X107823000Y-51943000D03*
X36703000Y-66040000D03*
X61722000Y-30734000D03*
X33401000Y-37465000D03*
X33020000Y-34544000D03*
X155956000Y-37211000D03*
X155956000Y-33295800D03*
X35687000Y-73025000D03*
X83185000Y-36068000D03*
X67691000Y-28517800D03*
X75438000Y-38354000D03*
X155956000Y-26739800D03*
X34290000Y-48895000D03*
X61722000Y-33401000D03*
X137160000Y-61849000D03*
X41402000Y-59944000D03*
X83312000Y-41529000D03*
X34163000Y-32512000D03*
X155956000Y-29845000D03*
X45847000Y-72898000D03*
X33528000Y-24384000D03*
X67691000Y-30861000D03*
X155956000Y-23114000D03*
X36576000Y-25400000D03*
X33528000Y-28067000D03*
X34290000Y-46228000D03*
X96075500Y-51879500D03*
X155956000Y-24961800D03*
X150241000Y-45212000D03*
%TO.N,Net-(U4-R1_In)*%
X68072000Y-63627000D03*
X155829000Y-42164000D03*
X140716000Y-61722000D03*
X68072000Y-39624000D03*
%TO.N,Net-(U5-R1_In)*%
X135763000Y-59944000D03*
X143510000Y-49403000D03*
X106299000Y-59817000D03*
X106299000Y-49911000D03*
%TO.N,Net-(J2-P22)*%
X138176000Y-57023000D03*
%TO.N,Net-(J2-P14)*%
X43624500Y-25844500D03*
X43434000Y-60960000D03*
%TO.N,Net-(J2-P20)*%
X103759000Y-41021000D03*
%TO.N,Net-(J2-P16)*%
X70802500Y-31432500D03*
%TO.N,Net-(JP1-B)*%
X34417000Y-66167000D03*
%TD*%
D21*
%TO.N,/RX1*%
X63500000Y-105791000D02*
X63373000Y-105918000D01*
X55673000Y-96393000D02*
X55673000Y-98218000D01*
X54737000Y-75438000D02*
X54737000Y-95457000D01*
X54737000Y-95457000D02*
X55673000Y-96393000D01*
X80010000Y-105791000D02*
X63500000Y-105791000D01*
X55673000Y-98218000D02*
X63373000Y-105918000D01*
%TO.N,Net-(J1-P23)*%
X34141000Y-57255000D02*
X34163000Y-57277000D01*
X29083000Y-53100000D02*
X34149000Y-53100000D01*
X149147000Y-58640000D02*
X149225000Y-58562000D01*
X29083000Y-55870000D02*
X34153000Y-55870000D01*
X34153000Y-55870000D02*
X34163000Y-55880000D01*
X34149000Y-53100000D02*
X34163000Y-53086000D01*
X34163000Y-58640000D02*
X149147000Y-58640000D01*
X34163000Y-55880000D02*
X34163000Y-57277000D01*
X29083000Y-58640000D02*
X34163000Y-58640000D01*
X34163000Y-51689000D02*
X34163000Y-53086000D01*
X34137000Y-51715000D02*
X34163000Y-51689000D01*
X34163000Y-54356000D02*
X34163000Y-55880000D01*
X26243000Y-57255000D02*
X34141000Y-57255000D01*
X26243000Y-54485000D02*
X34034000Y-54485000D01*
X34163000Y-57277000D02*
X34163000Y-58640000D01*
X34163000Y-53086000D02*
X34163000Y-54356000D01*
X34034000Y-54485000D02*
X34163000Y-54356000D01*
X26243000Y-51715000D02*
X34137000Y-51715000D01*
%TO.N,/TX1*%
X49657000Y-95377000D02*
X50673000Y-96393000D01*
X49657000Y-75438000D02*
X49657000Y-95377000D01*
X50673000Y-96393000D02*
X50673000Y-97536000D01*
X50673000Y-97536000D02*
X65786000Y-112649000D01*
X113919000Y-112649000D02*
X118110000Y-108458000D01*
X65786000Y-112649000D02*
X113919000Y-112649000D01*
%TO.N,/RX2*%
X85344000Y-88820000D02*
X78279000Y-95885000D01*
X94043500Y-99631500D02*
X102870000Y-108458000D01*
X85344000Y-75819000D02*
X85344000Y-88646000D01*
X94043500Y-97345500D02*
X94043500Y-99631500D01*
X85344000Y-88646000D02*
X85344000Y-88820000D01*
%TO.N,/TX2*%
X88900000Y-97155000D02*
X89027000Y-97155000D01*
X80264000Y-88646000D02*
X80264000Y-88900000D01*
X80264000Y-88900000D02*
X73279000Y-95885000D01*
X89027000Y-97155000D02*
X100330000Y-108458000D01*
X80264000Y-75819000D02*
X80264000Y-88646000D01*
%TO.N,/RX6*%
X87884000Y-90780000D02*
X82779000Y-95885000D01*
X82779000Y-108229000D02*
X82550000Y-108458000D01*
X87884000Y-75819000D02*
X87884000Y-90780000D01*
X82779000Y-95885000D02*
X82779000Y-108229000D01*
%TO.N,/RX5*%
X57277000Y-93497000D02*
X60173000Y-96393000D01*
X86360000Y-115316000D02*
X88900000Y-117856000D01*
X60173000Y-96393000D02*
X60198000Y-96393000D01*
X57277000Y-75438000D02*
X57277000Y-93497000D01*
X67310000Y-103505000D02*
X80010000Y-103505000D01*
X86360000Y-109728000D02*
X86360000Y-111252000D01*
X60198000Y-96393000D02*
X67310000Y-103505000D01*
X86360000Y-104902000D02*
X86360000Y-109728000D01*
X84963000Y-103505000D02*
X86360000Y-104902000D01*
X110490000Y-117856000D02*
X88900000Y-117856000D01*
%TO.N,Net-(U2-R1_In)*%
X36195000Y-24604657D02*
X36195000Y-20320000D01*
X36195000Y-20320000D02*
X37592000Y-18923000D01*
X37592000Y-18923000D02*
X42799000Y-18923000D01*
X35471197Y-25400000D02*
X35744200Y-25126997D01*
X36195000Y-61849000D02*
X38481000Y-64135000D01*
X38481000Y-74422000D02*
X39497000Y-75438000D01*
X42799000Y-18923000D02*
X48006000Y-24130000D01*
X35744200Y-25055457D02*
X36195000Y-24604657D01*
X35744200Y-25126997D02*
X35744200Y-25055457D01*
X35471197Y-25400000D02*
X29083000Y-25400000D01*
X38481000Y-64135000D02*
X38481000Y-74422000D01*
X158311000Y-24130000D02*
X159720000Y-25539000D01*
X48006000Y-24130000D02*
X158311000Y-24130000D01*
X36195000Y-61087000D02*
X36195000Y-61849000D01*
%TO.N,/TX5*%
X110744000Y-120904000D02*
X107950000Y-123698000D01*
X136525000Y-120904000D02*
X110744000Y-120904000D01*
%TO.N,/RX4*%
X129159000Y-118999000D02*
X134151000Y-114007000D01*
X137287000Y-92329000D02*
X136564000Y-92329000D01*
X102489000Y-118999000D02*
X129159000Y-118999000D01*
X151130000Y-75677000D02*
X151130000Y-78486000D01*
X136564000Y-92329000D02*
X134151000Y-94742000D01*
X97790000Y-123698000D02*
X102489000Y-118999000D01*
X134151000Y-114007000D02*
X134151000Y-94742000D01*
X151130000Y-78486000D02*
X137287000Y-92329000D01*
%TO.N,/TX4*%
X128651000Y-114427000D02*
X128651000Y-94742000D01*
X146050000Y-81026000D02*
X135001000Y-92075000D01*
X107569000Y-116713000D02*
X126365000Y-116713000D01*
X135001000Y-92075000D02*
X131318000Y-92075000D01*
X131318000Y-92075000D02*
X128651000Y-94742000D01*
X146050000Y-75677000D02*
X146050000Y-81026000D01*
X126365000Y-116713000D02*
X128651000Y-114427000D01*
%TO.N,/RX3*%
X111760000Y-105918000D02*
X111760000Y-110871000D01*
X111426000Y-94996000D02*
X111426000Y-105584000D01*
X111426000Y-105584000D02*
X111760000Y-105918000D01*
X119380000Y-75931000D02*
X119380000Y-87042000D01*
X119380000Y-87042000D02*
X111426000Y-94996000D01*
%TO.N,/TX3*%
X106426000Y-94996000D02*
X106680000Y-95250000D01*
X114300000Y-87122000D02*
X106426000Y-94996000D01*
X106680000Y-95250000D02*
X106680000Y-110871000D01*
X114300000Y-75931000D02*
X114300000Y-87122000D01*
X93091000Y-110871000D02*
X92710000Y-111252000D01*
X106680000Y-110871000D02*
X93091000Y-110871000D01*
%TO.N,Net-(D1-K)*%
X64770000Y-123698000D02*
X64770000Y-126516000D01*
X64770000Y-126516000D02*
X64389000Y-126897000D01*
%TO.N,Net-(J1-P16)*%
X26243000Y-32325000D02*
X32325000Y-32325000D01*
X64957000Y-32325000D02*
X65024000Y-32258000D01*
X58547000Y-32258000D02*
X65024000Y-32258000D01*
X56007000Y-34798000D02*
X58547000Y-32258000D01*
X32325000Y-32325000D02*
X34798000Y-34798000D01*
X34798000Y-34798000D02*
X56007000Y-34798000D01*
%TO.N,Net-(D2-K)*%
X71870000Y-126758000D02*
X71501000Y-126758000D01*
X74930000Y-123698000D02*
X71870000Y-126758000D01*
%TO.N,Net-(D5-K)*%
X90170000Y-123698000D02*
X90170000Y-126873000D01*
%TO.N,Net-(D3-K)*%
X77470000Y-123698000D02*
X77470000Y-126758000D01*
%TO.N,Net-(D4-K)*%
X80010000Y-123698000D02*
X82955000Y-126643000D01*
X82955000Y-126643000D02*
X83820000Y-126643000D01*
%TO.N,Net-(JP9-B)*%
X78105000Y-36830000D02*
X78359000Y-36576000D01*
X29114000Y-36449000D02*
X33909000Y-36449000D01*
X33909000Y-36449000D02*
X34290000Y-36830000D01*
X29083000Y-36480000D02*
X29114000Y-36449000D01*
X34290000Y-36830000D02*
X78105000Y-36830000D01*
%TO.N,Net-(U3-R1_In)*%
X35687000Y-32131000D02*
X42164000Y-32131000D01*
X46609000Y-27686000D02*
X72707500Y-27686000D01*
X29083000Y-30940000D02*
X34496000Y-30940000D01*
X72707500Y-27686000D02*
X73215500Y-28194000D01*
X67945000Y-73660000D02*
X67945000Y-66294000D01*
X34496000Y-30940000D02*
X35687000Y-32131000D01*
X67945000Y-66294000D02*
X73152000Y-66294000D01*
X73215500Y-28194000D02*
X156835000Y-28194000D01*
X70104000Y-75819000D02*
X67945000Y-73660000D01*
X42164000Y-32131000D02*
X46609000Y-27686000D01*
X156835000Y-28194000D02*
X159720000Y-31079000D01*
%TO.N,Net-(J1-P22)*%
X33147000Y-50292000D02*
X91821000Y-50292000D01*
X31800000Y-48945000D02*
X33147000Y-50292000D01*
X118095000Y-48783000D02*
X127762000Y-48783000D01*
X95250000Y-53721000D02*
X113157000Y-53721000D01*
X113157000Y-53721000D02*
X118095000Y-48783000D01*
X91821000Y-50292000D02*
X95250000Y-53721000D01*
X26243000Y-48945000D02*
X31800000Y-48945000D01*
%TO.N,Net-(JP5-C)*%
X96393000Y-49276000D02*
X101219000Y-49276000D01*
X105791000Y-44704000D02*
X111379000Y-44704000D01*
X29083000Y-44790000D02*
X91907000Y-44790000D01*
X101219000Y-49276000D02*
X105791000Y-44704000D01*
X91907000Y-44790000D02*
X96393000Y-49276000D01*
%TO.N,Net-(J1-P14)*%
X26243000Y-26785000D02*
X39612000Y-26785000D01*
X39612000Y-26785000D02*
X39624000Y-26797000D01*
%TO.N,GND*%
X70005262Y-29845000D02*
X155956000Y-29845000D01*
X155956000Y-23114000D02*
X48387000Y-23114000D01*
X55880000Y-33274000D02*
X58420000Y-30734000D01*
X82804000Y-42418000D02*
X83312000Y-41910000D01*
X41898200Y-30618800D02*
X36079800Y-30618800D01*
X137160000Y-61849000D02*
X46609000Y-61849000D01*
X112522000Y-51943000D02*
X107823000Y-51943000D01*
X155956000Y-26739800D02*
X45777200Y-26739800D01*
X33020000Y-34544000D02*
X33832800Y-35356800D01*
X96075500Y-51879500D02*
X93091000Y-48895000D01*
X122174000Y-47117000D02*
X117348000Y-47117000D01*
X155956000Y-24961800D02*
X47186800Y-24961800D01*
X48387000Y-23114000D02*
X43180000Y-17907000D01*
X155956000Y-37211000D02*
X89154000Y-37211000D01*
X75311000Y-40767000D02*
X76962000Y-42418000D01*
X35179000Y-19939000D02*
X35179000Y-24003000D01*
X45847000Y-62611000D02*
X45847000Y-72771000D01*
X35179000Y-24003000D02*
X34798000Y-24384000D01*
X26243000Y-46175000D02*
X34237000Y-46175000D01*
X96139000Y-51943000D02*
X107823000Y-51943000D01*
X45777200Y-26739800D02*
X41898200Y-30618800D01*
X89154000Y-37211000D02*
X84836000Y-41529000D01*
X74549000Y-37465000D02*
X75438000Y-38354000D01*
X35687000Y-73025000D02*
X35687000Y-67056000D01*
X117348000Y-47117000D02*
X112522000Y-51943000D01*
X46609000Y-61849000D02*
X45847000Y-62611000D01*
X33832800Y-35356800D02*
X59766200Y-35356800D01*
X43180000Y-17907000D02*
X38100000Y-17907000D01*
X93091000Y-48895000D02*
X34290000Y-48895000D01*
X155956000Y-35121800D02*
X86798200Y-35121800D01*
X34163000Y-32512000D02*
X34925000Y-33274000D01*
X38100000Y-20701000D02*
X37211000Y-21590000D01*
X76962000Y-42418000D02*
X82804000Y-42418000D01*
X37211000Y-21590000D02*
X37211000Y-24765000D01*
X41402000Y-61595000D02*
X41402000Y-60071000D01*
X34925000Y-33274000D02*
X55880000Y-33274000D01*
X85852000Y-36068000D02*
X83185000Y-36068000D01*
X37211000Y-17907000D02*
X35179000Y-19939000D01*
X37211000Y-24765000D02*
X36576000Y-25400000D01*
X125603000Y-43688000D02*
X122174000Y-47117000D01*
X70125800Y-33295800D02*
X67691000Y-30861000D01*
X36079800Y-30618800D02*
X33528000Y-28067000D01*
X150241000Y-45212000D02*
X134366000Y-45212000D01*
X86798200Y-35121800D02*
X85852000Y-36068000D01*
X67691000Y-28517800D02*
X68678062Y-28517800D01*
X42926000Y-20701000D02*
X38100000Y-20701000D01*
X96075500Y-51879500D02*
X96139000Y-51943000D01*
X34237000Y-46175000D02*
X34290000Y-46228000D01*
X33401000Y-40767000D02*
X75311000Y-40767000D01*
X155956000Y-33295800D02*
X70125800Y-33295800D01*
X58420000Y-30734000D02*
X61722000Y-30734000D01*
X38100000Y-17907000D02*
X37211000Y-17907000D01*
X40767000Y-62230000D02*
X41402000Y-61595000D01*
X83312000Y-41910000D02*
X83312000Y-41529000D01*
X134366000Y-45212000D02*
X132842000Y-43688000D01*
X84836000Y-41529000D02*
X83312000Y-41529000D01*
X34798000Y-24384000D02*
X33655000Y-24384000D01*
X59766200Y-35356800D02*
X61722000Y-33401000D01*
X33401000Y-37465000D02*
X74549000Y-37465000D01*
X132842000Y-43688000D02*
X125603000Y-43688000D01*
X40767000Y-73025000D02*
X40767000Y-62230000D01*
X35687000Y-67056000D02*
X36703000Y-66040000D01*
X68678062Y-28517800D02*
X70005262Y-29845000D01*
X47186800Y-24961800D02*
X42926000Y-20701000D01*
%TO.N,Net-(J1-P20)*%
X26243000Y-43405000D02*
X98889000Y-43405000D01*
X98889000Y-43405000D02*
X99060000Y-43576000D01*
%TO.N,Net-(J1-P18)*%
X74388657Y-38481000D02*
X76293657Y-40386000D01*
X33020000Y-38481000D02*
X74388657Y-38481000D01*
X76293657Y-40386000D02*
X78359000Y-40386000D01*
X32404000Y-37865000D02*
X33020000Y-38481000D01*
X26243000Y-37865000D02*
X32404000Y-37865000D01*
%TO.N,Net-(U4-R1_In)*%
X103378000Y-64516000D02*
X104140000Y-63754000D01*
X68072000Y-63627000D02*
X104013000Y-63627000D01*
X104140000Y-63754000D02*
X104267000Y-63627000D01*
X155834000Y-42159000D02*
X155829000Y-42164000D01*
X159720000Y-42159000D02*
X155834000Y-42159000D01*
X138811000Y-63627000D02*
X140716000Y-61722000D01*
X103378000Y-75169000D02*
X103378000Y-64516000D01*
X104267000Y-63627000D02*
X138811000Y-63627000D01*
X31479000Y-39624000D02*
X29083000Y-42020000D01*
X104140000Y-75931000D02*
X103378000Y-75169000D01*
X68072000Y-39624000D02*
X31479000Y-39624000D01*
X104013000Y-63627000D02*
X104140000Y-63754000D01*
%TO.N,Net-(U5-R1_In)*%
X135763000Y-59944000D02*
X106426000Y-59944000D01*
X159720000Y-47699000D02*
X145214000Y-47699000D01*
X96237737Y-49911000D02*
X93886737Y-47560000D01*
X145214000Y-47699000D02*
X143510000Y-49403000D01*
X106299000Y-49911000D02*
X96237737Y-49911000D01*
X93886737Y-47560000D02*
X29083000Y-47560000D01*
X106426000Y-59944000D02*
X106299000Y-59817000D01*
%TO.N,Net-(J2-P23)*%
X153934000Y-57394000D02*
X153924000Y-57404000D01*
X153926000Y-56009000D02*
X153924000Y-56007000D01*
X153924000Y-53213000D02*
X153924000Y-54610000D01*
X153924000Y-56007000D02*
X153924000Y-57404000D01*
X153924000Y-54610000D02*
X153924000Y-56007000D01*
X159720000Y-56009000D02*
X153926000Y-56009000D01*
X153913000Y-56022000D02*
X153926000Y-56009000D01*
X153962000Y-51854000D02*
X153924000Y-51816000D01*
X162560000Y-57394000D02*
X153934000Y-57394000D01*
X149225000Y-56022000D02*
X153913000Y-56022000D01*
X162560000Y-51854000D02*
X153962000Y-51854000D01*
X153924000Y-58547000D02*
X154156000Y-58779000D01*
X162560000Y-54624000D02*
X153938000Y-54624000D01*
X153924000Y-51816000D02*
X153924000Y-53213000D01*
X154156000Y-58779000D02*
X159720000Y-58779000D01*
X153924000Y-57404000D02*
X153924000Y-58547000D01*
X153938000Y-54624000D02*
X153924000Y-54610000D01*
X153950000Y-53239000D02*
X153924000Y-53213000D01*
X159720000Y-53239000D02*
X153950000Y-53239000D01*
%TO.N,Net-(J2-P22)*%
X135763000Y-52197000D02*
X143510000Y-52197000D01*
X135763000Y-52197000D02*
X138049000Y-54483000D01*
X146685000Y-49022000D02*
X146939000Y-49022000D01*
X146939000Y-49022000D02*
X147001000Y-49084000D01*
X147001000Y-49084000D02*
X162560000Y-49084000D01*
X135509000Y-52197000D02*
X135763000Y-52197000D01*
X129555000Y-46243000D02*
X135509000Y-52197000D01*
X143510000Y-52197000D02*
X146685000Y-49022000D01*
X138303000Y-56896000D02*
X138176000Y-57023000D01*
X138049000Y-54483000D02*
X138303000Y-54483000D01*
X138303000Y-54483000D02*
X138303000Y-56896000D01*
X127762000Y-46243000D02*
X129555000Y-46243000D01*
%TO.N,Net-(JP5-A)*%
X111379000Y-42164000D02*
X135763000Y-42164000D01*
X153006000Y-44929000D02*
X159720000Y-44929000D01*
X135763000Y-42164000D02*
X137668000Y-40259000D01*
X148336000Y-40259000D02*
X153006000Y-44929000D01*
X137668000Y-40259000D02*
X148336000Y-40259000D01*
%TO.N,Net-(J2-P14)*%
X161544000Y-25908000D02*
X162560000Y-26924000D01*
X158488200Y-26770800D02*
X160951800Y-26770800D01*
X160951800Y-25908000D02*
X161544000Y-25908000D01*
X160951800Y-26770800D02*
X160951800Y-25908000D01*
X43624500Y-25844500D02*
X42037000Y-24257000D01*
X43434000Y-60960000D02*
X43434000Y-74041000D01*
X43624500Y-25844500D02*
X43688000Y-25908000D01*
X43688000Y-25908000D02*
X157625400Y-25908000D01*
X157625400Y-25908000D02*
X158488200Y-26770800D01*
X43434000Y-74041000D02*
X42037000Y-75438000D01*
X42037000Y-24257000D02*
X39624000Y-24257000D01*
%TO.N,Net-(JP9-A)*%
X157391000Y-34290000D02*
X83185000Y-34290000D01*
X83185000Y-34290000D02*
X80899000Y-36576000D01*
X159720000Y-36619000D02*
X157391000Y-34290000D01*
%TO.N,Net-(J2-P18)*%
X80899000Y-40386000D02*
X84709000Y-40386000D01*
X84709000Y-40386000D02*
X88773000Y-36322000D01*
X88773000Y-36322000D02*
X157680971Y-36322000D01*
X157680971Y-36322000D02*
X159362971Y-38004000D01*
X159362971Y-38004000D02*
X162560000Y-38004000D01*
%TO.N,Net-(J2-P20)*%
X103744000Y-41036000D02*
X99060000Y-41036000D01*
X162560000Y-43544000D02*
X153780000Y-43544000D01*
X103759000Y-41021000D02*
X103744000Y-41036000D01*
X153780000Y-43544000D02*
X148336000Y-38100000D01*
X148336000Y-38100000D02*
X106680000Y-38100000D01*
X106680000Y-38100000D02*
X103759000Y-41021000D01*
%TO.N,Net-(J2-P16)*%
X70802500Y-31432500D02*
X69088000Y-29718000D01*
X71834000Y-32464000D02*
X162560000Y-32464000D01*
X69088000Y-29718000D02*
X65024000Y-29718000D01*
X70802500Y-31432500D02*
X71834000Y-32464000D01*
%TO.N,Net-(U5-R2_Out)*%
X153670000Y-75677000D02*
X153670000Y-78232000D01*
X153670000Y-78232000D02*
X138651000Y-93251000D01*
X138651000Y-93251000D02*
X138651000Y-94742000D01*
X67310000Y-123698000D02*
X67310000Y-133350000D01*
X138651000Y-127922000D02*
X138651000Y-94742000D01*
X133223000Y-133350000D02*
X138651000Y-127922000D01*
X67310000Y-133350000D02*
X133223000Y-133350000D01*
%TO.N,3V3*%
X83808000Y-131825000D02*
X83820000Y-131837000D01*
X77406000Y-131889000D02*
X77470000Y-131825000D01*
X62231000Y-131825000D02*
X64516000Y-131825000D01*
X90689000Y-131837000D02*
X83820000Y-131837000D01*
X62230000Y-131826000D02*
X62231000Y-131825000D01*
X64516000Y-131825000D02*
X66116200Y-130224800D01*
X68503800Y-123203511D02*
X68503800Y-128764800D01*
X71628000Y-131889000D02*
X77406000Y-131889000D01*
X77470000Y-131825000D02*
X83808000Y-131825000D01*
X27940000Y-130302000D02*
X29464000Y-131826000D01*
X29464000Y-131826000D02*
X62230000Y-131826000D01*
X114872000Y-132016000D02*
X90868000Y-132016000D01*
X66815511Y-122504200D02*
X67804489Y-122504200D01*
X66116200Y-130224800D02*
X66116200Y-123203511D01*
X90868000Y-132016000D02*
X90689000Y-131837000D01*
X123190000Y-123698000D02*
X114872000Y-132016000D01*
X66116200Y-123203511D02*
X66815511Y-122504200D01*
X68503800Y-128764800D02*
X71628000Y-131889000D01*
X27940000Y-94107000D02*
X27940000Y-130302000D01*
X67804489Y-122504200D02*
X68503800Y-123203511D01*
%TO.N,Net-(U4-R2_Out)*%
X121920000Y-89002000D02*
X115926000Y-94996000D01*
X121920000Y-75931000D02*
X121920000Y-89002000D01*
%TO.N,Net-(JP1-B)*%
X34417000Y-66167000D02*
X33147000Y-67437000D01*
X33147000Y-74168000D02*
X34417000Y-75438000D01*
X33147000Y-67437000D02*
X33147000Y-74168000D01*
%TO.N,Net-(D1-A)*%
X64389000Y-128397000D02*
X64389000Y-130048000D01*
X64389000Y-130048000D02*
X64516000Y-130175000D01*
%TO.N,Net-(D2-A)*%
X71501000Y-128258000D02*
X71501000Y-130112000D01*
X71501000Y-130112000D02*
X71628000Y-130239000D01*
%TO.N,Net-(D3-A)*%
X77470000Y-128258000D02*
X77470000Y-130175000D01*
%TO.N,Net-(D4-A)*%
X83820000Y-128143000D02*
X83820000Y-130187000D01*
%TO.N,Net-(D5-A)*%
X90170000Y-128373000D02*
X90170000Y-130366000D01*
%TD*%
M02*
