%TF.GenerationSoftware,KiCad,Pcbnew,8.0.6*%
%TF.CreationDate,2025-01-19T12:17:07-08:00*%
%TF.ProjectId,DFboard2,4446626f-6172-4643-922e-6b696361645f,Rev0.1*%
%TF.SameCoordinates,Original*%
%TF.FileFunction,Soldermask,Bot*%
%TF.FilePolarity,Negative*%
%FSLAX46Y46*%
G04 Gerber Fmt 4.6, Leading zero omitted, Abs format (unit mm)*
G04 Created by KiCad (PCBNEW 8.0.6) date 2025-01-19 12:17:07*
%MOMM*%
%LPD*%
G01*
G04 APERTURE LIST*
%ADD10R,1.700000X1.700000*%
%ADD11O,1.700000X1.700000*%
%ADD12R,1.524000X1.524000*%
%ADD13C,1.524000*%
%ADD14C,4.000000*%
%ADD15R,1.600000X1.600000*%
%ADD16C,1.600000*%
%ADD17C,1.514000*%
G04 APERTURE END LIST*
D10*
%TO.C,JP5*%
X111379000Y-42164000D03*
D11*
X111379000Y-44704000D03*
X111379000Y-47244000D03*
%TD*%
D10*
%TO.C,TP9*%
X115926000Y-94996000D03*
%TD*%
D12*
%TO.C,U6*%
X164338000Y-91567000D03*
D13*
X161798000Y-91567000D03*
X146558000Y-91567000D03*
X144018000Y-91567000D03*
X144018000Y-94107000D03*
X146558000Y-94107000D03*
X161798000Y-94107000D03*
X164338000Y-94107000D03*
%TD*%
D10*
%TO.C,JP1*%
X39624000Y-24257000D03*
D11*
X39624000Y-26797000D03*
X39624000Y-29337000D03*
%TD*%
D10*
%TO.C,TP10*%
X138651000Y-94742000D03*
%TD*%
D12*
%TO.C,U4*%
X99060000Y-75931000D03*
D13*
X101600000Y-75931000D03*
X104140000Y-75931000D03*
X106680000Y-75931000D03*
X109220000Y-75931000D03*
X111760000Y-75931000D03*
X114300000Y-75931000D03*
X116840000Y-75931000D03*
X119380000Y-75931000D03*
X121920000Y-75931000D03*
%TD*%
D10*
%TO.C,JP4*%
X127762000Y-46243000D03*
D11*
X127762000Y-48783000D03*
X127762000Y-51323000D03*
%TD*%
D10*
%TO.C,TP2*%
X50673000Y-96393000D03*
%TD*%
D14*
%TO.C,J1*%
X28783000Y-18470000D03*
X28783000Y-65570000D03*
D15*
X29083000Y-25400000D03*
D16*
X29083000Y-28170000D03*
X29083000Y-30940000D03*
X29083000Y-33710000D03*
X29083000Y-36480000D03*
X29083000Y-39250000D03*
X29083000Y-42020000D03*
X29083000Y-44790000D03*
X29083000Y-47560000D03*
X29083000Y-50330000D03*
X29083000Y-53100000D03*
X29083000Y-55870000D03*
X29083000Y-58640000D03*
X26243000Y-26785000D03*
X26243000Y-29555000D03*
X26243000Y-32325000D03*
X26243000Y-35095000D03*
X26243000Y-37865000D03*
X26243000Y-40635000D03*
X26243000Y-43405000D03*
X26243000Y-46175000D03*
X26243000Y-48945000D03*
X26243000Y-51715000D03*
X26243000Y-54485000D03*
X26243000Y-57255000D03*
%TD*%
D14*
%TO.C,J2*%
X160020000Y-65709000D03*
X160020000Y-18609000D03*
D15*
X159720000Y-25539000D03*
D16*
X159720000Y-28309000D03*
X159720000Y-31079000D03*
X159720000Y-33849000D03*
X159720000Y-36619000D03*
X159720000Y-39389000D03*
X159720000Y-42159000D03*
X159720000Y-44929000D03*
X159720000Y-47699000D03*
X159720000Y-50469000D03*
X159720000Y-53239000D03*
X159720000Y-56009000D03*
X159720000Y-58779000D03*
X162560000Y-26924000D03*
X162560000Y-29694000D03*
X162560000Y-32464000D03*
X162560000Y-35234000D03*
X162560000Y-38004000D03*
X162560000Y-40774000D03*
X162560000Y-43544000D03*
X162560000Y-46314000D03*
X162560000Y-49084000D03*
X162560000Y-51854000D03*
X162560000Y-54624000D03*
X162560000Y-57394000D03*
%TD*%
D10*
%TO.C,TP1*%
X55673000Y-96393000D03*
%TD*%
%TO.C,TP3*%
X78279000Y-95885000D03*
%TD*%
D12*
%TO.C,U1*%
X45720000Y-91567000D03*
D13*
X43180000Y-91567000D03*
X27940000Y-91567000D03*
X25400000Y-91567000D03*
X25400000Y-94107000D03*
X27940000Y-94107000D03*
X43180000Y-94107000D03*
X45720000Y-94107000D03*
%TD*%
D10*
%TO.C,TP11*%
X82779000Y-95885000D03*
%TD*%
D12*
%TO.C,J13*%
X123190000Y-108458000D03*
D13*
X120650000Y-108458000D03*
X118110000Y-108458000D03*
X115570000Y-108458000D03*
X113030000Y-108458000D03*
X110490000Y-108458000D03*
X107950000Y-108458000D03*
X105410000Y-108458000D03*
X102870000Y-108458000D03*
X100330000Y-108458000D03*
X97790000Y-108458000D03*
X95250000Y-108458000D03*
X92710000Y-108458000D03*
X90170000Y-108458000D03*
X87630000Y-108458000D03*
X85090000Y-108458000D03*
X82550000Y-108458000D03*
X80010000Y-108458000D03*
X77470000Y-108458000D03*
X74930000Y-108458000D03*
X72390000Y-108458000D03*
X69850000Y-108458000D03*
X67310000Y-108458000D03*
X64770000Y-108458000D03*
X64770000Y-123698000D03*
X67310000Y-123698000D03*
X69850000Y-123698000D03*
X72390000Y-123698000D03*
D17*
X74930000Y-123698000D03*
X77470000Y-123698000D03*
X80010000Y-123698000D03*
X82550000Y-123698000D03*
X85090000Y-123698000D03*
X87630000Y-123698000D03*
D13*
X90170000Y-123698000D03*
X92710000Y-123698000D03*
X95250000Y-123698000D03*
X97790000Y-123698000D03*
X100330000Y-123698000D03*
X102870000Y-123698000D03*
X105410000Y-123698000D03*
X107950000Y-123698000D03*
X110490000Y-123698000D03*
X113030000Y-123698000D03*
X115570000Y-123698000D03*
X118110000Y-123698000D03*
X120650000Y-123698000D03*
X123190000Y-123698000D03*
%TD*%
D10*
%TO.C,TP14*%
X136525000Y-120904000D03*
%TD*%
D12*
%TO.C,U2*%
X34417000Y-75438000D03*
D13*
X36957000Y-75438000D03*
X39497000Y-75438000D03*
X42037000Y-75438000D03*
X44577000Y-75438000D03*
X47117000Y-75438000D03*
X49657000Y-75438000D03*
X52197000Y-75438000D03*
X54737000Y-75438000D03*
X57277000Y-75438000D03*
%TD*%
D10*
%TO.C,TP5*%
X111426000Y-94996000D03*
%TD*%
%TO.C,TP16*%
X122428000Y-101600000D03*
%TD*%
%TO.C,JP9*%
X80899000Y-36576000D03*
D11*
X78359000Y-36576000D03*
%TD*%
D12*
%TO.C,U5*%
X130810000Y-75677000D03*
D13*
X133350000Y-75677000D03*
X135890000Y-75677000D03*
X138430000Y-75677000D03*
X140970000Y-75677000D03*
X143510000Y-75677000D03*
X146050000Y-75677000D03*
X148590000Y-75677000D03*
X151130000Y-75677000D03*
X153670000Y-75677000D03*
%TD*%
D10*
%TO.C,JP2*%
X65024000Y-29718000D03*
D11*
X65024000Y-32258000D03*
X65024000Y-34798000D03*
%TD*%
D10*
%TO.C,TP12*%
X60173000Y-96393000D03*
%TD*%
%TO.C,TP7*%
X134151000Y-94742000D03*
%TD*%
%TO.C,TP13*%
X56007000Y-118999000D03*
%TD*%
%TO.C,JP8*%
X78359000Y-40386000D03*
D11*
X80899000Y-40386000D03*
%TD*%
D10*
%TO.C,TP8*%
X128651000Y-94742000D03*
%TD*%
D12*
%TO.C,U3*%
X65024000Y-75819000D03*
D13*
X67564000Y-75819000D03*
X70104000Y-75819000D03*
X72644000Y-75819000D03*
X75184000Y-75819000D03*
X77724000Y-75819000D03*
X80264000Y-75819000D03*
X82804000Y-75819000D03*
X85344000Y-75819000D03*
X87884000Y-75819000D03*
%TD*%
D10*
%TO.C,JP7*%
X149225000Y-56022000D03*
D11*
X149225000Y-58562000D03*
X149225000Y-61102000D03*
%TD*%
D10*
%TO.C,TP4*%
X73279000Y-95885000D03*
%TD*%
%TO.C,JP3*%
X99060000Y-41036000D03*
D11*
X99060000Y-43576000D03*
X99060000Y-46116000D03*
%TD*%
D10*
%TO.C,TP6*%
X106426000Y-94996000D03*
%TD*%
M02*
