%TF.GenerationSoftware,KiCad,Pcbnew,(6.0.8)*%
%TF.CreationDate,2023-01-05T18:44:52-08:00*%
%TF.ProjectId,Test,54657374-2e6b-4696-9361-645f70636258,Rev0.1*%
%TF.SameCoordinates,Original*%
%TF.FileFunction,Drillmap*%
%TF.FilePolarity,Positive*%
%FSLAX45Y45*%
G04 Gerber Fmt 4.5, Leading zero omitted, Abs format (unit mm)*
G04 Created by KiCad (PCBNEW (6.0.8)) date 2023-01-05 18:44:52*
%MOMM*%
%LPD*%
G01*
G04 APERTURE LIST*
%ADD10C,0.100000*%
%ADD11C,0.200000*%
%ADD12C,0.040000*%
%ADD13C,0.070000*%
%ADD14C,0.076200*%
%ADD15C,0.080000*%
%ADD16C,0.120000*%
G04 APERTURE END LIST*
D10*
X3810000Y-1778000D02*
X10160000Y-1778000D01*
X10160000Y-1778000D02*
X10160000Y-17526000D01*
X10160000Y-17526000D02*
X3810000Y-17526000D01*
X3810000Y-17526000D02*
X3810000Y-1778000D01*
D11*
D12*
X6330000Y-4806000D02*
X6370000Y-4846000D01*
X6370000Y-4806000D02*
X6330000Y-4846000D01*
X6584000Y-7346000D02*
X6624000Y-7386000D01*
X6624000Y-7346000D02*
X6584000Y-7386000D01*
X6584000Y-16744000D02*
X6624000Y-16784000D01*
X6624000Y-16744000D02*
X6584000Y-16784000D01*
X6838000Y-10140000D02*
X6878000Y-10180000D01*
X6878000Y-10140000D02*
X6838000Y-10180000D01*
X7600000Y-9124000D02*
X7640000Y-9164000D01*
X7640000Y-9124000D02*
X7600000Y-9164000D01*
X7600000Y-9886000D02*
X7640000Y-9926000D01*
X7640000Y-9886000D02*
X7600000Y-9926000D01*
X7600000Y-11410000D02*
X7640000Y-11450000D01*
X7640000Y-11410000D02*
X7600000Y-11450000D01*
X7600000Y-11918000D02*
X7640000Y-11958000D01*
X7640000Y-11918000D02*
X7600000Y-11958000D01*
X7600000Y-14204000D02*
X7640000Y-14244000D01*
X7640000Y-14204000D02*
X7600000Y-14244000D01*
X7854000Y-8870000D02*
X7894000Y-8910000D01*
X7894000Y-8870000D02*
X7854000Y-8910000D01*
X7854000Y-10140000D02*
X7894000Y-10180000D01*
X7894000Y-10140000D02*
X7854000Y-10180000D01*
X7854000Y-11918000D02*
X7894000Y-11958000D01*
X7894000Y-11918000D02*
X7854000Y-11958000D01*
X8108000Y-8870000D02*
X8148000Y-8910000D01*
X8148000Y-8870000D02*
X8108000Y-8910000D01*
X8362000Y-8870000D02*
X8402000Y-8910000D01*
X8402000Y-8870000D02*
X8362000Y-8910000D01*
X8362000Y-11156000D02*
X8402000Y-11196000D01*
X8402000Y-11156000D02*
X8362000Y-11196000D01*
X8362000Y-11664000D02*
X8402000Y-11704000D01*
X8402000Y-11664000D02*
X8362000Y-11704000D01*
X8870000Y-8616000D02*
X8910000Y-8656000D01*
X8910000Y-8616000D02*
X8870000Y-8656000D01*
X8870000Y-11664000D02*
X8910000Y-11704000D01*
X8910000Y-11664000D02*
X8870000Y-11704000D01*
X9124000Y-8616000D02*
X9164000Y-8656000D01*
X9164000Y-8616000D02*
X9124000Y-8656000D01*
X9124000Y-9632000D02*
X9164000Y-9672000D01*
X9164000Y-9632000D02*
X9124000Y-9672000D01*
D13*
X8163000Y-2387600D02*
G75*
G03*
X8163000Y-2387600I-35000J0D01*
G01*
X8163000Y-2641600D02*
G75*
G03*
X8163000Y-2641600I-35000J0D01*
G01*
X8163000Y-2895600D02*
G75*
G03*
X8163000Y-2895600I-35000J0D01*
G01*
X8163000Y-3149600D02*
G75*
G03*
X8163000Y-3149600I-35000J0D01*
G01*
X8163000Y-3403600D02*
G75*
G03*
X8163000Y-3403600I-35000J0D01*
G01*
X8163000Y-3657600D02*
G75*
G03*
X8163000Y-3657600I-35000J0D01*
G01*
X8163000Y-3911600D02*
G75*
G03*
X8163000Y-3911600I-35000J0D01*
G01*
X8163000Y-4165600D02*
G75*
G03*
X8163000Y-4165600I-35000J0D01*
G01*
X8163000Y-4419600D02*
G75*
G03*
X8163000Y-4419600I-35000J0D01*
G01*
X8163000Y-4673600D02*
G75*
G03*
X8163000Y-4673600I-35000J0D01*
G01*
X8163000Y-4927600D02*
G75*
G03*
X8163000Y-4927600I-35000J0D01*
G01*
X8163000Y-5181600D02*
G75*
G03*
X8163000Y-5181600I-35000J0D01*
G01*
X8163000Y-5435600D02*
G75*
G03*
X8163000Y-5435600I-35000J0D01*
G01*
X8163000Y-5689600D02*
G75*
G03*
X8163000Y-5689600I-35000J0D01*
G01*
X8163000Y-5943600D02*
G75*
G03*
X8163000Y-5943600I-35000J0D01*
G01*
X8163000Y-6197600D02*
G75*
G03*
X8163000Y-6197600I-35000J0D01*
G01*
X8163000Y-6451600D02*
G75*
G03*
X8163000Y-6451600I-35000J0D01*
G01*
X8163000Y-6705600D02*
G75*
G03*
X8163000Y-6705600I-35000J0D01*
G01*
X8163000Y-6959600D02*
G75*
G03*
X8163000Y-6959600I-35000J0D01*
G01*
X8163000Y-7213600D02*
G75*
G03*
X8163000Y-7213600I-35000J0D01*
G01*
X8163000Y-7467600D02*
G75*
G03*
X8163000Y-7467600I-35000J0D01*
G01*
X8163000Y-7721600D02*
G75*
G03*
X8163000Y-7721600I-35000J0D01*
G01*
X8163000Y-7975600D02*
G75*
G03*
X8163000Y-7975600I-35000J0D01*
G01*
X8163000Y-8229600D02*
G75*
G03*
X8163000Y-8229600I-35000J0D01*
G01*
X9687000Y-2387600D02*
G75*
G03*
X9687000Y-2387600I-35000J0D01*
G01*
X9687000Y-2641600D02*
G75*
G03*
X9687000Y-2641600I-35000J0D01*
G01*
X9687000Y-2895600D02*
G75*
G03*
X9687000Y-2895600I-35000J0D01*
G01*
X9687000Y-3149600D02*
G75*
G03*
X9687000Y-3149600I-35000J0D01*
G01*
X9687000Y-3403600D02*
G75*
G03*
X9687000Y-3403600I-35000J0D01*
G01*
X9687000Y-3657600D02*
G75*
G03*
X9687000Y-3657600I-35000J0D01*
G01*
X9687000Y-3911600D02*
G75*
G03*
X9687000Y-3911600I-35000J0D01*
G01*
X9687000Y-4165600D02*
G75*
G03*
X9687000Y-4165600I-35000J0D01*
G01*
X9687000Y-4419600D02*
G75*
G03*
X9687000Y-4419600I-35000J0D01*
G01*
X9687000Y-4673600D02*
G75*
G03*
X9687000Y-4673600I-35000J0D01*
G01*
X9687000Y-4927600D02*
G75*
G03*
X9687000Y-4927600I-35000J0D01*
G01*
X9687000Y-5181600D02*
G75*
G03*
X9687000Y-5181600I-35000J0D01*
G01*
X9687000Y-5435600D02*
G75*
G03*
X9687000Y-5435600I-35000J0D01*
G01*
X9687000Y-5689600D02*
G75*
G03*
X9687000Y-5689600I-35000J0D01*
G01*
X9687000Y-5943600D02*
G75*
G03*
X9687000Y-5943600I-35000J0D01*
G01*
X9687000Y-6197600D02*
G75*
G03*
X9687000Y-6197600I-35000J0D01*
G01*
X9687000Y-6451600D02*
G75*
G03*
X9687000Y-6451600I-35000J0D01*
G01*
X9687000Y-6705600D02*
G75*
G03*
X9687000Y-6705600I-35000J0D01*
G01*
X9687000Y-6959600D02*
G75*
G03*
X9687000Y-6959600I-35000J0D01*
G01*
X9687000Y-7213600D02*
G75*
G03*
X9687000Y-7213600I-35000J0D01*
G01*
X9687000Y-7467600D02*
G75*
G03*
X9687000Y-7467600I-35000J0D01*
G01*
X9687000Y-7721600D02*
G75*
G03*
X9687000Y-7721600I-35000J0D01*
G01*
X9687000Y-7975600D02*
G75*
G03*
X9687000Y-7975600I-35000J0D01*
G01*
X9687000Y-8229600D02*
G75*
G03*
X9687000Y-8229600I-35000J0D01*
G01*
D14*
X7604000Y-10557900D02*
X7604000Y-10634100D01*
X7565900Y-10596000D02*
X7642100Y-10596000D01*
X7604000Y-10811900D02*
X7604000Y-10888100D01*
X7565900Y-10850000D02*
X7642100Y-10850000D01*
X7858000Y-10557900D02*
X7858000Y-10634100D01*
X7819900Y-10596000D02*
X7896100Y-10596000D01*
X7858000Y-10811900D02*
X7858000Y-10888100D01*
X7819900Y-10850000D02*
X7896100Y-10850000D01*
X9382000Y-10557900D02*
X9382000Y-10634100D01*
X9343900Y-10596000D02*
X9420100Y-10596000D01*
X9382000Y-10811900D02*
X9382000Y-10888100D01*
X9343900Y-10850000D02*
X9420100Y-10850000D01*
X9636000Y-10557900D02*
X9636000Y-10634100D01*
X9597900Y-10596000D02*
X9674100Y-10596000D01*
X9636000Y-10811900D02*
X9636000Y-10888100D01*
X9597900Y-10850000D02*
X9674100Y-10850000D01*
D15*
X5895684Y-17173285D02*
X5895684Y-17116716D01*
X5839115Y-17116716D01*
X5839115Y-17173285D01*
X5895684Y-17173285D01*
X5946484Y-6810084D02*
X5946484Y-6753515D01*
X5889915Y-6753515D01*
X5889915Y-6810084D01*
X5946484Y-6810084D01*
X5946484Y-9350085D02*
X5946484Y-9293516D01*
X5889915Y-9293516D01*
X5889915Y-9350085D01*
X5946484Y-9350085D01*
X5946484Y-11966284D02*
X5946484Y-11909715D01*
X5889915Y-11909715D01*
X5889915Y-11966284D01*
X5946484Y-11966284D01*
X5946484Y-14506284D02*
X5946484Y-14449715D01*
X5889915Y-14449715D01*
X5889915Y-14506284D01*
X5946484Y-14506284D01*
X5997284Y-4143084D02*
X5997284Y-4086515D01*
X5940715Y-4086515D01*
X5940715Y-4143084D01*
X5997284Y-4143084D01*
X6657684Y-17173285D02*
X6657684Y-17116716D01*
X6601115Y-17116716D01*
X6601115Y-17173285D01*
X6657684Y-17173285D01*
X6708484Y-6810084D02*
X6708484Y-6753515D01*
X6651915Y-6753515D01*
X6651915Y-6810084D01*
X6708484Y-6810084D01*
X6708484Y-9350085D02*
X6708484Y-9293516D01*
X6651915Y-9293516D01*
X6651915Y-9350085D01*
X6708484Y-9350085D01*
X6708484Y-11966284D02*
X6708484Y-11909715D01*
X6651915Y-11909715D01*
X6651915Y-11966284D01*
X6708484Y-11966284D01*
X6708484Y-14506284D02*
X6708484Y-14449715D01*
X6651915Y-14449715D01*
X6651915Y-14506284D01*
X6708484Y-14506284D01*
X6759284Y-4143084D02*
X6759284Y-4086515D01*
X6702715Y-4086515D01*
X6702715Y-4143084D01*
X6759284Y-4143084D01*
D16*
X4533500Y-5065000D02*
X4593500Y-5005000D01*
X4533500Y-4945000D01*
X4473500Y-5005000D01*
X4533500Y-5065000D01*
X4533500Y-5827000D02*
X4593500Y-5767000D01*
X4533500Y-5707000D01*
X4473500Y-5767000D01*
X4533500Y-5827000D01*
X4533500Y-6081000D02*
X4593500Y-6021000D01*
X4533500Y-5961000D01*
X4473500Y-6021000D01*
X4533500Y-6081000D01*
X4533500Y-6843000D02*
X4593500Y-6783000D01*
X4533500Y-6723000D01*
X4473500Y-6783000D01*
X4533500Y-6843000D01*
X4533500Y-7605000D02*
X4593500Y-7545000D01*
X4533500Y-7485000D01*
X4473500Y-7545000D01*
X4533500Y-7605000D01*
X4533500Y-8367000D02*
X4593500Y-8307000D01*
X4533500Y-8247000D01*
X4473500Y-8307000D01*
X4533500Y-8367000D01*
X4533500Y-8621000D02*
X4593500Y-8561000D01*
X4533500Y-8501000D01*
X4473500Y-8561000D01*
X4533500Y-8621000D01*
X4533500Y-9383000D02*
X4593500Y-9323000D01*
X4533500Y-9263000D01*
X4473500Y-9323000D01*
X4533500Y-9383000D01*
X4564000Y-2346000D02*
X4624000Y-2286000D01*
X4564000Y-2226000D01*
X4504000Y-2286000D01*
X4564000Y-2346000D01*
X4564000Y-3108000D02*
X4624000Y-3048000D01*
X4564000Y-2988000D01*
X4504000Y-3048000D01*
X4564000Y-3108000D01*
X4564000Y-3363200D02*
X4624000Y-3303200D01*
X4564000Y-3243200D01*
X4504000Y-3303200D01*
X4564000Y-3363200D01*
X4564000Y-4125200D02*
X4624000Y-4065200D01*
X4564000Y-4005200D01*
X4504000Y-4065200D01*
X4564000Y-4125200D01*
X4564000Y-10220000D02*
X4624000Y-10160000D01*
X4564000Y-10100000D01*
X4504000Y-10160000D01*
X4564000Y-10220000D01*
X4564000Y-10982000D02*
X4624000Y-10922000D01*
X4564000Y-10862000D01*
X4504000Y-10922000D01*
X4564000Y-10982000D01*
X4564000Y-11236000D02*
X4624000Y-11176000D01*
X4564000Y-11116000D01*
X4504000Y-11176000D01*
X4564000Y-11236000D01*
X4564000Y-11998000D02*
X4624000Y-11938000D01*
X4564000Y-11878000D01*
X4504000Y-11938000D01*
X4564000Y-11998000D01*
X4564000Y-12760000D02*
X4624000Y-12700000D01*
X4564000Y-12640000D01*
X4504000Y-12700000D01*
X4564000Y-12760000D01*
X4564000Y-13522000D02*
X4624000Y-13462000D01*
X4564000Y-13402000D01*
X4504000Y-13462000D01*
X4564000Y-13522000D01*
X4564000Y-13776000D02*
X4624000Y-13716000D01*
X4564000Y-13656000D01*
X4504000Y-13716000D01*
X4564000Y-13776000D01*
X4564000Y-14538000D02*
X4624000Y-14478000D01*
X4564000Y-14418000D01*
X4504000Y-14478000D01*
X4564000Y-14538000D01*
X4564000Y-15427000D02*
X4624000Y-15367000D01*
X4564000Y-15307000D01*
X4504000Y-15367000D01*
X4564000Y-15427000D01*
X4564000Y-16189000D02*
X4624000Y-16129000D01*
X4564000Y-16069000D01*
X4504000Y-16129000D01*
X4564000Y-16189000D01*
X4564000Y-16443000D02*
X4624000Y-16383000D01*
X4564000Y-16323000D01*
X4504000Y-16383000D01*
X4564000Y-16443000D01*
X4564000Y-17205000D02*
X4624000Y-17145000D01*
X4564000Y-17085000D01*
X4504000Y-17145000D01*
X4564000Y-17205000D01*
X5303500Y-5065000D02*
X5363500Y-5005000D01*
X5303500Y-4945000D01*
X5243500Y-5005000D01*
X5303500Y-5065000D01*
X5303500Y-5319000D02*
X5363500Y-5259000D01*
X5303500Y-5199000D01*
X5243500Y-5259000D01*
X5303500Y-5319000D01*
X5303500Y-5573000D02*
X5363500Y-5513000D01*
X5303500Y-5453000D01*
X5243500Y-5513000D01*
X5303500Y-5573000D01*
X5303500Y-5827000D02*
X5363500Y-5767000D01*
X5303500Y-5707000D01*
X5243500Y-5767000D01*
X5303500Y-5827000D01*
X5303500Y-6081000D02*
X5363500Y-6021000D01*
X5303500Y-5961000D01*
X5243500Y-6021000D01*
X5303500Y-6081000D01*
X5303500Y-6335000D02*
X5363500Y-6275000D01*
X5303500Y-6215000D01*
X5243500Y-6275000D01*
X5303500Y-6335000D01*
X5303500Y-6589000D02*
X5363500Y-6529000D01*
X5303500Y-6469000D01*
X5243500Y-6529000D01*
X5303500Y-6589000D01*
X5303500Y-6843000D02*
X5363500Y-6783000D01*
X5303500Y-6723000D01*
X5243500Y-6783000D01*
X5303500Y-6843000D01*
X5303500Y-7605000D02*
X5363500Y-7545000D01*
X5303500Y-7485000D01*
X5243500Y-7545000D01*
X5303500Y-7605000D01*
X5303500Y-7859000D02*
X5363500Y-7799000D01*
X5303500Y-7739000D01*
X5243500Y-7799000D01*
X5303500Y-7859000D01*
X5303500Y-8113000D02*
X5363500Y-8053000D01*
X5303500Y-7993000D01*
X5243500Y-8053000D01*
X5303500Y-8113000D01*
X5303500Y-8367000D02*
X5363500Y-8307000D01*
X5303500Y-8247000D01*
X5243500Y-8307000D01*
X5303500Y-8367000D01*
X5303500Y-8621000D02*
X5363500Y-8561000D01*
X5303500Y-8501000D01*
X5243500Y-8561000D01*
X5303500Y-8621000D01*
X5303500Y-8875000D02*
X5363500Y-8815000D01*
X5303500Y-8755000D01*
X5243500Y-8815000D01*
X5303500Y-8875000D01*
X5303500Y-9129000D02*
X5363500Y-9069000D01*
X5303500Y-9009000D01*
X5243500Y-9069000D01*
X5303500Y-9129000D01*
X5303500Y-9383000D02*
X5363500Y-9323000D01*
X5303500Y-9263000D01*
X5243500Y-9323000D01*
X5303500Y-9383000D01*
X5334000Y-2346000D02*
X5394000Y-2286000D01*
X5334000Y-2226000D01*
X5274000Y-2286000D01*
X5334000Y-2346000D01*
X5334000Y-2600000D02*
X5394000Y-2540000D01*
X5334000Y-2480000D01*
X5274000Y-2540000D01*
X5334000Y-2600000D01*
X5334000Y-2854000D02*
X5394000Y-2794000D01*
X5334000Y-2734000D01*
X5274000Y-2794000D01*
X5334000Y-2854000D01*
X5334000Y-3108000D02*
X5394000Y-3048000D01*
X5334000Y-2988000D01*
X5274000Y-3048000D01*
X5334000Y-3108000D01*
X5334000Y-3363200D02*
X5394000Y-3303200D01*
X5334000Y-3243200D01*
X5274000Y-3303200D01*
X5334000Y-3363200D01*
X5334000Y-3617200D02*
X5394000Y-3557200D01*
X5334000Y-3497200D01*
X5274000Y-3557200D01*
X5334000Y-3617200D01*
X5334000Y-3871200D02*
X5394000Y-3811200D01*
X5334000Y-3751200D01*
X5274000Y-3811200D01*
X5334000Y-3871200D01*
X5334000Y-4125200D02*
X5394000Y-4065200D01*
X5334000Y-4005200D01*
X5274000Y-4065200D01*
X5334000Y-4125200D01*
X5334000Y-10220000D02*
X5394000Y-10160000D01*
X5334000Y-10100000D01*
X5274000Y-10160000D01*
X5334000Y-10220000D01*
X5334000Y-10474000D02*
X5394000Y-10414000D01*
X5334000Y-10354000D01*
X5274000Y-10414000D01*
X5334000Y-10474000D01*
X5334000Y-10728000D02*
X5394000Y-10668000D01*
X5334000Y-10608000D01*
X5274000Y-10668000D01*
X5334000Y-10728000D01*
X5334000Y-10982000D02*
X5394000Y-10922000D01*
X5334000Y-10862000D01*
X5274000Y-10922000D01*
X5334000Y-10982000D01*
X5334000Y-11236000D02*
X5394000Y-11176000D01*
X5334000Y-11116000D01*
X5274000Y-11176000D01*
X5334000Y-11236000D01*
X5334000Y-11490000D02*
X5394000Y-11430000D01*
X5334000Y-11370000D01*
X5274000Y-11430000D01*
X5334000Y-11490000D01*
X5334000Y-11744000D02*
X5394000Y-11684000D01*
X5334000Y-11624000D01*
X5274000Y-11684000D01*
X5334000Y-11744000D01*
X5334000Y-11998000D02*
X5394000Y-11938000D01*
X5334000Y-11878000D01*
X5274000Y-11938000D01*
X5334000Y-11998000D01*
X5334000Y-12760000D02*
X5394000Y-12700000D01*
X5334000Y-12640000D01*
X5274000Y-12700000D01*
X5334000Y-12760000D01*
X5334000Y-13014000D02*
X5394000Y-12954000D01*
X5334000Y-12894000D01*
X5274000Y-12954000D01*
X5334000Y-13014000D01*
X5334000Y-13268000D02*
X5394000Y-13208000D01*
X5334000Y-13148000D01*
X5274000Y-13208000D01*
X5334000Y-13268000D01*
X5334000Y-13522000D02*
X5394000Y-13462000D01*
X5334000Y-13402000D01*
X5274000Y-13462000D01*
X5334000Y-13522000D01*
X5334000Y-13776000D02*
X5394000Y-13716000D01*
X5334000Y-13656000D01*
X5274000Y-13716000D01*
X5334000Y-13776000D01*
X5334000Y-14030000D02*
X5394000Y-13970000D01*
X5334000Y-13910000D01*
X5274000Y-13970000D01*
X5334000Y-14030000D01*
X5334000Y-14284000D02*
X5394000Y-14224000D01*
X5334000Y-14164000D01*
X5274000Y-14224000D01*
X5334000Y-14284000D01*
X5334000Y-14538000D02*
X5394000Y-14478000D01*
X5334000Y-14418000D01*
X5274000Y-14478000D01*
X5334000Y-14538000D01*
X5334000Y-15427000D02*
X5394000Y-15367000D01*
X5334000Y-15307000D01*
X5274000Y-15367000D01*
X5334000Y-15427000D01*
X5334000Y-15681000D02*
X5394000Y-15621000D01*
X5334000Y-15561000D01*
X5274000Y-15621000D01*
X5334000Y-15681000D01*
X5334000Y-15935000D02*
X5394000Y-15875000D01*
X5334000Y-15815000D01*
X5274000Y-15875000D01*
X5334000Y-15935000D01*
X5334000Y-16189000D02*
X5394000Y-16129000D01*
X5334000Y-16069000D01*
X5274000Y-16129000D01*
X5334000Y-16189000D01*
X5334000Y-16443000D02*
X5394000Y-16383000D01*
X5334000Y-16323000D01*
X5274000Y-16383000D01*
X5334000Y-16443000D01*
X5334000Y-16697000D02*
X5394000Y-16637000D01*
X5334000Y-16577000D01*
X5274000Y-16637000D01*
X5334000Y-16697000D01*
X5334000Y-16951000D02*
X5394000Y-16891000D01*
X5334000Y-16831000D01*
X5274000Y-16891000D01*
X5334000Y-16951000D01*
X5334000Y-17205000D02*
X5394000Y-17145000D01*
X5334000Y-17085000D01*
X5274000Y-17145000D01*
X5334000Y-17205000D01*
D11*
X4062619Y-17841476D02*
X4062619Y-17641476D01*
X4110238Y-17641476D01*
X4138809Y-17651000D01*
X4157857Y-17670048D01*
X4167381Y-17689095D01*
X4176905Y-17727190D01*
X4176905Y-17755762D01*
X4167381Y-17793857D01*
X4157857Y-17812905D01*
X4138809Y-17831952D01*
X4110238Y-17841476D01*
X4062619Y-17841476D01*
X4262619Y-17841476D02*
X4262619Y-17708143D01*
X4262619Y-17746238D02*
X4272143Y-17727190D01*
X4281667Y-17717667D01*
X4300714Y-17708143D01*
X4319762Y-17708143D01*
X4386429Y-17841476D02*
X4386429Y-17708143D01*
X4386429Y-17641476D02*
X4376905Y-17651000D01*
X4386429Y-17660524D01*
X4395952Y-17651000D01*
X4386429Y-17641476D01*
X4386429Y-17660524D01*
X4510238Y-17841476D02*
X4491190Y-17831952D01*
X4481667Y-17812905D01*
X4481667Y-17641476D01*
X4615000Y-17841476D02*
X4595952Y-17831952D01*
X4586429Y-17812905D01*
X4586429Y-17641476D01*
X4843571Y-17841476D02*
X4843571Y-17641476D01*
X4910238Y-17784333D01*
X4976905Y-17641476D01*
X4976905Y-17841476D01*
X5157857Y-17841476D02*
X5157857Y-17736714D01*
X5148333Y-17717667D01*
X5129286Y-17708143D01*
X5091190Y-17708143D01*
X5072143Y-17717667D01*
X5157857Y-17831952D02*
X5138810Y-17841476D01*
X5091190Y-17841476D01*
X5072143Y-17831952D01*
X5062619Y-17812905D01*
X5062619Y-17793857D01*
X5072143Y-17774810D01*
X5091190Y-17765286D01*
X5138810Y-17765286D01*
X5157857Y-17755762D01*
X5253095Y-17708143D02*
X5253095Y-17908143D01*
X5253095Y-17717667D02*
X5272143Y-17708143D01*
X5310238Y-17708143D01*
X5329286Y-17717667D01*
X5338810Y-17727190D01*
X5348333Y-17746238D01*
X5348333Y-17803381D01*
X5338810Y-17822429D01*
X5329286Y-17831952D01*
X5310238Y-17841476D01*
X5272143Y-17841476D01*
X5253095Y-17831952D01*
X5434048Y-17822429D02*
X5443571Y-17831952D01*
X5434048Y-17841476D01*
X5424524Y-17831952D01*
X5434048Y-17822429D01*
X5434048Y-17841476D01*
X5434048Y-17717667D02*
X5443571Y-17727190D01*
X5434048Y-17736714D01*
X5424524Y-17727190D01*
X5434048Y-17717667D01*
X5434048Y-17736714D01*
D12*
X3765000Y-18151000D02*
X3805000Y-18191000D01*
X3805000Y-18151000D02*
X3765000Y-18191000D01*
D11*
X4100714Y-18061476D02*
X4119762Y-18061476D01*
X4138809Y-18071000D01*
X4148333Y-18080524D01*
X4157857Y-18099571D01*
X4167381Y-18137667D01*
X4167381Y-18185286D01*
X4157857Y-18223381D01*
X4148333Y-18242429D01*
X4138809Y-18251952D01*
X4119762Y-18261476D01*
X4100714Y-18261476D01*
X4081667Y-18251952D01*
X4072143Y-18242429D01*
X4062619Y-18223381D01*
X4053095Y-18185286D01*
X4053095Y-18137667D01*
X4062619Y-18099571D01*
X4072143Y-18080524D01*
X4081667Y-18071000D01*
X4100714Y-18061476D01*
X4253095Y-18242429D02*
X4262619Y-18251952D01*
X4253095Y-18261476D01*
X4243571Y-18251952D01*
X4253095Y-18242429D01*
X4253095Y-18261476D01*
X4434048Y-18128143D02*
X4434048Y-18261476D01*
X4386429Y-18051952D02*
X4338810Y-18194810D01*
X4462619Y-18194810D01*
X4576905Y-18061476D02*
X4595952Y-18061476D01*
X4615000Y-18071000D01*
X4624524Y-18080524D01*
X4634048Y-18099571D01*
X4643571Y-18137667D01*
X4643571Y-18185286D01*
X4634048Y-18223381D01*
X4624524Y-18242429D01*
X4615000Y-18251952D01*
X4595952Y-18261476D01*
X4576905Y-18261476D01*
X4557857Y-18251952D01*
X4548333Y-18242429D01*
X4538810Y-18223381D01*
X4529286Y-18185286D01*
X4529286Y-18137667D01*
X4538810Y-18099571D01*
X4548333Y-18080524D01*
X4557857Y-18071000D01*
X4576905Y-18061476D01*
X4767381Y-18061476D02*
X4786429Y-18061476D01*
X4805476Y-18071000D01*
X4815000Y-18080524D01*
X4824524Y-18099571D01*
X4834048Y-18137667D01*
X4834048Y-18185286D01*
X4824524Y-18223381D01*
X4815000Y-18242429D01*
X4805476Y-18251952D01*
X4786429Y-18261476D01*
X4767381Y-18261476D01*
X4748333Y-18251952D01*
X4738810Y-18242429D01*
X4729286Y-18223381D01*
X4719762Y-18185286D01*
X4719762Y-18137667D01*
X4729286Y-18099571D01*
X4738810Y-18080524D01*
X4748333Y-18071000D01*
X4767381Y-18061476D01*
X4919762Y-18261476D02*
X4919762Y-18128143D01*
X4919762Y-18147190D02*
X4929286Y-18137667D01*
X4948333Y-18128143D01*
X4976905Y-18128143D01*
X4995952Y-18137667D01*
X5005476Y-18156714D01*
X5005476Y-18261476D01*
X5005476Y-18156714D02*
X5015000Y-18137667D01*
X5034048Y-18128143D01*
X5062619Y-18128143D01*
X5081667Y-18137667D01*
X5091190Y-18156714D01*
X5091190Y-18261476D01*
X5186429Y-18261476D02*
X5186429Y-18128143D01*
X5186429Y-18147190D02*
X5195952Y-18137667D01*
X5215000Y-18128143D01*
X5243571Y-18128143D01*
X5262619Y-18137667D01*
X5272143Y-18156714D01*
X5272143Y-18261476D01*
X5272143Y-18156714D02*
X5281667Y-18137667D01*
X5300714Y-18128143D01*
X5329286Y-18128143D01*
X5348333Y-18137667D01*
X5357857Y-18156714D01*
X5357857Y-18261476D01*
X5748333Y-18051952D02*
X5576905Y-18309095D01*
X6005476Y-18061476D02*
X6024524Y-18061476D01*
X6043571Y-18071000D01*
X6053095Y-18080524D01*
X6062619Y-18099571D01*
X6072143Y-18137667D01*
X6072143Y-18185286D01*
X6062619Y-18223381D01*
X6053095Y-18242429D01*
X6043571Y-18251952D01*
X6024524Y-18261476D01*
X6005476Y-18261476D01*
X5986428Y-18251952D01*
X5976905Y-18242429D01*
X5967381Y-18223381D01*
X5957857Y-18185286D01*
X5957857Y-18137667D01*
X5967381Y-18099571D01*
X5976905Y-18080524D01*
X5986428Y-18071000D01*
X6005476Y-18061476D01*
X6157857Y-18242429D02*
X6167381Y-18251952D01*
X6157857Y-18261476D01*
X6148333Y-18251952D01*
X6157857Y-18242429D01*
X6157857Y-18261476D01*
X6291190Y-18061476D02*
X6310238Y-18061476D01*
X6329286Y-18071000D01*
X6338809Y-18080524D01*
X6348333Y-18099571D01*
X6357857Y-18137667D01*
X6357857Y-18185286D01*
X6348333Y-18223381D01*
X6338809Y-18242429D01*
X6329286Y-18251952D01*
X6310238Y-18261476D01*
X6291190Y-18261476D01*
X6272143Y-18251952D01*
X6262619Y-18242429D01*
X6253095Y-18223381D01*
X6243571Y-18185286D01*
X6243571Y-18137667D01*
X6253095Y-18099571D01*
X6262619Y-18080524D01*
X6272143Y-18071000D01*
X6291190Y-18061476D01*
X6548333Y-18261476D02*
X6434048Y-18261476D01*
X6491190Y-18261476D02*
X6491190Y-18061476D01*
X6472143Y-18090048D01*
X6453095Y-18109095D01*
X6434048Y-18118619D01*
X6729286Y-18061476D02*
X6634048Y-18061476D01*
X6624524Y-18156714D01*
X6634048Y-18147190D01*
X6653095Y-18137667D01*
X6700714Y-18137667D01*
X6719762Y-18147190D01*
X6729286Y-18156714D01*
X6738809Y-18175762D01*
X6738809Y-18223381D01*
X6729286Y-18242429D01*
X6719762Y-18251952D01*
X6700714Y-18261476D01*
X6653095Y-18261476D01*
X6634048Y-18251952D01*
X6624524Y-18242429D01*
X6805476Y-18061476D02*
X6938809Y-18061476D01*
X6853095Y-18261476D01*
X7005476Y-18061476D02*
X7005476Y-18099571D01*
X7081667Y-18061476D02*
X7081667Y-18099571D01*
X7376905Y-18337667D02*
X7367381Y-18328143D01*
X7348333Y-18299571D01*
X7338809Y-18280524D01*
X7329286Y-18251952D01*
X7319762Y-18204333D01*
X7319762Y-18166238D01*
X7329286Y-18118619D01*
X7338809Y-18090048D01*
X7348333Y-18071000D01*
X7367381Y-18042429D01*
X7376905Y-18032905D01*
X7443571Y-18080524D02*
X7453095Y-18071000D01*
X7472143Y-18061476D01*
X7519762Y-18061476D01*
X7538809Y-18071000D01*
X7548333Y-18080524D01*
X7557857Y-18099571D01*
X7557857Y-18118619D01*
X7548333Y-18147190D01*
X7434048Y-18261476D01*
X7557857Y-18261476D01*
X7681667Y-18061476D02*
X7700714Y-18061476D01*
X7719762Y-18071000D01*
X7729286Y-18080524D01*
X7738809Y-18099571D01*
X7748333Y-18137667D01*
X7748333Y-18185286D01*
X7738809Y-18223381D01*
X7729286Y-18242429D01*
X7719762Y-18251952D01*
X7700714Y-18261476D01*
X7681667Y-18261476D01*
X7662619Y-18251952D01*
X7653095Y-18242429D01*
X7643571Y-18223381D01*
X7634048Y-18185286D01*
X7634048Y-18137667D01*
X7643571Y-18099571D01*
X7653095Y-18080524D01*
X7662619Y-18071000D01*
X7681667Y-18061476D01*
X7986428Y-18261476D02*
X7986428Y-18061476D01*
X8072143Y-18261476D02*
X8072143Y-18156714D01*
X8062619Y-18137667D01*
X8043571Y-18128143D01*
X8015000Y-18128143D01*
X7995952Y-18137667D01*
X7986428Y-18147190D01*
X8195952Y-18261476D02*
X8176905Y-18251952D01*
X8167381Y-18242429D01*
X8157857Y-18223381D01*
X8157857Y-18166238D01*
X8167381Y-18147190D01*
X8176905Y-18137667D01*
X8195952Y-18128143D01*
X8224524Y-18128143D01*
X8243571Y-18137667D01*
X8253095Y-18147190D01*
X8262619Y-18166238D01*
X8262619Y-18223381D01*
X8253095Y-18242429D01*
X8243571Y-18251952D01*
X8224524Y-18261476D01*
X8195952Y-18261476D01*
X8376905Y-18261476D02*
X8357857Y-18251952D01*
X8348333Y-18232905D01*
X8348333Y-18061476D01*
X8529286Y-18251952D02*
X8510238Y-18261476D01*
X8472143Y-18261476D01*
X8453095Y-18251952D01*
X8443571Y-18232905D01*
X8443571Y-18156714D01*
X8453095Y-18137667D01*
X8472143Y-18128143D01*
X8510238Y-18128143D01*
X8529286Y-18137667D01*
X8538810Y-18156714D01*
X8538810Y-18175762D01*
X8443571Y-18194810D01*
X8615000Y-18251952D02*
X8634048Y-18261476D01*
X8672143Y-18261476D01*
X8691190Y-18251952D01*
X8700714Y-18232905D01*
X8700714Y-18223381D01*
X8691190Y-18204333D01*
X8672143Y-18194810D01*
X8643571Y-18194810D01*
X8624524Y-18185286D01*
X8615000Y-18166238D01*
X8615000Y-18156714D01*
X8624524Y-18137667D01*
X8643571Y-18128143D01*
X8672143Y-18128143D01*
X8691190Y-18137667D01*
X8767381Y-18337667D02*
X8776905Y-18328143D01*
X8795952Y-18299571D01*
X8805476Y-18280524D01*
X8815000Y-18251952D01*
X8824524Y-18204333D01*
X8824524Y-18166238D01*
X8815000Y-18118619D01*
X8805476Y-18090048D01*
X8795952Y-18071000D01*
X8776905Y-18042429D01*
X8767381Y-18032905D01*
D13*
X3805000Y-18435000D02*
G75*
G03*
X3805000Y-18435000I-35000J0D01*
G01*
D11*
X4100714Y-18325476D02*
X4119762Y-18325476D01*
X4138809Y-18335000D01*
X4148333Y-18344524D01*
X4157857Y-18363571D01*
X4167381Y-18401667D01*
X4167381Y-18449286D01*
X4157857Y-18487381D01*
X4148333Y-18506429D01*
X4138809Y-18515952D01*
X4119762Y-18525476D01*
X4100714Y-18525476D01*
X4081667Y-18515952D01*
X4072143Y-18506429D01*
X4062619Y-18487381D01*
X4053095Y-18449286D01*
X4053095Y-18401667D01*
X4062619Y-18363571D01*
X4072143Y-18344524D01*
X4081667Y-18335000D01*
X4100714Y-18325476D01*
X4253095Y-18506429D02*
X4262619Y-18515952D01*
X4253095Y-18525476D01*
X4243571Y-18515952D01*
X4253095Y-18506429D01*
X4253095Y-18525476D01*
X4329286Y-18325476D02*
X4462619Y-18325476D01*
X4376905Y-18525476D01*
X4576905Y-18325476D02*
X4595952Y-18325476D01*
X4615000Y-18335000D01*
X4624524Y-18344524D01*
X4634048Y-18363571D01*
X4643571Y-18401667D01*
X4643571Y-18449286D01*
X4634048Y-18487381D01*
X4624524Y-18506429D01*
X4615000Y-18515952D01*
X4595952Y-18525476D01*
X4576905Y-18525476D01*
X4557857Y-18515952D01*
X4548333Y-18506429D01*
X4538810Y-18487381D01*
X4529286Y-18449286D01*
X4529286Y-18401667D01*
X4538810Y-18363571D01*
X4548333Y-18344524D01*
X4557857Y-18335000D01*
X4576905Y-18325476D01*
X4767381Y-18325476D02*
X4786429Y-18325476D01*
X4805476Y-18335000D01*
X4815000Y-18344524D01*
X4824524Y-18363571D01*
X4834048Y-18401667D01*
X4834048Y-18449286D01*
X4824524Y-18487381D01*
X4815000Y-18506429D01*
X4805476Y-18515952D01*
X4786429Y-18525476D01*
X4767381Y-18525476D01*
X4748333Y-18515952D01*
X4738810Y-18506429D01*
X4729286Y-18487381D01*
X4719762Y-18449286D01*
X4719762Y-18401667D01*
X4729286Y-18363571D01*
X4738810Y-18344524D01*
X4748333Y-18335000D01*
X4767381Y-18325476D01*
X4919762Y-18525476D02*
X4919762Y-18392143D01*
X4919762Y-18411190D02*
X4929286Y-18401667D01*
X4948333Y-18392143D01*
X4976905Y-18392143D01*
X4995952Y-18401667D01*
X5005476Y-18420714D01*
X5005476Y-18525476D01*
X5005476Y-18420714D02*
X5015000Y-18401667D01*
X5034048Y-18392143D01*
X5062619Y-18392143D01*
X5081667Y-18401667D01*
X5091190Y-18420714D01*
X5091190Y-18525476D01*
X5186429Y-18525476D02*
X5186429Y-18392143D01*
X5186429Y-18411190D02*
X5195952Y-18401667D01*
X5215000Y-18392143D01*
X5243571Y-18392143D01*
X5262619Y-18401667D01*
X5272143Y-18420714D01*
X5272143Y-18525476D01*
X5272143Y-18420714D02*
X5281667Y-18401667D01*
X5300714Y-18392143D01*
X5329286Y-18392143D01*
X5348333Y-18401667D01*
X5357857Y-18420714D01*
X5357857Y-18525476D01*
X5748333Y-18315952D02*
X5576905Y-18573095D01*
X6005476Y-18325476D02*
X6024524Y-18325476D01*
X6043571Y-18335000D01*
X6053095Y-18344524D01*
X6062619Y-18363571D01*
X6072143Y-18401667D01*
X6072143Y-18449286D01*
X6062619Y-18487381D01*
X6053095Y-18506429D01*
X6043571Y-18515952D01*
X6024524Y-18525476D01*
X6005476Y-18525476D01*
X5986428Y-18515952D01*
X5976905Y-18506429D01*
X5967381Y-18487381D01*
X5957857Y-18449286D01*
X5957857Y-18401667D01*
X5967381Y-18363571D01*
X5976905Y-18344524D01*
X5986428Y-18335000D01*
X6005476Y-18325476D01*
X6157857Y-18506429D02*
X6167381Y-18515952D01*
X6157857Y-18525476D01*
X6148333Y-18515952D01*
X6157857Y-18506429D01*
X6157857Y-18525476D01*
X6291190Y-18325476D02*
X6310238Y-18325476D01*
X6329286Y-18335000D01*
X6338809Y-18344524D01*
X6348333Y-18363571D01*
X6357857Y-18401667D01*
X6357857Y-18449286D01*
X6348333Y-18487381D01*
X6338809Y-18506429D01*
X6329286Y-18515952D01*
X6310238Y-18525476D01*
X6291190Y-18525476D01*
X6272143Y-18515952D01*
X6262619Y-18506429D01*
X6253095Y-18487381D01*
X6243571Y-18449286D01*
X6243571Y-18401667D01*
X6253095Y-18363571D01*
X6262619Y-18344524D01*
X6272143Y-18335000D01*
X6291190Y-18325476D01*
X6434048Y-18344524D02*
X6443571Y-18335000D01*
X6462619Y-18325476D01*
X6510238Y-18325476D01*
X6529286Y-18335000D01*
X6538809Y-18344524D01*
X6548333Y-18363571D01*
X6548333Y-18382619D01*
X6538809Y-18411190D01*
X6424524Y-18525476D01*
X6548333Y-18525476D01*
X6615000Y-18325476D02*
X6748333Y-18325476D01*
X6662619Y-18525476D01*
X6910238Y-18325476D02*
X6872143Y-18325476D01*
X6853095Y-18335000D01*
X6843571Y-18344524D01*
X6824524Y-18373095D01*
X6815000Y-18411190D01*
X6815000Y-18487381D01*
X6824524Y-18506429D01*
X6834048Y-18515952D01*
X6853095Y-18525476D01*
X6891190Y-18525476D01*
X6910238Y-18515952D01*
X6919762Y-18506429D01*
X6929286Y-18487381D01*
X6929286Y-18439762D01*
X6919762Y-18420714D01*
X6910238Y-18411190D01*
X6891190Y-18401667D01*
X6853095Y-18401667D01*
X6834048Y-18411190D01*
X6824524Y-18420714D01*
X6815000Y-18439762D01*
X7005476Y-18325476D02*
X7005476Y-18363571D01*
X7081667Y-18325476D02*
X7081667Y-18363571D01*
X7376905Y-18601667D02*
X7367381Y-18592143D01*
X7348333Y-18563571D01*
X7338809Y-18544524D01*
X7329286Y-18515952D01*
X7319762Y-18468333D01*
X7319762Y-18430238D01*
X7329286Y-18382619D01*
X7338809Y-18354048D01*
X7348333Y-18335000D01*
X7367381Y-18306429D01*
X7376905Y-18296905D01*
X7538809Y-18392143D02*
X7538809Y-18525476D01*
X7491190Y-18315952D02*
X7443571Y-18458810D01*
X7567381Y-18458810D01*
X7672143Y-18411190D02*
X7653095Y-18401667D01*
X7643571Y-18392143D01*
X7634048Y-18373095D01*
X7634048Y-18363571D01*
X7643571Y-18344524D01*
X7653095Y-18335000D01*
X7672143Y-18325476D01*
X7710238Y-18325476D01*
X7729286Y-18335000D01*
X7738809Y-18344524D01*
X7748333Y-18363571D01*
X7748333Y-18373095D01*
X7738809Y-18392143D01*
X7729286Y-18401667D01*
X7710238Y-18411190D01*
X7672143Y-18411190D01*
X7653095Y-18420714D01*
X7643571Y-18430238D01*
X7634048Y-18449286D01*
X7634048Y-18487381D01*
X7643571Y-18506429D01*
X7653095Y-18515952D01*
X7672143Y-18525476D01*
X7710238Y-18525476D01*
X7729286Y-18515952D01*
X7738809Y-18506429D01*
X7748333Y-18487381D01*
X7748333Y-18449286D01*
X7738809Y-18430238D01*
X7729286Y-18420714D01*
X7710238Y-18411190D01*
X7986428Y-18525476D02*
X7986428Y-18325476D01*
X8072143Y-18525476D02*
X8072143Y-18420714D01*
X8062619Y-18401667D01*
X8043571Y-18392143D01*
X8015000Y-18392143D01*
X7995952Y-18401667D01*
X7986428Y-18411190D01*
X8195952Y-18525476D02*
X8176905Y-18515952D01*
X8167381Y-18506429D01*
X8157857Y-18487381D01*
X8157857Y-18430238D01*
X8167381Y-18411190D01*
X8176905Y-18401667D01*
X8195952Y-18392143D01*
X8224524Y-18392143D01*
X8243571Y-18401667D01*
X8253095Y-18411190D01*
X8262619Y-18430238D01*
X8262619Y-18487381D01*
X8253095Y-18506429D01*
X8243571Y-18515952D01*
X8224524Y-18525476D01*
X8195952Y-18525476D01*
X8376905Y-18525476D02*
X8357857Y-18515952D01*
X8348333Y-18496905D01*
X8348333Y-18325476D01*
X8529286Y-18515952D02*
X8510238Y-18525476D01*
X8472143Y-18525476D01*
X8453095Y-18515952D01*
X8443571Y-18496905D01*
X8443571Y-18420714D01*
X8453095Y-18401667D01*
X8472143Y-18392143D01*
X8510238Y-18392143D01*
X8529286Y-18401667D01*
X8538810Y-18420714D01*
X8538810Y-18439762D01*
X8443571Y-18458810D01*
X8615000Y-18515952D02*
X8634048Y-18525476D01*
X8672143Y-18525476D01*
X8691190Y-18515952D01*
X8700714Y-18496905D01*
X8700714Y-18487381D01*
X8691190Y-18468333D01*
X8672143Y-18458810D01*
X8643571Y-18458810D01*
X8624524Y-18449286D01*
X8615000Y-18430238D01*
X8615000Y-18420714D01*
X8624524Y-18401667D01*
X8643571Y-18392143D01*
X8672143Y-18392143D01*
X8691190Y-18401667D01*
X8767381Y-18601667D02*
X8776905Y-18592143D01*
X8795952Y-18563571D01*
X8805476Y-18544524D01*
X8815000Y-18515952D01*
X8824524Y-18468333D01*
X8824524Y-18430238D01*
X8815000Y-18382619D01*
X8805476Y-18354048D01*
X8795952Y-18335000D01*
X8776905Y-18306429D01*
X8767381Y-18296905D01*
D14*
X3766900Y-18660900D02*
X3766900Y-18737100D01*
X3728800Y-18699000D02*
X3805000Y-18699000D01*
D11*
X4100714Y-18589476D02*
X4119762Y-18589476D01*
X4138809Y-18599000D01*
X4148333Y-18608524D01*
X4157857Y-18627571D01*
X4167381Y-18665667D01*
X4167381Y-18713286D01*
X4157857Y-18751381D01*
X4148333Y-18770429D01*
X4138809Y-18779952D01*
X4119762Y-18789476D01*
X4100714Y-18789476D01*
X4081667Y-18779952D01*
X4072143Y-18770429D01*
X4062619Y-18751381D01*
X4053095Y-18713286D01*
X4053095Y-18665667D01*
X4062619Y-18627571D01*
X4072143Y-18608524D01*
X4081667Y-18599000D01*
X4100714Y-18589476D01*
X4253095Y-18770429D02*
X4262619Y-18779952D01*
X4253095Y-18789476D01*
X4243571Y-18779952D01*
X4253095Y-18770429D01*
X4253095Y-18789476D01*
X4329286Y-18589476D02*
X4462619Y-18589476D01*
X4376905Y-18789476D01*
X4624524Y-18589476D02*
X4586429Y-18589476D01*
X4567381Y-18599000D01*
X4557857Y-18608524D01*
X4538810Y-18637095D01*
X4529286Y-18675190D01*
X4529286Y-18751381D01*
X4538810Y-18770429D01*
X4548333Y-18779952D01*
X4567381Y-18789476D01*
X4605476Y-18789476D01*
X4624524Y-18779952D01*
X4634048Y-18770429D01*
X4643571Y-18751381D01*
X4643571Y-18703762D01*
X4634048Y-18684714D01*
X4624524Y-18675190D01*
X4605476Y-18665667D01*
X4567381Y-18665667D01*
X4548333Y-18675190D01*
X4538810Y-18684714D01*
X4529286Y-18703762D01*
X4719762Y-18608524D02*
X4729286Y-18599000D01*
X4748333Y-18589476D01*
X4795952Y-18589476D01*
X4815000Y-18599000D01*
X4824524Y-18608524D01*
X4834048Y-18627571D01*
X4834048Y-18646619D01*
X4824524Y-18675190D01*
X4710238Y-18789476D01*
X4834048Y-18789476D01*
X4919762Y-18789476D02*
X4919762Y-18656143D01*
X4919762Y-18675190D02*
X4929286Y-18665667D01*
X4948333Y-18656143D01*
X4976905Y-18656143D01*
X4995952Y-18665667D01*
X5005476Y-18684714D01*
X5005476Y-18789476D01*
X5005476Y-18684714D02*
X5015000Y-18665667D01*
X5034048Y-18656143D01*
X5062619Y-18656143D01*
X5081667Y-18665667D01*
X5091190Y-18684714D01*
X5091190Y-18789476D01*
X5186429Y-18789476D02*
X5186429Y-18656143D01*
X5186429Y-18675190D02*
X5195952Y-18665667D01*
X5215000Y-18656143D01*
X5243571Y-18656143D01*
X5262619Y-18665667D01*
X5272143Y-18684714D01*
X5272143Y-18789476D01*
X5272143Y-18684714D02*
X5281667Y-18665667D01*
X5300714Y-18656143D01*
X5329286Y-18656143D01*
X5348333Y-18665667D01*
X5357857Y-18684714D01*
X5357857Y-18789476D01*
X5748333Y-18579952D02*
X5576905Y-18837095D01*
X6005476Y-18589476D02*
X6024524Y-18589476D01*
X6043571Y-18599000D01*
X6053095Y-18608524D01*
X6062619Y-18627571D01*
X6072143Y-18665667D01*
X6072143Y-18713286D01*
X6062619Y-18751381D01*
X6053095Y-18770429D01*
X6043571Y-18779952D01*
X6024524Y-18789476D01*
X6005476Y-18789476D01*
X5986428Y-18779952D01*
X5976905Y-18770429D01*
X5967381Y-18751381D01*
X5957857Y-18713286D01*
X5957857Y-18665667D01*
X5967381Y-18627571D01*
X5976905Y-18608524D01*
X5986428Y-18599000D01*
X6005476Y-18589476D01*
X6157857Y-18770429D02*
X6167381Y-18779952D01*
X6157857Y-18789476D01*
X6148333Y-18779952D01*
X6157857Y-18770429D01*
X6157857Y-18789476D01*
X6291190Y-18589476D02*
X6310238Y-18589476D01*
X6329286Y-18599000D01*
X6338809Y-18608524D01*
X6348333Y-18627571D01*
X6357857Y-18665667D01*
X6357857Y-18713286D01*
X6348333Y-18751381D01*
X6338809Y-18770429D01*
X6329286Y-18779952D01*
X6310238Y-18789476D01*
X6291190Y-18789476D01*
X6272143Y-18779952D01*
X6262619Y-18770429D01*
X6253095Y-18751381D01*
X6243571Y-18713286D01*
X6243571Y-18665667D01*
X6253095Y-18627571D01*
X6262619Y-18608524D01*
X6272143Y-18599000D01*
X6291190Y-18589476D01*
X6424524Y-18589476D02*
X6548333Y-18589476D01*
X6481667Y-18665667D01*
X6510238Y-18665667D01*
X6529286Y-18675190D01*
X6538809Y-18684714D01*
X6548333Y-18703762D01*
X6548333Y-18751381D01*
X6538809Y-18770429D01*
X6529286Y-18779952D01*
X6510238Y-18789476D01*
X6453095Y-18789476D01*
X6434048Y-18779952D01*
X6424524Y-18770429D01*
X6672143Y-18589476D02*
X6691190Y-18589476D01*
X6710238Y-18599000D01*
X6719762Y-18608524D01*
X6729286Y-18627571D01*
X6738809Y-18665667D01*
X6738809Y-18713286D01*
X6729286Y-18751381D01*
X6719762Y-18770429D01*
X6710238Y-18779952D01*
X6691190Y-18789476D01*
X6672143Y-18789476D01*
X6653095Y-18779952D01*
X6643571Y-18770429D01*
X6634048Y-18751381D01*
X6624524Y-18713286D01*
X6624524Y-18665667D01*
X6634048Y-18627571D01*
X6643571Y-18608524D01*
X6653095Y-18599000D01*
X6672143Y-18589476D01*
X6862619Y-18589476D02*
X6881667Y-18589476D01*
X6900714Y-18599000D01*
X6910238Y-18608524D01*
X6919762Y-18627571D01*
X6929286Y-18665667D01*
X6929286Y-18713286D01*
X6919762Y-18751381D01*
X6910238Y-18770429D01*
X6900714Y-18779952D01*
X6881667Y-18789476D01*
X6862619Y-18789476D01*
X6843571Y-18779952D01*
X6834048Y-18770429D01*
X6824524Y-18751381D01*
X6815000Y-18713286D01*
X6815000Y-18665667D01*
X6824524Y-18627571D01*
X6834048Y-18608524D01*
X6843571Y-18599000D01*
X6862619Y-18589476D01*
X7005476Y-18589476D02*
X7005476Y-18627571D01*
X7081667Y-18589476D02*
X7081667Y-18627571D01*
X7376905Y-18865667D02*
X7367381Y-18856143D01*
X7348333Y-18827571D01*
X7338809Y-18808524D01*
X7329286Y-18779952D01*
X7319762Y-18732333D01*
X7319762Y-18694238D01*
X7329286Y-18646619D01*
X7338809Y-18618048D01*
X7348333Y-18599000D01*
X7367381Y-18570429D01*
X7376905Y-18560905D01*
X7481667Y-18675190D02*
X7462619Y-18665667D01*
X7453095Y-18656143D01*
X7443571Y-18637095D01*
X7443571Y-18627571D01*
X7453095Y-18608524D01*
X7462619Y-18599000D01*
X7481667Y-18589476D01*
X7519762Y-18589476D01*
X7538809Y-18599000D01*
X7548333Y-18608524D01*
X7557857Y-18627571D01*
X7557857Y-18637095D01*
X7548333Y-18656143D01*
X7538809Y-18665667D01*
X7519762Y-18675190D01*
X7481667Y-18675190D01*
X7462619Y-18684714D01*
X7453095Y-18694238D01*
X7443571Y-18713286D01*
X7443571Y-18751381D01*
X7453095Y-18770429D01*
X7462619Y-18779952D01*
X7481667Y-18789476D01*
X7519762Y-18789476D01*
X7538809Y-18779952D01*
X7548333Y-18770429D01*
X7557857Y-18751381D01*
X7557857Y-18713286D01*
X7548333Y-18694238D01*
X7538809Y-18684714D01*
X7519762Y-18675190D01*
X7795952Y-18789476D02*
X7795952Y-18589476D01*
X7881667Y-18789476D02*
X7881667Y-18684714D01*
X7872143Y-18665667D01*
X7853095Y-18656143D01*
X7824524Y-18656143D01*
X7805476Y-18665667D01*
X7795952Y-18675190D01*
X8005476Y-18789476D02*
X7986428Y-18779952D01*
X7976905Y-18770429D01*
X7967381Y-18751381D01*
X7967381Y-18694238D01*
X7976905Y-18675190D01*
X7986428Y-18665667D01*
X8005476Y-18656143D01*
X8034048Y-18656143D01*
X8053095Y-18665667D01*
X8062619Y-18675190D01*
X8072143Y-18694238D01*
X8072143Y-18751381D01*
X8062619Y-18770429D01*
X8053095Y-18779952D01*
X8034048Y-18789476D01*
X8005476Y-18789476D01*
X8186428Y-18789476D02*
X8167381Y-18779952D01*
X8157857Y-18760905D01*
X8157857Y-18589476D01*
X8338809Y-18779952D02*
X8319762Y-18789476D01*
X8281667Y-18789476D01*
X8262619Y-18779952D01*
X8253095Y-18760905D01*
X8253095Y-18684714D01*
X8262619Y-18665667D01*
X8281667Y-18656143D01*
X8319762Y-18656143D01*
X8338809Y-18665667D01*
X8348333Y-18684714D01*
X8348333Y-18703762D01*
X8253095Y-18722810D01*
X8424524Y-18779952D02*
X8443571Y-18789476D01*
X8481667Y-18789476D01*
X8500714Y-18779952D01*
X8510238Y-18760905D01*
X8510238Y-18751381D01*
X8500714Y-18732333D01*
X8481667Y-18722810D01*
X8453095Y-18722810D01*
X8434048Y-18713286D01*
X8424524Y-18694238D01*
X8424524Y-18684714D01*
X8434048Y-18665667D01*
X8453095Y-18656143D01*
X8481667Y-18656143D01*
X8500714Y-18665667D01*
X8576905Y-18865667D02*
X8586429Y-18856143D01*
X8605476Y-18827571D01*
X8615000Y-18808524D01*
X8624524Y-18779952D01*
X8634048Y-18732333D01*
X8634048Y-18694238D01*
X8624524Y-18646619D01*
X8615000Y-18618048D01*
X8605476Y-18599000D01*
X8586429Y-18570429D01*
X8576905Y-18560905D01*
D15*
X3793284Y-18991285D02*
X3793284Y-18934716D01*
X3736715Y-18934716D01*
X3736715Y-18991285D01*
X3793284Y-18991285D01*
D11*
X4100714Y-18853476D02*
X4119762Y-18853476D01*
X4138809Y-18863000D01*
X4148333Y-18872524D01*
X4157857Y-18891571D01*
X4167381Y-18929667D01*
X4167381Y-18977286D01*
X4157857Y-19015381D01*
X4148333Y-19034429D01*
X4138809Y-19043952D01*
X4119762Y-19053476D01*
X4100714Y-19053476D01*
X4081667Y-19043952D01*
X4072143Y-19034429D01*
X4062619Y-19015381D01*
X4053095Y-18977286D01*
X4053095Y-18929667D01*
X4062619Y-18891571D01*
X4072143Y-18872524D01*
X4081667Y-18863000D01*
X4100714Y-18853476D01*
X4253095Y-19034429D02*
X4262619Y-19043952D01*
X4253095Y-19053476D01*
X4243571Y-19043952D01*
X4253095Y-19034429D01*
X4253095Y-19053476D01*
X4376905Y-18939190D02*
X4357857Y-18929667D01*
X4348333Y-18920143D01*
X4338810Y-18901095D01*
X4338810Y-18891571D01*
X4348333Y-18872524D01*
X4357857Y-18863000D01*
X4376905Y-18853476D01*
X4415000Y-18853476D01*
X4434048Y-18863000D01*
X4443571Y-18872524D01*
X4453095Y-18891571D01*
X4453095Y-18901095D01*
X4443571Y-18920143D01*
X4434048Y-18929667D01*
X4415000Y-18939190D01*
X4376905Y-18939190D01*
X4357857Y-18948714D01*
X4348333Y-18958238D01*
X4338810Y-18977286D01*
X4338810Y-19015381D01*
X4348333Y-19034429D01*
X4357857Y-19043952D01*
X4376905Y-19053476D01*
X4415000Y-19053476D01*
X4434048Y-19043952D01*
X4443571Y-19034429D01*
X4453095Y-19015381D01*
X4453095Y-18977286D01*
X4443571Y-18958238D01*
X4434048Y-18948714D01*
X4415000Y-18939190D01*
X4576905Y-18853476D02*
X4595952Y-18853476D01*
X4615000Y-18863000D01*
X4624524Y-18872524D01*
X4634048Y-18891571D01*
X4643571Y-18929667D01*
X4643571Y-18977286D01*
X4634048Y-19015381D01*
X4624524Y-19034429D01*
X4615000Y-19043952D01*
X4595952Y-19053476D01*
X4576905Y-19053476D01*
X4557857Y-19043952D01*
X4548333Y-19034429D01*
X4538810Y-19015381D01*
X4529286Y-18977286D01*
X4529286Y-18929667D01*
X4538810Y-18891571D01*
X4548333Y-18872524D01*
X4557857Y-18863000D01*
X4576905Y-18853476D01*
X4767381Y-18853476D02*
X4786429Y-18853476D01*
X4805476Y-18863000D01*
X4815000Y-18872524D01*
X4824524Y-18891571D01*
X4834048Y-18929667D01*
X4834048Y-18977286D01*
X4824524Y-19015381D01*
X4815000Y-19034429D01*
X4805476Y-19043952D01*
X4786429Y-19053476D01*
X4767381Y-19053476D01*
X4748333Y-19043952D01*
X4738810Y-19034429D01*
X4729286Y-19015381D01*
X4719762Y-18977286D01*
X4719762Y-18929667D01*
X4729286Y-18891571D01*
X4738810Y-18872524D01*
X4748333Y-18863000D01*
X4767381Y-18853476D01*
X4919762Y-19053476D02*
X4919762Y-18920143D01*
X4919762Y-18939190D02*
X4929286Y-18929667D01*
X4948333Y-18920143D01*
X4976905Y-18920143D01*
X4995952Y-18929667D01*
X5005476Y-18948714D01*
X5005476Y-19053476D01*
X5005476Y-18948714D02*
X5015000Y-18929667D01*
X5034048Y-18920143D01*
X5062619Y-18920143D01*
X5081667Y-18929667D01*
X5091190Y-18948714D01*
X5091190Y-19053476D01*
X5186429Y-19053476D02*
X5186429Y-18920143D01*
X5186429Y-18939190D02*
X5195952Y-18929667D01*
X5215000Y-18920143D01*
X5243571Y-18920143D01*
X5262619Y-18929667D01*
X5272143Y-18948714D01*
X5272143Y-19053476D01*
X5272143Y-18948714D02*
X5281667Y-18929667D01*
X5300714Y-18920143D01*
X5329286Y-18920143D01*
X5348333Y-18929667D01*
X5357857Y-18948714D01*
X5357857Y-19053476D01*
X5748333Y-18843952D02*
X5576905Y-19101095D01*
X6005476Y-18853476D02*
X6024524Y-18853476D01*
X6043571Y-18863000D01*
X6053095Y-18872524D01*
X6062619Y-18891571D01*
X6072143Y-18929667D01*
X6072143Y-18977286D01*
X6062619Y-19015381D01*
X6053095Y-19034429D01*
X6043571Y-19043952D01*
X6024524Y-19053476D01*
X6005476Y-19053476D01*
X5986428Y-19043952D01*
X5976905Y-19034429D01*
X5967381Y-19015381D01*
X5957857Y-18977286D01*
X5957857Y-18929667D01*
X5967381Y-18891571D01*
X5976905Y-18872524D01*
X5986428Y-18863000D01*
X6005476Y-18853476D01*
X6157857Y-19034429D02*
X6167381Y-19043952D01*
X6157857Y-19053476D01*
X6148333Y-19043952D01*
X6157857Y-19034429D01*
X6157857Y-19053476D01*
X6291190Y-18853476D02*
X6310238Y-18853476D01*
X6329286Y-18863000D01*
X6338809Y-18872524D01*
X6348333Y-18891571D01*
X6357857Y-18929667D01*
X6357857Y-18977286D01*
X6348333Y-19015381D01*
X6338809Y-19034429D01*
X6329286Y-19043952D01*
X6310238Y-19053476D01*
X6291190Y-19053476D01*
X6272143Y-19043952D01*
X6262619Y-19034429D01*
X6253095Y-19015381D01*
X6243571Y-18977286D01*
X6243571Y-18929667D01*
X6253095Y-18891571D01*
X6262619Y-18872524D01*
X6272143Y-18863000D01*
X6291190Y-18853476D01*
X6424524Y-18853476D02*
X6548333Y-18853476D01*
X6481667Y-18929667D01*
X6510238Y-18929667D01*
X6529286Y-18939190D01*
X6538809Y-18948714D01*
X6548333Y-18967762D01*
X6548333Y-19015381D01*
X6538809Y-19034429D01*
X6529286Y-19043952D01*
X6510238Y-19053476D01*
X6453095Y-19053476D01*
X6434048Y-19043952D01*
X6424524Y-19034429D01*
X6738809Y-19053476D02*
X6624524Y-19053476D01*
X6681667Y-19053476D02*
X6681667Y-18853476D01*
X6662619Y-18882048D01*
X6643571Y-18901095D01*
X6624524Y-18910619D01*
X6919762Y-18853476D02*
X6824524Y-18853476D01*
X6815000Y-18948714D01*
X6824524Y-18939190D01*
X6843571Y-18929667D01*
X6891190Y-18929667D01*
X6910238Y-18939190D01*
X6919762Y-18948714D01*
X6929286Y-18967762D01*
X6929286Y-19015381D01*
X6919762Y-19034429D01*
X6910238Y-19043952D01*
X6891190Y-19053476D01*
X6843571Y-19053476D01*
X6824524Y-19043952D01*
X6815000Y-19034429D01*
X7005476Y-18853476D02*
X7005476Y-18891571D01*
X7081667Y-18853476D02*
X7081667Y-18891571D01*
X7376905Y-19129667D02*
X7367381Y-19120143D01*
X7348333Y-19091571D01*
X7338809Y-19072524D01*
X7329286Y-19043952D01*
X7319762Y-18996333D01*
X7319762Y-18958238D01*
X7329286Y-18910619D01*
X7338809Y-18882048D01*
X7348333Y-18863000D01*
X7367381Y-18834429D01*
X7376905Y-18824905D01*
X7557857Y-19053476D02*
X7443571Y-19053476D01*
X7500714Y-19053476D02*
X7500714Y-18853476D01*
X7481667Y-18882048D01*
X7462619Y-18901095D01*
X7443571Y-18910619D01*
X7634048Y-18872524D02*
X7643571Y-18863000D01*
X7662619Y-18853476D01*
X7710238Y-18853476D01*
X7729286Y-18863000D01*
X7738809Y-18872524D01*
X7748333Y-18891571D01*
X7748333Y-18910619D01*
X7738809Y-18939190D01*
X7624524Y-19053476D01*
X7748333Y-19053476D01*
X7986428Y-19053476D02*
X7986428Y-18853476D01*
X8072143Y-19053476D02*
X8072143Y-18948714D01*
X8062619Y-18929667D01*
X8043571Y-18920143D01*
X8015000Y-18920143D01*
X7995952Y-18929667D01*
X7986428Y-18939190D01*
X8195952Y-19053476D02*
X8176905Y-19043952D01*
X8167381Y-19034429D01*
X8157857Y-19015381D01*
X8157857Y-18958238D01*
X8167381Y-18939190D01*
X8176905Y-18929667D01*
X8195952Y-18920143D01*
X8224524Y-18920143D01*
X8243571Y-18929667D01*
X8253095Y-18939190D01*
X8262619Y-18958238D01*
X8262619Y-19015381D01*
X8253095Y-19034429D01*
X8243571Y-19043952D01*
X8224524Y-19053476D01*
X8195952Y-19053476D01*
X8376905Y-19053476D02*
X8357857Y-19043952D01*
X8348333Y-19024905D01*
X8348333Y-18853476D01*
X8529286Y-19043952D02*
X8510238Y-19053476D01*
X8472143Y-19053476D01*
X8453095Y-19043952D01*
X8443571Y-19024905D01*
X8443571Y-18948714D01*
X8453095Y-18929667D01*
X8472143Y-18920143D01*
X8510238Y-18920143D01*
X8529286Y-18929667D01*
X8538810Y-18948714D01*
X8538810Y-18967762D01*
X8443571Y-18986810D01*
X8615000Y-19043952D02*
X8634048Y-19053476D01*
X8672143Y-19053476D01*
X8691190Y-19043952D01*
X8700714Y-19024905D01*
X8700714Y-19015381D01*
X8691190Y-18996333D01*
X8672143Y-18986810D01*
X8643571Y-18986810D01*
X8624524Y-18977286D01*
X8615000Y-18958238D01*
X8615000Y-18948714D01*
X8624524Y-18929667D01*
X8643571Y-18920143D01*
X8672143Y-18920143D01*
X8691190Y-18929667D01*
X8767381Y-19129667D02*
X8776905Y-19120143D01*
X8795952Y-19091571D01*
X8805476Y-19072524D01*
X8815000Y-19043952D01*
X8824524Y-18996333D01*
X8824524Y-18958238D01*
X8815000Y-18910619D01*
X8805476Y-18882048D01*
X8795952Y-18863000D01*
X8776905Y-18834429D01*
X8767381Y-18824905D01*
D16*
X3745000Y-19287000D02*
X3805000Y-19227000D01*
X3745000Y-19167000D01*
X3685000Y-19227000D01*
X3745000Y-19287000D01*
D11*
X4167381Y-19317476D02*
X4053095Y-19317476D01*
X4110238Y-19317476D02*
X4110238Y-19117476D01*
X4091190Y-19146048D01*
X4072143Y-19165095D01*
X4053095Y-19174619D01*
X4253095Y-19298429D02*
X4262619Y-19307952D01*
X4253095Y-19317476D01*
X4243571Y-19307952D01*
X4253095Y-19298429D01*
X4253095Y-19317476D01*
X4338810Y-19136524D02*
X4348333Y-19127000D01*
X4367381Y-19117476D01*
X4415000Y-19117476D01*
X4434048Y-19127000D01*
X4443571Y-19136524D01*
X4453095Y-19155571D01*
X4453095Y-19174619D01*
X4443571Y-19203190D01*
X4329286Y-19317476D01*
X4453095Y-19317476D01*
X4576905Y-19117476D02*
X4595952Y-19117476D01*
X4615000Y-19127000D01*
X4624524Y-19136524D01*
X4634048Y-19155571D01*
X4643571Y-19193667D01*
X4643571Y-19241286D01*
X4634048Y-19279381D01*
X4624524Y-19298429D01*
X4615000Y-19307952D01*
X4595952Y-19317476D01*
X4576905Y-19317476D01*
X4557857Y-19307952D01*
X4548333Y-19298429D01*
X4538810Y-19279381D01*
X4529286Y-19241286D01*
X4529286Y-19193667D01*
X4538810Y-19155571D01*
X4548333Y-19136524D01*
X4557857Y-19127000D01*
X4576905Y-19117476D01*
X4767381Y-19117476D02*
X4786429Y-19117476D01*
X4805476Y-19127000D01*
X4815000Y-19136524D01*
X4824524Y-19155571D01*
X4834048Y-19193667D01*
X4834048Y-19241286D01*
X4824524Y-19279381D01*
X4815000Y-19298429D01*
X4805476Y-19307952D01*
X4786429Y-19317476D01*
X4767381Y-19317476D01*
X4748333Y-19307952D01*
X4738810Y-19298429D01*
X4729286Y-19279381D01*
X4719762Y-19241286D01*
X4719762Y-19193667D01*
X4729286Y-19155571D01*
X4738810Y-19136524D01*
X4748333Y-19127000D01*
X4767381Y-19117476D01*
X4919762Y-19317476D02*
X4919762Y-19184143D01*
X4919762Y-19203190D02*
X4929286Y-19193667D01*
X4948333Y-19184143D01*
X4976905Y-19184143D01*
X4995952Y-19193667D01*
X5005476Y-19212714D01*
X5005476Y-19317476D01*
X5005476Y-19212714D02*
X5015000Y-19193667D01*
X5034048Y-19184143D01*
X5062619Y-19184143D01*
X5081667Y-19193667D01*
X5091190Y-19212714D01*
X5091190Y-19317476D01*
X5186429Y-19317476D02*
X5186429Y-19184143D01*
X5186429Y-19203190D02*
X5195952Y-19193667D01*
X5215000Y-19184143D01*
X5243571Y-19184143D01*
X5262619Y-19193667D01*
X5272143Y-19212714D01*
X5272143Y-19317476D01*
X5272143Y-19212714D02*
X5281667Y-19193667D01*
X5300714Y-19184143D01*
X5329286Y-19184143D01*
X5348333Y-19193667D01*
X5357857Y-19212714D01*
X5357857Y-19317476D01*
X5748333Y-19107952D02*
X5576905Y-19365095D01*
X6005476Y-19117476D02*
X6024524Y-19117476D01*
X6043571Y-19127000D01*
X6053095Y-19136524D01*
X6062619Y-19155571D01*
X6072143Y-19193667D01*
X6072143Y-19241286D01*
X6062619Y-19279381D01*
X6053095Y-19298429D01*
X6043571Y-19307952D01*
X6024524Y-19317476D01*
X6005476Y-19317476D01*
X5986428Y-19307952D01*
X5976905Y-19298429D01*
X5967381Y-19279381D01*
X5957857Y-19241286D01*
X5957857Y-19193667D01*
X5967381Y-19155571D01*
X5976905Y-19136524D01*
X5986428Y-19127000D01*
X6005476Y-19117476D01*
X6157857Y-19298429D02*
X6167381Y-19307952D01*
X6157857Y-19317476D01*
X6148333Y-19307952D01*
X6157857Y-19298429D01*
X6157857Y-19317476D01*
X6291190Y-19117476D02*
X6310238Y-19117476D01*
X6329286Y-19127000D01*
X6338809Y-19136524D01*
X6348333Y-19155571D01*
X6357857Y-19193667D01*
X6357857Y-19241286D01*
X6348333Y-19279381D01*
X6338809Y-19298429D01*
X6329286Y-19307952D01*
X6310238Y-19317476D01*
X6291190Y-19317476D01*
X6272143Y-19307952D01*
X6262619Y-19298429D01*
X6253095Y-19279381D01*
X6243571Y-19241286D01*
X6243571Y-19193667D01*
X6253095Y-19155571D01*
X6262619Y-19136524D01*
X6272143Y-19127000D01*
X6291190Y-19117476D01*
X6529286Y-19184143D02*
X6529286Y-19317476D01*
X6481667Y-19107952D02*
X6434048Y-19250810D01*
X6557857Y-19250810D01*
X6615000Y-19117476D02*
X6748333Y-19117476D01*
X6662619Y-19317476D01*
X6815000Y-19136524D02*
X6824524Y-19127000D01*
X6843571Y-19117476D01*
X6891190Y-19117476D01*
X6910238Y-19127000D01*
X6919762Y-19136524D01*
X6929286Y-19155571D01*
X6929286Y-19174619D01*
X6919762Y-19203190D01*
X6805476Y-19317476D01*
X6929286Y-19317476D01*
X7005476Y-19117476D02*
X7005476Y-19155571D01*
X7081667Y-19117476D02*
X7081667Y-19155571D01*
X7376905Y-19393667D02*
X7367381Y-19384143D01*
X7348333Y-19355571D01*
X7338809Y-19336524D01*
X7329286Y-19307952D01*
X7319762Y-19260333D01*
X7319762Y-19222238D01*
X7329286Y-19174619D01*
X7338809Y-19146048D01*
X7348333Y-19127000D01*
X7367381Y-19098429D01*
X7376905Y-19088905D01*
X7434048Y-19117476D02*
X7567381Y-19117476D01*
X7481667Y-19317476D01*
X7634048Y-19136524D02*
X7643571Y-19127000D01*
X7662619Y-19117476D01*
X7710238Y-19117476D01*
X7729286Y-19127000D01*
X7738809Y-19136524D01*
X7748333Y-19155571D01*
X7748333Y-19174619D01*
X7738809Y-19203190D01*
X7624524Y-19317476D01*
X7748333Y-19317476D01*
X7986428Y-19317476D02*
X7986428Y-19117476D01*
X8072143Y-19317476D02*
X8072143Y-19212714D01*
X8062619Y-19193667D01*
X8043571Y-19184143D01*
X8015000Y-19184143D01*
X7995952Y-19193667D01*
X7986428Y-19203190D01*
X8195952Y-19317476D02*
X8176905Y-19307952D01*
X8167381Y-19298429D01*
X8157857Y-19279381D01*
X8157857Y-19222238D01*
X8167381Y-19203190D01*
X8176905Y-19193667D01*
X8195952Y-19184143D01*
X8224524Y-19184143D01*
X8243571Y-19193667D01*
X8253095Y-19203190D01*
X8262619Y-19222238D01*
X8262619Y-19279381D01*
X8253095Y-19298429D01*
X8243571Y-19307952D01*
X8224524Y-19317476D01*
X8195952Y-19317476D01*
X8376905Y-19317476D02*
X8357857Y-19307952D01*
X8348333Y-19288905D01*
X8348333Y-19117476D01*
X8529286Y-19307952D02*
X8510238Y-19317476D01*
X8472143Y-19317476D01*
X8453095Y-19307952D01*
X8443571Y-19288905D01*
X8443571Y-19212714D01*
X8453095Y-19193667D01*
X8472143Y-19184143D01*
X8510238Y-19184143D01*
X8529286Y-19193667D01*
X8538810Y-19212714D01*
X8538810Y-19231762D01*
X8443571Y-19250810D01*
X8615000Y-19307952D02*
X8634048Y-19317476D01*
X8672143Y-19317476D01*
X8691190Y-19307952D01*
X8700714Y-19288905D01*
X8700714Y-19279381D01*
X8691190Y-19260333D01*
X8672143Y-19250810D01*
X8643571Y-19250810D01*
X8624524Y-19241286D01*
X8615000Y-19222238D01*
X8615000Y-19212714D01*
X8624524Y-19193667D01*
X8643571Y-19184143D01*
X8672143Y-19184143D01*
X8691190Y-19193667D01*
X8767381Y-19393667D02*
X8776905Y-19384143D01*
X8795952Y-19355571D01*
X8805476Y-19336524D01*
X8815000Y-19307952D01*
X8824524Y-19260333D01*
X8824524Y-19222238D01*
X8815000Y-19174619D01*
X8805476Y-19146048D01*
X8795952Y-19127000D01*
X8776905Y-19098429D01*
X8767381Y-19088905D01*
M02*
