%TF.GenerationSoftware,KiCad,Pcbnew,(6.0.8)*%
%TF.CreationDate,2023-01-05T07:28:54-08:00*%
%TF.ProjectId,Test,54657374-2e6b-4696-9361-645f70636258,Rev0.1*%
%TF.SameCoordinates,Original*%
%TF.FileFunction,Copper,L2,Bot*%
%TF.FilePolarity,Positive*%
%FSLAX46Y46*%
G04 Gerber Fmt 4.6, Leading zero omitted, Abs format (unit mm)*
G04 Created by KiCad (PCBNEW (6.0.8)) date 2023-01-05 07:28:54*
%MOMM*%
%LPD*%
G01*
G04 APERTURE LIST*
G04 Aperture macros list*
%AMRoundRect*
0 Rectangle with rounded corners*
0 $1 Rounding radius*
0 $2 $3 $4 $5 $6 $7 $8 $9 X,Y pos of 4 corners*
0 Add a 4 corners polygon primitive as box body*
4,1,4,$2,$3,$4,$5,$6,$7,$8,$9,$2,$3,0*
0 Add four circle primitives for the rounded corners*
1,1,$1+$1,$2,$3*
1,1,$1+$1,$4,$5*
1,1,$1+$1,$6,$7*
1,1,$1+$1,$8,$9*
0 Add four rect primitives between the rounded corners*
20,1,$1+$1,$2,$3,$4,$5,0*
20,1,$1+$1,$4,$5,$6,$7,0*
20,1,$1+$1,$6,$7,$8,$9,0*
20,1,$1+$1,$8,$9,$2,$3,0*%
G04 Aperture macros list end*
%TA.AperFunction,ComponentPad*%
%ADD10RoundRect,0.249600X0.850400X0.550400X-0.850400X0.550400X-0.850400X-0.550400X0.850400X-0.550400X0*%
%TD*%
%TA.AperFunction,ComponentPad*%
%ADD11O,2.200000X1.600000*%
%TD*%
%TA.AperFunction,ComponentPad*%
%ADD12C,2.000000*%
%TD*%
%TA.AperFunction,ComponentPad*%
%ADD13O,1.600000X1.600000*%
%TD*%
%TA.AperFunction,ComponentPad*%
%ADD14C,1.600000*%
%TD*%
%TA.AperFunction,ComponentPad*%
%ADD15R,1.524000X1.524000*%
%TD*%
%TA.AperFunction,ComponentPad*%
%ADD16C,1.524000*%
%TD*%
%TA.AperFunction,ComponentPad*%
%ADD17R,1.100000X1.100000*%
%TD*%
%TA.AperFunction,ComponentPad*%
%ADD18C,1.100000*%
%TD*%
%TA.AperFunction,ViaPad*%
%ADD19C,0.800000*%
%TD*%
%TA.AperFunction,Conductor*%
%ADD20C,0.762000*%
%TD*%
%TA.AperFunction,Conductor*%
%ADD21C,0.254000*%
%TD*%
%TA.AperFunction,Conductor*%
%ADD22C,0.508000*%
%TD*%
G04 APERTURE END LIST*
D10*
%TO.P,J8,1,Anode*%
%TO.N,Net-(J8-Pad1)*%
X53340000Y-144780000D03*
D11*
%TO.P,J8,2,Cathode*%
%TO.N,/TX5*%
X53340000Y-142240000D03*
%TO.P,J8,3,NC*%
%TO.N,unconnected-(J8-Pad3)*%
X53340000Y-139700000D03*
%TO.P,J8,4,NC*%
%TO.N,unconnected-(J8-Pad4)*%
X53340000Y-137160000D03*
D12*
%TO.P,J8,5*%
%TO.N,N/C*%
X45640000Y-137160000D03*
%TO.P,J8,8*%
X45640000Y-144780000D03*
%TD*%
D10*
%TO.P,J4,1,Anode*%
%TO.N,Net-(J4-Pad1)*%
X53035000Y-67830000D03*
D11*
%TO.P,J4,2,Cathode*%
%TO.N,/TX2*%
X53035000Y-65290000D03*
%TO.P,J4,3,NC*%
%TO.N,unconnected-(J4-Pad3)*%
X53035000Y-62750000D03*
%TO.P,J4,4,NC*%
%TO.N,unconnected-(J4-Pad4)*%
X53035000Y-60210000D03*
D12*
%TO.P,J4,5*%
%TO.N,N/C*%
X45335000Y-60210000D03*
%TO.P,J4,8*%
X45335000Y-67830000D03*
%TD*%
D10*
%TO.P,J5,1,Data_Out*%
%TO.N,/RX6*%
X53340000Y-161290000D03*
D11*
%TO.P,J5,2,Gnd*%
%TO.N,Net-(J1-Pad2)*%
X53340000Y-158750000D03*
%TO.P,J5,3,Vcc*%
%TO.N,Net-(U1-Pad10)*%
X53340000Y-156210000D03*
%TO.P,J5,4,Rl*%
%TO.N,/RX6*%
X53340000Y-153670000D03*
D12*
%TO.P,J5,5*%
%TO.N,N/C*%
X45640000Y-153670000D03*
%TO.P,J5,8*%
X45640000Y-161290000D03*
%TD*%
D13*
%TO.P,R1,2*%
%TO.N,Net-(U1-Pad10)*%
X67310000Y-41148000D03*
D14*
%TO.P,R1,1*%
%TO.N,Net-(J2-Pad1)*%
X59690000Y-41148000D03*
%TD*%
%TO.P,R5,1*%
%TO.N,Net-(U1-Pad10)*%
X66802000Y-144780000D03*
D13*
%TO.P,R5,2*%
%TO.N,Net-(J8-Pad1)*%
X59182000Y-144780000D03*
%TD*%
D14*
%TO.P,R2,1*%
%TO.N,Net-(J4-Pad1)*%
X59182000Y-67818000D03*
D13*
%TO.P,R2,2*%
%TO.N,Net-(U1-Pad10)*%
X66802000Y-67818000D03*
%TD*%
D14*
%TO.P,R6,1*%
%TO.N,Net-(J6-Pad1)*%
X58674000Y-171450000D03*
D13*
%TO.P,R6,2*%
%TO.N,Net-(U1-Pad10)*%
X66294000Y-171450000D03*
%TD*%
D10*
%TO.P,J1,1,Data_Out*%
%TO.N,/RX1*%
X53340000Y-30480000D03*
D11*
%TO.P,J1,2,Gnd*%
%TO.N,Net-(J1-Pad2)*%
X53340000Y-27940000D03*
%TO.P,J1,3,Vcc*%
%TO.N,Net-(U1-Pad10)*%
X53340000Y-25400000D03*
%TO.P,J1,4,Rl*%
%TO.N,/RX1*%
X53340000Y-22860000D03*
D12*
%TO.P,J1,5*%
%TO.N,N/C*%
X45640000Y-22860000D03*
%TO.P,J1,8*%
X45640000Y-30480000D03*
%TD*%
D10*
%TO.P,J2,1,Anode*%
%TO.N,Net-(J2-Pad1)*%
X53340000Y-40652000D03*
D11*
%TO.P,J2,2,Cathode*%
%TO.N,/TX1*%
X53340000Y-38112000D03*
%TO.P,J2,3,NC*%
%TO.N,unconnected-(J2-Pad3)*%
X53340000Y-35572000D03*
%TO.P,J2,4,NC*%
%TO.N,unconnected-(J2-Pad4)*%
X53340000Y-33032000D03*
D12*
%TO.P,J2,5*%
%TO.N,N/C*%
X45640000Y-33032000D03*
%TO.P,J2,8*%
X45640000Y-40652000D03*
%TD*%
D10*
%TO.P,J10,1,Anode*%
%TO.N,Net-(J10-Pad1)*%
X53340000Y-119380000D03*
D11*
%TO.P,J10,2,Cathode*%
%TO.N,/TX4*%
X53340000Y-116840000D03*
%TO.P,J10,3,NC*%
%TO.N,unconnected-(J10-Pad3)*%
X53340000Y-114300000D03*
%TO.P,J10,4,NC*%
%TO.N,unconnected-(J10-Pad4)*%
X53340000Y-111760000D03*
D12*
%TO.P,J10,5*%
%TO.N,N/C*%
X45640000Y-111760000D03*
%TO.P,J10,8*%
X45640000Y-119380000D03*
%TD*%
D15*
%TO.P,U1,1,Ground*%
%TO.N,unconnected-(U1-Pad1)*%
X96360000Y-105960000D03*
D16*
%TO.P,U1,2,Ground*%
%TO.N,unconnected-(U1-Pad2)*%
X93820000Y-105960000D03*
%TO.P,U1,8,Ground*%
%TO.N,unconnected-(U1-Pad8)*%
X78580000Y-105960000D03*
%TO.P,U1,9,Ground*%
%TO.N,Net-(J1-Pad2)*%
X76040000Y-105960000D03*
%TO.P,U1,10,3.3V*%
%TO.N,Net-(U1-Pad10)*%
X76040000Y-108500000D03*
%TO.P,U1,11,3.3V*%
%TO.N,unconnected-(U1-Pad11)*%
X78580000Y-108500000D03*
%TO.P,U1,17,3.3V*%
%TO.N,unconnected-(U1-Pad17)*%
X93820000Y-108500000D03*
%TO.P,U1,18,3.3V*%
%TO.N,unconnected-(U1-Pad18)*%
X96360000Y-108500000D03*
%TD*%
D17*
%TO.P,J13,1,1*%
%TO.N,Net-(J1-Pad2)*%
X81280000Y-23876000D03*
D18*
%TO.P,J13,2,2*%
%TO.N,/RX1*%
X81280000Y-26416000D03*
%TO.P,J13,3,3*%
%TO.N,/TX1*%
X81280000Y-28956000D03*
%TO.P,J13,4,4*%
%TO.N,unconnected-(J13-Pad4)*%
X81280000Y-31496000D03*
%TO.P,J13,5,5*%
%TO.N,unconnected-(J13-Pad5)*%
X81280000Y-34036000D03*
%TO.P,J13,6,6*%
%TO.N,unconnected-(J13-Pad6)*%
X81280000Y-36576000D03*
%TO.P,J13,7,7*%
%TO.N,unconnected-(J13-Pad7)*%
X81280000Y-39116000D03*
%TO.P,J13,8,8*%
%TO.N,unconnected-(J13-Pad8)*%
X81280000Y-41656000D03*
%TO.P,J13,9,9*%
%TO.N,/RX2*%
X81280000Y-44196000D03*
%TO.P,J13,10,10*%
%TO.N,/TX2*%
X81280000Y-46736000D03*
%TO.P,J13,11,11*%
%TO.N,unconnected-(J13-Pad11)*%
X81280000Y-49276000D03*
%TO.P,J13,12,12*%
%TO.N,unconnected-(J13-Pad12)*%
X81280000Y-51816000D03*
%TO.P,J13,13,13*%
%TO.N,unconnected-(J13-Pad13)*%
X81280000Y-54356000D03*
%TO.P,J13,14,14*%
%TO.N,unconnected-(J13-Pad14)*%
X81280000Y-56896000D03*
%TO.P,J13,15,15*%
%TO.N,unconnected-(J13-Pad15)*%
X81280000Y-59436000D03*
%TO.P,J13,16,16*%
%TO.N,/TX6*%
X81280000Y-61976000D03*
%TO.P,J13,17,17*%
%TO.N,/RX6*%
X81280000Y-64516000D03*
%TO.P,J13,18,18*%
%TO.N,unconnected-(J13-Pad18)*%
X81280000Y-67056000D03*
%TO.P,J13,19,19*%
%TO.N,unconnected-(J13-Pad19)*%
X81280000Y-69596000D03*
%TO.P,J13,20,20*%
%TO.N,unconnected-(J13-Pad20)*%
X81280000Y-72136000D03*
%TO.P,J13,21,21*%
%TO.N,unconnected-(J13-Pad21)*%
X81280000Y-74676000D03*
%TO.P,J13,22,22*%
%TO.N,unconnected-(J13-Pad22)*%
X81280000Y-77216000D03*
%TO.P,J13,23,23*%
%TO.N,unconnected-(J13-Pad23)*%
X81280000Y-79756000D03*
%TO.P,J13,24,24*%
%TO.N,unconnected-(J13-Pad24)*%
X81280000Y-82296000D03*
%TO.P,J13,25,25*%
%TO.N,unconnected-(J13-Pad25)*%
X96520000Y-82296000D03*
%TO.P,J13,26,26*%
%TO.N,unconnected-(J13-Pad26)*%
X96520000Y-79756000D03*
%TO.P,J13,27,27*%
%TO.N,unconnected-(J13-Pad27)*%
X96520000Y-77216000D03*
%TO.P,J13,28,28*%
%TO.N,unconnected-(J13-Pad28)*%
X96520000Y-74676000D03*
%TO.P,J13,29,29*%
%TO.N,unconnected-(J13-Pad29)*%
X96520000Y-72136000D03*
%TO.P,J13,30,30*%
%TO.N,unconnected-(J13-Pad30)*%
X96520000Y-69596000D03*
%TO.P,J13,31,31*%
%TO.N,unconnected-(J13-Pad31)*%
X96520000Y-67056000D03*
%TO.P,J13,32,32*%
%TO.N,unconnected-(J13-Pad32)*%
X96520000Y-64516000D03*
%TO.P,J13,33,33*%
%TO.N,unconnected-(J13-Pad33)*%
X96520000Y-61976000D03*
%TO.P,J13,34,34*%
%TO.N,unconnected-(J13-Pad34)*%
X96520000Y-59436000D03*
%TO.P,J13,35,35*%
%TO.N,unconnected-(J13-Pad35)*%
X96520000Y-56896000D03*
%TO.P,J13,36,36*%
%TO.N,/TX3*%
X96520000Y-54356000D03*
%TO.P,J13,37,37*%
%TO.N,/RX3*%
X96520000Y-51816000D03*
%TO.P,J13,38,38*%
%TO.N,/RX4*%
X96520000Y-49276000D03*
%TO.P,J13,39,39*%
%TO.N,/TX4*%
X96520000Y-46736000D03*
%TO.P,J13,40,40*%
%TO.N,unconnected-(J13-Pad40)*%
X96520000Y-44196000D03*
%TO.P,J13,41,41*%
%TO.N,unconnected-(J13-Pad41)*%
X96520000Y-41656000D03*
%TO.P,J13,42,42*%
%TO.N,/TX5*%
X96520000Y-39116000D03*
%TO.P,J13,43,43*%
%TO.N,/RX5*%
X96520000Y-36576000D03*
%TO.P,J13,44,44*%
%TO.N,unconnected-(J13-Pad44)*%
X96520000Y-34036000D03*
%TO.P,J13,45,45*%
%TO.N,unconnected-(J13-Pad45)*%
X96520000Y-31496000D03*
%TO.P,J13,46,46*%
%TO.N,unconnected-(J13-Pad46)*%
X96520000Y-28956000D03*
%TO.P,J13,47,47*%
%TO.N,unconnected-(J13-Pad47)*%
X96520000Y-26416000D03*
%TO.P,J13,48,48*%
%TO.N,unconnected-(J13-Pad48)*%
X96520000Y-23876000D03*
%TD*%
D10*
%TO.P,J12,1,Anode*%
%TO.N,Net-(J12-Pad1)*%
X53035000Y-93230000D03*
D11*
%TO.P,J12,2,Cathode*%
%TO.N,/TX3*%
X53035000Y-90690000D03*
%TO.P,J12,3,NC*%
%TO.N,unconnected-(J12-Pad3)*%
X53035000Y-88150000D03*
%TO.P,J12,4,NC*%
%TO.N,unconnected-(J12-Pad4)*%
X53035000Y-85610000D03*
D12*
%TO.P,J12,5*%
%TO.N,N/C*%
X45335000Y-85610000D03*
%TO.P,J12,8*%
X45335000Y-93230000D03*
%TD*%
D10*
%TO.P,J7,1,Data_Out*%
%TO.N,/RX5*%
X53340000Y-134620000D03*
D11*
%TO.P,J7,2,Gnd*%
%TO.N,Net-(J1-Pad2)*%
X53340000Y-132080000D03*
%TO.P,J7,3,Vcc*%
%TO.N,Net-(U1-Pad10)*%
X53340000Y-129540000D03*
%TO.P,J7,4,Rl*%
%TO.N,/RX5*%
X53340000Y-127000000D03*
D12*
%TO.P,J7,5*%
%TO.N,N/C*%
X45640000Y-127000000D03*
%TO.P,J7,8*%
X45640000Y-134620000D03*
%TD*%
D10*
%TO.P,J11,1,Data_Out*%
%TO.N,/RX3*%
X53035000Y-83070000D03*
D11*
%TO.P,J11,2,Gnd*%
%TO.N,Net-(J1-Pad2)*%
X53035000Y-80530000D03*
%TO.P,J11,3,Vcc*%
%TO.N,Net-(U1-Pad10)*%
X53035000Y-77990000D03*
%TO.P,J11,4,Rl*%
%TO.N,/RX3*%
X53035000Y-75450000D03*
D12*
%TO.P,J11,5*%
%TO.N,N/C*%
X45335000Y-75450000D03*
%TO.P,J11,8*%
X45335000Y-83070000D03*
%TD*%
D10*
%TO.P,J6,1,Anode*%
%TO.N,Net-(J6-Pad1)*%
X53340000Y-171450000D03*
D11*
%TO.P,J6,2,Cathode*%
%TO.N,/TX6*%
X53340000Y-168910000D03*
%TO.P,J6,3,NC*%
%TO.N,unconnected-(J6-Pad3)*%
X53340000Y-166370000D03*
%TO.P,J6,4,NC*%
%TO.N,unconnected-(J6-Pad4)*%
X53340000Y-163830000D03*
D12*
%TO.P,J6,5*%
%TO.N,N/C*%
X45640000Y-163830000D03*
%TO.P,J6,8*%
X45640000Y-171450000D03*
%TD*%
D10*
%TO.P,J9,1,Data_Out*%
%TO.N,/RX4*%
X53340000Y-109220000D03*
D11*
%TO.P,J9,2,Gnd*%
%TO.N,Net-(J1-Pad2)*%
X53340000Y-106680000D03*
%TO.P,J9,3,Vcc*%
%TO.N,Net-(U1-Pad10)*%
X53340000Y-104140000D03*
%TO.P,J9,4,Rl*%
%TO.N,/RX4*%
X53340000Y-101600000D03*
D12*
%TO.P,J9,5*%
%TO.N,N/C*%
X45640000Y-101600000D03*
%TO.P,J9,8*%
X45640000Y-109220000D03*
%TD*%
D14*
%TO.P,R3,1*%
%TO.N,Net-(U1-Pad10)*%
X66802000Y-93218000D03*
D13*
%TO.P,R3,2*%
%TO.N,Net-(J12-Pad1)*%
X59182000Y-93218000D03*
%TD*%
D14*
%TO.P,R4,1*%
%TO.N,Net-(U1-Pad10)*%
X66802000Y-119380000D03*
D13*
%TO.P,R4,2*%
%TO.N,Net-(J10-Pad1)*%
X59182000Y-119380000D03*
%TD*%
D10*
%TO.P,J3,1,Data_Out*%
%TO.N,/RX2*%
X53035000Y-57670000D03*
D11*
%TO.P,J3,2,Gnd*%
%TO.N,Net-(J1-Pad2)*%
X53035000Y-55130000D03*
%TO.P,J3,3,Vcc*%
%TO.N,Net-(U1-Pad10)*%
X53035000Y-52590000D03*
%TO.P,J3,4,Rl*%
%TO.N,/RX2*%
X53035000Y-50050000D03*
D12*
%TO.P,J3,5*%
%TO.N,N/C*%
X45335000Y-50050000D03*
%TO.P,J3,8*%
X45335000Y-57670000D03*
%TD*%
D19*
%TO.N,/RX6*%
X78740000Y-88900000D03*
X78740000Y-101600000D03*
X78740000Y-119380000D03*
%TO.N,/TX5*%
X83820000Y-111760000D03*
%TO.N,/RX5*%
X76200000Y-119380000D03*
X76200000Y-114300000D03*
%TO.N,/TX4*%
X88900000Y-116840000D03*
X83820000Y-116840000D03*
%TO.N,/TX5*%
X83820000Y-88900000D03*
%TO.N,/RX5*%
X81280000Y-88900000D03*
%TO.N,/TX4*%
X88900000Y-86360000D03*
%TO.N,/RX4*%
X91440000Y-96520000D03*
X91440000Y-86360000D03*
%TO.N,/TX5*%
X76200000Y-142240000D03*
%TO.N,/RX2*%
X63500000Y-48260000D03*
%TO.N,/TX6*%
X66040000Y-167640000D03*
%TO.N,/RX4*%
X76200000Y-99060000D03*
X68580000Y-101600000D03*
%TO.N,/RX3*%
X66040000Y-73660000D03*
%TO.N,/TX3*%
X76200000Y-91440000D03*
%TD*%
D20*
%TO.N,/TX2*%
X62726000Y-65290000D02*
X81280000Y-46736000D01*
X53035000Y-65290000D02*
X62726000Y-65290000D01*
%TO.N,/TX1*%
X72124000Y-38112000D02*
X81280000Y-28956000D01*
X53340000Y-38112000D02*
X72124000Y-38112000D01*
D21*
%TO.N,/RX3*%
X80010000Y-53340000D02*
X82550000Y-53340000D01*
D22*
X84074000Y-51816000D02*
X82550000Y-53340000D01*
X96520000Y-51816000D02*
X84074000Y-51816000D01*
X77562800Y-53247200D02*
X79917200Y-53247200D01*
X76200000Y-54610000D02*
X77562800Y-53247200D01*
X72390000Y-73660000D02*
X76200000Y-69850000D01*
X76200000Y-69850000D02*
X76200000Y-54610000D01*
X79917200Y-53247200D02*
X80010000Y-53340000D01*
X66040000Y-73660000D02*
X72390000Y-73660000D01*
%TO.N,/TX6*%
X86360000Y-64770000D02*
X86360000Y-157480000D01*
X86360000Y-157480000D02*
X76200000Y-167640000D01*
X76200000Y-167640000D02*
X66040000Y-167640000D01*
X83566000Y-61976000D02*
X86360000Y-64770000D01*
X81280000Y-61976000D02*
X83566000Y-61976000D01*
%TO.N,/RX5*%
X81280000Y-109220000D02*
X76200000Y-114300000D01*
X81280000Y-88900000D02*
X81280000Y-109220000D01*
%TO.N,/RX6*%
X78740000Y-88900000D02*
X78740000Y-101600000D01*
%TO.N,/TX5*%
X83820000Y-88900000D02*
X83820000Y-111760000D01*
%TO.N,/TX4*%
X88900000Y-86360000D02*
X88900000Y-116840000D01*
%TO.N,/RX4*%
X91440000Y-86360000D02*
X91440000Y-96520000D01*
%TO.N,/RX6*%
X78740000Y-151130000D02*
X78740000Y-119380000D01*
X76200000Y-153670000D02*
X78740000Y-151130000D01*
X53340000Y-153670000D02*
X76200000Y-153670000D01*
%TO.N,/TX5*%
X53340000Y-142240000D02*
X76200000Y-142240000D01*
%TO.N,Net-(J1-Pad2)*%
X52070000Y-158750000D02*
X53340000Y-158750000D01*
X49530000Y-156210000D02*
X52070000Y-158750000D01*
X49530000Y-133350000D02*
X49530000Y-156210000D01*
X50800000Y-132080000D02*
X49530000Y-133350000D01*
X53340000Y-132080000D02*
X50800000Y-132080000D01*
%TO.N,/RX5*%
X76200000Y-124460000D02*
X76200000Y-119380000D01*
X73660000Y-127000000D02*
X76200000Y-124460000D01*
X53340000Y-127000000D02*
X73660000Y-127000000D01*
%TO.N,Net-(J1-Pad2)*%
X49530000Y-109220000D02*
X49530000Y-129540000D01*
X52070000Y-132080000D02*
X53340000Y-132080000D01*
X52070000Y-106680000D02*
X49530000Y-109220000D01*
X49530000Y-129540000D02*
X52070000Y-132080000D01*
%TO.N,/TX4*%
X53340000Y-116840000D02*
X83820000Y-116840000D01*
%TO.N,Net-(J1-Pad2)*%
X75320000Y-106680000D02*
X76040000Y-105960000D01*
X53340000Y-106680000D02*
X75320000Y-106680000D01*
%TO.N,/RX4*%
X73660000Y-101600000D02*
X76200000Y-99060000D01*
X68580000Y-101600000D02*
X73660000Y-101600000D01*
%TO.N,/TX3*%
X76200000Y-91440000D02*
X75450000Y-90690000D01*
X75450000Y-90690000D02*
X53035000Y-90690000D01*
%TO.N,Net-(J1-Pad2)*%
X52070000Y-106680000D02*
X53340000Y-106680000D01*
X49530000Y-82550000D02*
X49530000Y-104140000D01*
X51550000Y-80530000D02*
X49530000Y-82550000D01*
X49530000Y-104140000D02*
X52070000Y-106680000D01*
X53035000Y-80530000D02*
X51550000Y-80530000D01*
X51320000Y-80530000D02*
X53035000Y-80530000D01*
X49530000Y-78740000D02*
X51320000Y-80530000D01*
X49530000Y-55880000D02*
X49530000Y-78740000D01*
X50280000Y-55130000D02*
X49530000Y-55880000D01*
X53035000Y-55130000D02*
X50280000Y-55130000D01*
%TO.N,/RX2*%
X77216000Y-48260000D02*
X81280000Y-44196000D01*
X63500000Y-48260000D02*
X77216000Y-48260000D01*
%TO.N,Net-(J1-Pad2)*%
X51320000Y-55130000D02*
X53035000Y-55130000D01*
X49661000Y-30611000D02*
X49661000Y-53471000D01*
X49661000Y-53471000D02*
X51320000Y-55130000D01*
X49661000Y-30611000D02*
X49530000Y-30742000D01*
X52332000Y-27940000D02*
X49661000Y-30611000D01*
X53340000Y-27940000D02*
X52332000Y-27940000D01*
X74930000Y-27940000D02*
X53340000Y-27940000D01*
X78994000Y-23876000D02*
X74930000Y-27940000D01*
X81280000Y-23876000D02*
X78994000Y-23876000D01*
D21*
X52590000Y-80530000D02*
X53035000Y-80530000D01*
X53340000Y-106680000D02*
X53813800Y-107153800D01*
%TD*%
M02*
