%TF.GenerationSoftware,KiCad,Pcbnew,8.0.6*%
%TF.CreationDate,2024-11-30T14:44:08-08:00*%
%TF.ProjectId,DFboard,4446626f-6172-4642-9e6b-696361645f70,Rev0.1*%
%TF.SameCoordinates,Original*%
%TF.FileFunction,Copper,L1,Top*%
%TF.FilePolarity,Positive*%
%FSLAX46Y46*%
G04 Gerber Fmt 4.6, Leading zero omitted, Abs format (unit mm)*
G04 Created by KiCad (PCBNEW 8.0.6) date 2024-11-30 14:44:08*
%MOMM*%
%LPD*%
G01*
G04 APERTURE LIST*
%TA.AperFunction,ComponentPad*%
%ADD10R,1.700000X1.700000*%
%TD*%
%TA.AperFunction,ComponentPad*%
%ADD11O,1.700000X1.700000*%
%TD*%
%TA.AperFunction,ComponentPad*%
%ADD12R,1.524000X1.524000*%
%TD*%
%TA.AperFunction,ComponentPad*%
%ADD13C,1.524000*%
%TD*%
%TA.AperFunction,ComponentPad*%
%ADD14C,4.000000*%
%TD*%
%TA.AperFunction,ComponentPad*%
%ADD15R,1.600000X1.600000*%
%TD*%
%TA.AperFunction,ComponentPad*%
%ADD16C,1.600000*%
%TD*%
%TA.AperFunction,ComponentPad*%
%ADD17C,1.514000*%
%TD*%
%TA.AperFunction,ViaPad*%
%ADD18C,0.800000*%
%TD*%
%TA.AperFunction,Conductor*%
%ADD19C,0.254000*%
%TD*%
G04 APERTURE END LIST*
D10*
%TO.P,JP5,1,A*%
%TO.N,Net-(JP5-A)*%
X111379000Y-42164000D03*
D11*
%TO.P,JP5,2,C*%
%TO.N,Net-(JP5-C)*%
X111379000Y-44704000D03*
%TO.P,JP5,3,B*%
%TO.N,unconnected-(JP5-B-Pad3)*%
X111379000Y-47244000D03*
%TD*%
D10*
%TO.P,TP9,1,1*%
%TO.N,Net-(U4-R2_Out)*%
X115926000Y-94996000D03*
%TD*%
D12*
%TO.P,U6,1,Ground*%
%TO.N,unconnected-(U6-Ground-Pad1)*%
X164338000Y-91567000D03*
D13*
%TO.P,U6,2,Ground*%
%TO.N,Net-(J1-P21)*%
X161798000Y-91567000D03*
%TO.P,U6,8,Ground*%
%TO.N,unconnected-(U6-Ground-Pad8)*%
X146558000Y-91567000D03*
%TO.P,U6,9,Ground*%
%TO.N,unconnected-(U6-Ground-Pad9)*%
X144018000Y-91567000D03*
%TO.P,U6,10,3.3V*%
%TO.N,unconnected-(U6-3.3V-Pad10)*%
X144018000Y-94107000D03*
%TO.P,U6,11,3.3V*%
%TO.N,unconnected-(U6-3.3V-Pad11)*%
X146558000Y-94107000D03*
%TO.P,U6,17,3.3V*%
%TO.N,unconnected-(U6-3.3V-Pad17)*%
X161798000Y-94107000D03*
%TO.P,U6,18,3.3V*%
%TO.N,Net-(JP7-B)*%
X164338000Y-94107000D03*
%TD*%
D10*
%TO.P,JP1,1,A*%
%TO.N,Net-(J2-P14)*%
X39624000Y-24257000D03*
D11*
%TO.P,JP1,2,C*%
%TO.N,Net-(J1-P14)*%
X39624000Y-26797000D03*
%TO.P,JP1,3,B*%
%TO.N,Net-(JP1-B)*%
X39624000Y-29337000D03*
%TD*%
D10*
%TO.P,TP10,1,1*%
%TO.N,Net-(U5-R2_Out)*%
X138651000Y-94742000D03*
%TD*%
D12*
%TO.P,U4,1,T1_Out*%
%TO.N,Net-(JP3-B)*%
X99060000Y-75931000D03*
D13*
%TO.P,U4,2,T2_Out*%
%TO.N,unconnected-(U4-T2_Out-Pad2)*%
X101600000Y-75931000D03*
%TO.P,U4,3,R1_In*%
%TO.N,Net-(U4-R1_In)*%
X104140000Y-75931000D03*
%TO.P,U4,4,R2_In*%
%TO.N,Net-(J2-P20)*%
X106680000Y-75931000D03*
%TO.P,U4,5,3-5.5V*%
%TO.N,Net-(U2-3-5.5V)*%
X109220000Y-75931000D03*
%TO.P,U4,6,GND*%
%TO.N,Net-(J1-P21)*%
X111760000Y-75931000D03*
%TO.P,U4,7,T1_In*%
%TO.N,/TX3*%
X114300000Y-75931000D03*
%TO.P,U4,8,T2_In*%
%TO.N,unconnected-(U4-T2_In-Pad8)*%
X116840000Y-75931000D03*
%TO.P,U4,9,R1_Out*%
%TO.N,/RX3*%
X119380000Y-75931000D03*
%TO.P,U4,10,R2_Out*%
%TO.N,Net-(U4-R2_Out)*%
X121920000Y-75931000D03*
%TD*%
D10*
%TO.P,JP4,1,A*%
%TO.N,Net-(J2-P22)*%
X127762000Y-46243000D03*
D11*
%TO.P,JP4,2,C*%
%TO.N,Net-(J1-P22)*%
X127762000Y-48783000D03*
%TO.P,JP4,3,B*%
%TO.N,Net-(JP4-B)*%
X127762000Y-51323000D03*
%TD*%
D10*
%TO.P,TP2,1,1*%
%TO.N,/TX1*%
X50673000Y-96393000D03*
%TD*%
D14*
%TO.P,J1,0,PAD*%
%TO.N,GND*%
X28783000Y-18470000D03*
X28783000Y-65570000D03*
D15*
%TO.P,J1,1,1*%
%TO.N,Net-(U2-R1_In)*%
X29083000Y-25400000D03*
D16*
%TO.P,J1,2,2*%
%TO.N,unconnected-(J1-Pad2)*%
X29083000Y-28170000D03*
%TO.P,J1,3,3*%
%TO.N,Net-(U3-R1_In)*%
X29083000Y-30940000D03*
%TO.P,J1,4,4*%
%TO.N,unconnected-(J1-Pad4)*%
X29083000Y-33710000D03*
%TO.P,J1,5,5*%
%TO.N,Net-(JP9-B)*%
X29083000Y-36480000D03*
%TO.P,J1,6,6*%
%TO.N,unconnected-(J1-Pad6)*%
X29083000Y-39250000D03*
%TO.P,J1,7,7*%
%TO.N,Net-(U4-R1_In)*%
X29083000Y-42020000D03*
%TO.P,J1,8,8*%
%TO.N,Net-(JP5-C)*%
X29083000Y-44790000D03*
%TO.P,J1,9,9*%
%TO.N,Net-(U5-R1_In)*%
X29083000Y-47560000D03*
%TO.P,J1,10,10*%
%TO.N,unconnected-(J1-Pad10)*%
X29083000Y-50330000D03*
%TO.P,J1,11,11*%
%TO.N,Net-(J1-P23)*%
X29083000Y-53100000D03*
%TO.P,J1,12,12*%
X29083000Y-55870000D03*
%TO.P,J1,13,13*%
X29083000Y-58640000D03*
%TO.P,J1,14,P14*%
%TO.N,Net-(J1-P14)*%
X26243000Y-26785000D03*
%TO.P,J1,15,P15*%
%TO.N,unconnected-(J1-P15-Pad15)*%
X26243000Y-29555000D03*
%TO.P,J1,16,P16*%
%TO.N,Net-(J1-P16)*%
X26243000Y-32325000D03*
%TO.P,J1,17,P17*%
%TO.N,unconnected-(J1-P17-Pad17)*%
X26243000Y-35095000D03*
%TO.P,J1,18,P18*%
%TO.N,Net-(J1-P18)*%
X26243000Y-37865000D03*
%TO.P,J1,19,P19*%
%TO.N,unconnected-(J1-P19-Pad19)*%
X26243000Y-40635000D03*
%TO.P,J1,20,P20*%
%TO.N,Net-(J1-P20)*%
X26243000Y-43405000D03*
%TO.P,J1,21,P21*%
%TO.N,Net-(J1-P21)*%
X26243000Y-46175000D03*
%TO.P,J1,22,P22*%
%TO.N,Net-(J1-P22)*%
X26243000Y-48945000D03*
%TO.P,J1,23,P23*%
%TO.N,Net-(J1-P23)*%
X26243000Y-51715000D03*
%TO.P,J1,24,P24*%
X26243000Y-54485000D03*
%TO.P,J1,25,P25*%
X26243000Y-57255000D03*
%TD*%
D14*
%TO.P,J2,0,PAD*%
%TO.N,GND*%
X160020000Y-65709000D03*
X160020000Y-18609000D03*
D15*
%TO.P,J2,1,1*%
%TO.N,Net-(U2-R1_In)*%
X159720000Y-25539000D03*
D16*
%TO.P,J2,2,2*%
%TO.N,unconnected-(J2-Pad2)*%
X159720000Y-28309000D03*
%TO.P,J2,3,3*%
%TO.N,Net-(U3-R1_In)*%
X159720000Y-31079000D03*
%TO.P,J2,4,4*%
%TO.N,unconnected-(J2-Pad4)*%
X159720000Y-33849000D03*
%TO.P,J2,5,5*%
%TO.N,Net-(JP9-A)*%
X159720000Y-36619000D03*
%TO.P,J2,6,6*%
%TO.N,unconnected-(J2-Pad6)*%
X159720000Y-39389000D03*
%TO.P,J2,7,7*%
%TO.N,Net-(U4-R1_In)*%
X159720000Y-42159000D03*
%TO.P,J2,8,8*%
%TO.N,Net-(JP5-A)*%
X159720000Y-44929000D03*
%TO.P,J2,9,9*%
%TO.N,Net-(U5-R1_In)*%
X159720000Y-47699000D03*
%TO.P,J2,10,10*%
%TO.N,unconnected-(J2-Pad10)*%
X159720000Y-50469000D03*
%TO.P,J2,11,11*%
%TO.N,Net-(J2-P23)*%
X159720000Y-53239000D03*
%TO.P,J2,12,12*%
X159720000Y-56009000D03*
%TO.P,J2,13,13*%
X159720000Y-58779000D03*
%TO.P,J2,14,P14*%
%TO.N,Net-(J2-P14)*%
X162560000Y-26924000D03*
%TO.P,J2,15,P15*%
%TO.N,unconnected-(J2-P15-Pad15)*%
X162560000Y-29694000D03*
%TO.P,J2,16,P16*%
%TO.N,Net-(J2-P16)*%
X162560000Y-32464000D03*
%TO.P,J2,17,P17*%
%TO.N,unconnected-(J2-P17-Pad17)*%
X162560000Y-35234000D03*
%TO.P,J2,18,P18*%
%TO.N,Net-(J2-P18)*%
X162560000Y-38004000D03*
%TO.P,J2,19,P19*%
%TO.N,unconnected-(J2-P19-Pad19)*%
X162560000Y-40774000D03*
%TO.P,J2,20,P20*%
%TO.N,Net-(J2-P20)*%
X162560000Y-43544000D03*
%TO.P,J2,21,P21*%
%TO.N,Net-(J2-P21)*%
X162560000Y-46314000D03*
%TO.P,J2,22,P22*%
%TO.N,Net-(J2-P22)*%
X162560000Y-49084000D03*
%TO.P,J2,23,P23*%
%TO.N,Net-(J2-P23)*%
X162560000Y-51854000D03*
%TO.P,J2,24,P24*%
X162560000Y-54624000D03*
%TO.P,J2,25,P25*%
X162560000Y-57394000D03*
%TD*%
D10*
%TO.P,TP1,1,1*%
%TO.N,/RX1*%
X55673000Y-96393000D03*
%TD*%
%TO.P,TP3,1,1*%
%TO.N,/RX2*%
X78279000Y-95885000D03*
%TD*%
D12*
%TO.P,U1,1,Ground*%
%TO.N,GND*%
X45720000Y-91567000D03*
D13*
%TO.P,U1,2,Ground*%
%TO.N,unconnected-(U1-Ground-Pad2)*%
X43180000Y-91567000D03*
%TO.P,U1,8,Ground*%
%TO.N,Net-(J13-Pad1)*%
X27940000Y-91567000D03*
%TO.P,U1,9,Ground*%
%TO.N,Net-(J1-P21)*%
X25400000Y-91567000D03*
%TO.P,U1,10,3.3V*%
%TO.N,Net-(U2-3-5.5V)*%
X25400000Y-94107000D03*
%TO.P,U1,11,3.3V*%
%TO.N,Net-(J13-Pad48)*%
X27940000Y-94107000D03*
%TO.P,U1,17,3.3V*%
%TO.N,unconnected-(U1-3.3V-Pad17)*%
X43180000Y-94107000D03*
%TO.P,U1,18,3.3V*%
%TO.N,unconnected-(U1-3.3V-Pad18)*%
X45720000Y-94107000D03*
%TD*%
D10*
%TO.P,TP11,1,1*%
%TO.N,/RX6*%
X82779000Y-95885000D03*
%TD*%
D12*
%TO.P,J13,1,1*%
%TO.N,Net-(J13-Pad1)*%
X123190000Y-108458000D03*
D13*
%TO.P,J13,2,2*%
%TO.N,/RX1*%
X120650000Y-108458000D03*
%TO.P,J13,3,3*%
%TO.N,/TX1*%
X118110000Y-108458000D03*
%TO.P,J13,4,4*%
%TO.N,unconnected-(J13-Pad4)*%
X115570000Y-108458000D03*
%TO.P,J13,5,5*%
%TO.N,unconnected-(J13-Pad5)*%
X113030000Y-108458000D03*
%TO.P,J13,6,6*%
%TO.N,unconnected-(J13-Pad6)*%
X110490000Y-108458000D03*
%TO.P,J13,7,7*%
%TO.N,unconnected-(J13-Pad7)*%
X107950000Y-108458000D03*
%TO.P,J13,8,8*%
%TO.N,unconnected-(J13-Pad8)*%
X105410000Y-108458000D03*
%TO.P,J13,9,9*%
%TO.N,/RX2*%
X102870000Y-108458000D03*
%TO.P,J13,10,10*%
%TO.N,/TX2*%
X100330000Y-108458000D03*
%TO.P,J13,11,11*%
%TO.N,unconnected-(J13-Pad11)*%
X97790000Y-108458000D03*
%TO.P,J13,12,12*%
%TO.N,unconnected-(J13-Pad12)*%
X95250000Y-108458000D03*
%TO.P,J13,13,13*%
%TO.N,unconnected-(J13-Pad13)*%
X92710000Y-108458000D03*
%TO.P,J13,14,14*%
%TO.N,unconnected-(J13-Pad14)*%
X90170000Y-108458000D03*
%TO.P,J13,15,15*%
%TO.N,unconnected-(J13-Pad15)*%
X87630000Y-108458000D03*
%TO.P,J13,16,16*%
%TO.N,Net-(J13-Pad16)*%
X85090000Y-108458000D03*
%TO.P,J13,17,17*%
%TO.N,/RX6*%
X82550000Y-108458000D03*
%TO.P,J13,18,18*%
%TO.N,unconnected-(J13-Pad18)*%
X80010000Y-108458000D03*
%TO.P,J13,19,19*%
%TO.N,unconnected-(J13-Pad19)*%
X77470000Y-108458000D03*
%TO.P,J13,20,20*%
%TO.N,Net-(U4-R2_Out)*%
X74930000Y-108458000D03*
%TO.P,J13,21,21*%
%TO.N,unconnected-(J13-Pad21)*%
X72390000Y-108458000D03*
%TO.P,J13,22,22*%
%TO.N,unconnected-(J13-Pad22)*%
X69850000Y-108458000D03*
%TO.P,J13,23,23*%
%TO.N,unconnected-(J13-Pad23)*%
X67310000Y-108458000D03*
%TO.P,J13,24,24*%
%TO.N,unconnected-(J13-Pad24)*%
X64770000Y-108458000D03*
%TO.P,J13,25,25*%
%TO.N,unconnected-(J13-Pad25)*%
X64770000Y-123698000D03*
%TO.P,J13,26,26*%
%TO.N,Net-(U5-R2_Out)*%
X67310000Y-123698000D03*
%TO.P,J13,27,27*%
%TO.N,unconnected-(J13-Pad27)*%
X69850000Y-123698000D03*
%TO.P,J13,28,28*%
%TO.N,unconnected-(J13-Pad28)*%
X72390000Y-123698000D03*
D17*
%TO.P,J13,29,29*%
%TO.N,unconnected-(J13-Pad29)*%
X74930000Y-123698000D03*
%TO.P,J13,30,30*%
%TO.N,unconnected-(J13-Pad30)*%
X77470000Y-123698000D03*
%TO.P,J13,31,31*%
%TO.N,unconnected-(J13-Pad31)*%
X80010000Y-123698000D03*
%TO.P,J13,32,32*%
%TO.N,unconnected-(J13-Pad32)*%
X82550000Y-123698000D03*
%TO.P,J13,33,33*%
%TO.N,unconnected-(J13-Pad33)*%
X85090000Y-123698000D03*
%TO.P,J13,34,34*%
%TO.N,unconnected-(J13-Pad34)*%
X87630000Y-123698000D03*
D13*
%TO.P,J13,35,35*%
%TO.N,unconnected-(J13-Pad35)*%
X90170000Y-123698000D03*
%TO.P,J13,36,36*%
%TO.N,/TX3*%
X92710000Y-123698000D03*
%TO.P,J13,37,37*%
%TO.N,/RX3*%
X95250000Y-123698000D03*
%TO.P,J13,38,38*%
%TO.N,/RX4*%
X97790000Y-123698000D03*
%TO.P,J13,39,39*%
%TO.N,/TX4*%
X100330000Y-123698000D03*
%TO.P,J13,40,40*%
%TO.N,unconnected-(J13-Pad40)*%
X102870000Y-123698000D03*
%TO.P,J13,41,41*%
%TO.N,unconnected-(J13-Pad41)*%
X105410000Y-123698000D03*
%TO.P,J13,42,42*%
%TO.N,/TX5*%
X107950000Y-123698000D03*
%TO.P,J13,43,43*%
%TO.N,/RX5*%
X110490000Y-123698000D03*
%TO.P,J13,44,44*%
%TO.N,unconnected-(J13-Pad44)*%
X113030000Y-123698000D03*
%TO.P,J13,45,45*%
%TO.N,unconnected-(J13-Pad45)*%
X115570000Y-123698000D03*
%TO.P,J13,46,46*%
%TO.N,unconnected-(J13-Pad46)*%
X118110000Y-123698000D03*
%TO.P,J13,47,47*%
%TO.N,unconnected-(J13-Pad47)*%
X120650000Y-123698000D03*
%TO.P,J13,48,48*%
%TO.N,Net-(J13-Pad48)*%
X123190000Y-123698000D03*
%TD*%
D10*
%TO.P,TP14,1,1*%
%TO.N,/TX5*%
X136525000Y-120904000D03*
%TD*%
D12*
%TO.P,U2,1,T1_Out*%
%TO.N,Net-(JP1-B)*%
X34417000Y-75438000D03*
D13*
%TO.P,U2,2,T2_Out*%
%TO.N,unconnected-(U2-T2_Out-Pad2)*%
X36957000Y-75438000D03*
%TO.P,U2,3,R1_In*%
%TO.N,Net-(U2-R1_In)*%
X39497000Y-75438000D03*
%TO.P,U2,4,R2_In*%
%TO.N,Net-(J2-P14)*%
X42037000Y-75438000D03*
%TO.P,U2,5,3-5.5V*%
%TO.N,Net-(U2-3-5.5V)*%
X44577000Y-75438000D03*
%TO.P,U2,6,GND*%
%TO.N,Net-(J1-P21)*%
X47117000Y-75438000D03*
%TO.P,U2,7,T1_In*%
%TO.N,/TX1*%
X49657000Y-75438000D03*
%TO.P,U2,8,T2_In*%
%TO.N,unconnected-(U2-T2_In-Pad8)*%
X52197000Y-75438000D03*
%TO.P,U2,9,R1_Out*%
%TO.N,/RX1*%
X54737000Y-75438000D03*
%TO.P,U2,10,R2_Out*%
%TO.N,/RX5*%
X57277000Y-75438000D03*
%TD*%
D10*
%TO.P,TP5,1,1*%
%TO.N,/RX3*%
X111426000Y-94996000D03*
%TD*%
%TO.P,JP9,1,A*%
%TO.N,Net-(JP9-A)*%
X80899000Y-36576000D03*
D11*
%TO.P,JP9,2,B*%
%TO.N,Net-(JP9-B)*%
X78359000Y-36576000D03*
%TD*%
D12*
%TO.P,U5,1,T1_Out*%
%TO.N,Net-(JP4-B)*%
X130810000Y-75677000D03*
D13*
%TO.P,U5,2,T2_Out*%
%TO.N,unconnected-(U5-T2_Out-Pad2)*%
X133350000Y-75677000D03*
%TO.P,U5,3,R1_In*%
%TO.N,Net-(U5-R1_In)*%
X135890000Y-75677000D03*
%TO.P,U5,4,R2_In*%
%TO.N,Net-(J2-P22)*%
X138430000Y-75677000D03*
%TO.P,U5,5,3-5.5V*%
%TO.N,Net-(U2-3-5.5V)*%
X140970000Y-75677000D03*
%TO.P,U5,6,GND*%
%TO.N,Net-(J1-P21)*%
X143510000Y-75677000D03*
%TO.P,U5,7,T1_In*%
%TO.N,/TX4*%
X146050000Y-75677000D03*
%TO.P,U5,8,T2_In*%
%TO.N,unconnected-(U5-T2_In-Pad8)*%
X148590000Y-75677000D03*
%TO.P,U5,9,R1_Out*%
%TO.N,/RX4*%
X151130000Y-75677000D03*
%TO.P,U5,10,R2_Out*%
%TO.N,Net-(U5-R2_Out)*%
X153670000Y-75677000D03*
%TD*%
D10*
%TO.P,JP2,1,A*%
%TO.N,Net-(J2-P16)*%
X65024000Y-29718000D03*
D11*
%TO.P,JP2,2,C*%
%TO.N,Net-(J1-P16)*%
X65024000Y-32258000D03*
%TO.P,JP2,3,B*%
%TO.N,Net-(JP2-B)*%
X65024000Y-34798000D03*
%TD*%
D10*
%TO.P,TP12,1,1*%
%TO.N,/RX5*%
X60173000Y-96393000D03*
%TD*%
%TO.P,TP7,1,1*%
%TO.N,/RX4*%
X134151000Y-94742000D03*
%TD*%
%TO.P,TP13,1,1*%
%TO.N,Net-(J13-Pad16)*%
X56007000Y-118999000D03*
%TD*%
%TO.P,JP8,1,A*%
%TO.N,Net-(J1-P18)*%
X78359000Y-40386000D03*
D11*
%TO.P,JP8,2,B*%
%TO.N,Net-(J2-P18)*%
X80899000Y-40386000D03*
%TD*%
D10*
%TO.P,TP8,1,1*%
%TO.N,/TX4*%
X128651000Y-94742000D03*
%TD*%
%TO.P,JP6,1,A*%
%TO.N,Net-(J2-P21)*%
X139319000Y-44069000D03*
D11*
%TO.P,JP6,2,C*%
%TO.N,Net-(J1-P21)*%
X139319000Y-46609000D03*
%TO.P,JP6,3,B*%
%TO.N,unconnected-(JP6-B-Pad3)*%
X139319000Y-49149000D03*
%TD*%
D12*
%TO.P,U3,1,T1_Out*%
%TO.N,Net-(JP2-B)*%
X65024000Y-75819000D03*
D13*
%TO.P,U3,2,T2_Out*%
%TO.N,unconnected-(U3-T2_Out-Pad2)*%
X67564000Y-75819000D03*
%TO.P,U3,3,R1_In*%
%TO.N,Net-(U3-R1_In)*%
X70104000Y-75819000D03*
%TO.P,U3,4,R2_In*%
%TO.N,Net-(J2-P16)*%
X72644000Y-75819000D03*
%TO.P,U3,5,3-5.5V*%
%TO.N,Net-(U2-3-5.5V)*%
X75184000Y-75819000D03*
%TO.P,U3,6,GND*%
%TO.N,Net-(J1-P21)*%
X77724000Y-75819000D03*
%TO.P,U3,7,T1_In*%
%TO.N,/TX2*%
X80264000Y-75819000D03*
%TO.P,U3,8,T2_In*%
%TO.N,unconnected-(U3-T2_In-Pad8)*%
X82804000Y-75819000D03*
%TO.P,U3,9,R1_Out*%
%TO.N,/RX2*%
X85344000Y-75819000D03*
%TO.P,U3,10,R2_Out*%
%TO.N,/RX6*%
X87884000Y-75819000D03*
%TD*%
D10*
%TO.P,JP7,1,A*%
%TO.N,Net-(J2-P23)*%
X149225000Y-56022000D03*
D11*
%TO.P,JP7,2,C*%
%TO.N,Net-(J1-P23)*%
X149225000Y-58562000D03*
%TO.P,JP7,3,B*%
%TO.N,Net-(JP7-B)*%
X149225000Y-61102000D03*
%TD*%
D10*
%TO.P,TP4,1,1*%
%TO.N,/TX2*%
X73279000Y-95885000D03*
%TD*%
%TO.P,JP3,1,A*%
%TO.N,Net-(J2-P20)*%
X99060000Y-41036000D03*
D11*
%TO.P,JP3,2,C*%
%TO.N,Net-(J1-P20)*%
X99060000Y-43576000D03*
%TO.P,JP3,3,B*%
%TO.N,Net-(JP3-B)*%
X99060000Y-46116000D03*
%TD*%
D10*
%TO.P,TP6,1,1*%
%TO.N,/TX3*%
X106426000Y-94996000D03*
%TD*%
D18*
%TO.N,/RX1*%
X80010000Y-105791000D03*
%TO.N,/RX2*%
X94043500Y-97345500D03*
X85344000Y-88646000D03*
%TO.N,/TX2*%
X88900000Y-97155000D03*
X80264000Y-88646000D03*
%TO.N,/RX5*%
X86360000Y-111252000D03*
X110490000Y-117856000D03*
X80010000Y-103505000D03*
X86360000Y-115316000D03*
X84963000Y-103505000D03*
%TO.N,Net-(U2-R1_In)*%
X36195000Y-61087000D03*
X36195000Y-25400000D03*
%TO.N,/TX4*%
X107569000Y-116713000D03*
%TO.N,/RX3*%
X111760000Y-110871000D03*
%TO.N,/TX3*%
X92710000Y-111252000D03*
%TO.N,Net-(U3-R1_In)*%
X73152000Y-66294000D03*
X73215500Y-30924500D03*
X57785000Y-30861000D03*
%TO.N,GND*%
X159956500Y-83248500D03*
X45720000Y-89789000D03*
%TO.N,Net-(U4-R1_In)*%
X68072000Y-63627000D03*
X155829000Y-42164000D03*
X140716000Y-61722000D03*
X68072000Y-42037000D03*
%TO.N,Net-(U5-R1_In)*%
X135763000Y-59944000D03*
X143510000Y-49403000D03*
X106299000Y-59817000D03*
X106299000Y-52070000D03*
%TO.N,Net-(J2-P22)*%
X138176000Y-57023000D03*
%TO.N,Net-(J2-P14)*%
X44704000Y-26924000D03*
X43434000Y-60960000D03*
%TO.N,Net-(J2-P20)*%
X150558500Y-40322500D03*
%TO.N,Net-(J2-P16)*%
X71882000Y-32464000D03*
%TO.N,Net-(J13-Pad48)*%
X27940000Y-101473000D03*
%TO.N,Net-(JP1-B)*%
X34417000Y-66167000D03*
%TO.N,Net-(J1-P21)*%
X77597000Y-80645000D03*
X47117000Y-80518000D03*
X119761000Y-44450000D03*
X111760000Y-80645000D03*
X138557000Y-80645000D03*
X73152000Y-80645000D03*
X143510000Y-80645000D03*
X106680000Y-80518000D03*
X42037000Y-80518000D03*
%TD*%
D19*
%TO.N,/RX1*%
X63500000Y-105791000D02*
X63373000Y-105918000D01*
X55673000Y-96393000D02*
X55673000Y-98218000D01*
X54737000Y-75438000D02*
X54737000Y-95457000D01*
X54737000Y-95457000D02*
X55673000Y-96393000D01*
X80010000Y-105791000D02*
X63500000Y-105791000D01*
X55673000Y-98218000D02*
X63373000Y-105918000D01*
%TO.N,Net-(J1-P23)*%
X34141000Y-57255000D02*
X34163000Y-57277000D01*
X29083000Y-53100000D02*
X34149000Y-53100000D01*
X149147000Y-58640000D02*
X149225000Y-58562000D01*
X29083000Y-55870000D02*
X34153000Y-55870000D01*
X34153000Y-55870000D02*
X34163000Y-55880000D01*
X34149000Y-53100000D02*
X34163000Y-53086000D01*
X34163000Y-58640000D02*
X149147000Y-58640000D01*
X34163000Y-55880000D02*
X34163000Y-57277000D01*
X29083000Y-58640000D02*
X34163000Y-58640000D01*
X34163000Y-51689000D02*
X34163000Y-53086000D01*
X34137000Y-51715000D02*
X34163000Y-51689000D01*
X34163000Y-54356000D02*
X34163000Y-55880000D01*
X26243000Y-57255000D02*
X34141000Y-57255000D01*
X26243000Y-54485000D02*
X34034000Y-54485000D01*
X34163000Y-57277000D02*
X34163000Y-58640000D01*
X34163000Y-53086000D02*
X34163000Y-54356000D01*
X34034000Y-54485000D02*
X34163000Y-54356000D01*
X26243000Y-51715000D02*
X34137000Y-51715000D01*
%TO.N,/TX1*%
X49657000Y-95377000D02*
X50673000Y-96393000D01*
X49657000Y-75438000D02*
X49657000Y-95377000D01*
X50673000Y-96393000D02*
X50673000Y-97536000D01*
X50673000Y-97536000D02*
X65786000Y-112649000D01*
X113919000Y-112649000D02*
X118110000Y-108458000D01*
X65786000Y-112649000D02*
X113919000Y-112649000D01*
%TO.N,/RX2*%
X85344000Y-88820000D02*
X78279000Y-95885000D01*
X94043500Y-99631500D02*
X102870000Y-108458000D01*
X85344000Y-75819000D02*
X85344000Y-88646000D01*
X94043500Y-97345500D02*
X94043500Y-99631500D01*
X85344000Y-88646000D02*
X85344000Y-88820000D01*
%TO.N,/TX2*%
X88900000Y-97155000D02*
X89027000Y-97155000D01*
X80264000Y-88646000D02*
X80264000Y-88900000D01*
X80264000Y-88900000D02*
X73279000Y-95885000D01*
X89027000Y-97155000D02*
X100330000Y-108458000D01*
X80264000Y-75819000D02*
X80264000Y-88646000D01*
%TO.N,/RX6*%
X87884000Y-90780000D02*
X82779000Y-95885000D01*
X82779000Y-108229000D02*
X82550000Y-108458000D01*
X87884000Y-75819000D02*
X87884000Y-90780000D01*
X82779000Y-95885000D02*
X82779000Y-108229000D01*
%TO.N,/RX5*%
X57277000Y-93497000D02*
X60173000Y-96393000D01*
X86360000Y-115316000D02*
X88900000Y-117856000D01*
X60173000Y-96393000D02*
X60198000Y-96393000D01*
X57277000Y-75438000D02*
X57277000Y-93497000D01*
X67310000Y-103505000D02*
X80010000Y-103505000D01*
X86360000Y-109728000D02*
X86360000Y-111252000D01*
X60198000Y-96393000D02*
X67310000Y-103505000D01*
X86360000Y-104902000D02*
X86360000Y-109728000D01*
X84963000Y-103505000D02*
X86360000Y-104902000D01*
X110490000Y-117856000D02*
X88900000Y-117856000D01*
%TO.N,Net-(U2-R1_In)*%
X39497000Y-65151000D02*
X39497000Y-75438000D01*
X159720000Y-25539000D02*
X46494000Y-25539000D01*
X37592000Y-20574000D02*
X36195000Y-21971000D01*
X36195000Y-25400000D02*
X29083000Y-25400000D01*
X36195000Y-21971000D02*
X36195000Y-25400000D01*
X36195000Y-61849000D02*
X39497000Y-65151000D01*
X46494000Y-25539000D02*
X41529000Y-20574000D01*
X41529000Y-20574000D02*
X37592000Y-20574000D01*
X36195000Y-61087000D02*
X36195000Y-61849000D01*
%TO.N,/TX5*%
X110744000Y-120904000D02*
X107950000Y-123698000D01*
X136525000Y-120904000D02*
X110744000Y-120904000D01*
%TO.N,/RX4*%
X129159000Y-118999000D02*
X134151000Y-114007000D01*
X137287000Y-92329000D02*
X136564000Y-92329000D01*
X102489000Y-118999000D02*
X129159000Y-118999000D01*
X151130000Y-75677000D02*
X151130000Y-78486000D01*
X136564000Y-92329000D02*
X134151000Y-94742000D01*
X97790000Y-123698000D02*
X102489000Y-118999000D01*
X134151000Y-114007000D02*
X134151000Y-94742000D01*
X151130000Y-78486000D02*
X137287000Y-92329000D01*
%TO.N,/TX4*%
X128651000Y-114427000D02*
X128651000Y-94742000D01*
X146050000Y-81026000D02*
X135001000Y-92075000D01*
X107569000Y-116713000D02*
X126365000Y-116713000D01*
X135001000Y-92075000D02*
X131318000Y-92075000D01*
X131318000Y-92075000D02*
X128651000Y-94742000D01*
X146050000Y-75677000D02*
X146050000Y-81026000D01*
X126365000Y-116713000D02*
X128651000Y-114427000D01*
%TO.N,/RX3*%
X111760000Y-105918000D02*
X111760000Y-110871000D01*
X111426000Y-94996000D02*
X111426000Y-105584000D01*
X111426000Y-105584000D02*
X111760000Y-105918000D01*
X119380000Y-75931000D02*
X119380000Y-87042000D01*
X119380000Y-87042000D02*
X111426000Y-94996000D01*
%TO.N,/TX3*%
X106426000Y-110871000D02*
X93091000Y-110871000D01*
X114300000Y-87122000D02*
X106426000Y-94996000D01*
X93091000Y-110871000D02*
X92710000Y-111252000D01*
X114300000Y-75931000D02*
X114300000Y-87122000D01*
X106426000Y-94996000D02*
X106426000Y-110871000D01*
%TO.N,Net-(J1-P16)*%
X64957000Y-32325000D02*
X65024000Y-32258000D01*
X34103000Y-32325000D02*
X35052000Y-33274000D01*
X57531000Y-33274000D02*
X58547000Y-32258000D01*
X35052000Y-33274000D02*
X57531000Y-33274000D01*
X26243000Y-32325000D02*
X34103000Y-32325000D01*
X58547000Y-32258000D02*
X65024000Y-32258000D01*
%TO.N,Net-(JP9-B)*%
X29083000Y-36480000D02*
X61880000Y-36480000D01*
X67945000Y-37465000D02*
X68834000Y-36576000D01*
X61880000Y-36480000D02*
X62865000Y-37465000D01*
X68834000Y-36576000D02*
X78359000Y-36576000D01*
X62865000Y-37465000D02*
X67945000Y-37465000D01*
%TO.N,Net-(U3-R1_In)*%
X57785000Y-30861000D02*
X56515000Y-32131000D01*
X70104000Y-75819000D02*
X70104000Y-66294000D01*
X35687000Y-32131000D02*
X34496000Y-30940000D01*
X34496000Y-30940000D02*
X29083000Y-30940000D01*
X70104000Y-66294000D02*
X73152000Y-66294000D01*
X159720000Y-31079000D02*
X73370000Y-31079000D01*
X73370000Y-31079000D02*
X73215500Y-30924500D01*
X56515000Y-32131000D02*
X35687000Y-32131000D01*
X73215500Y-30924500D02*
X73152000Y-30861000D01*
%TO.N,Net-(J1-P22)*%
X26243000Y-48945000D02*
X90374000Y-48945000D01*
X90424000Y-48895000D02*
X95250000Y-53721000D01*
X95250000Y-53721000D02*
X113157000Y-53721000D01*
X90374000Y-48945000D02*
X90424000Y-48895000D01*
X113157000Y-53721000D02*
X118095000Y-48783000D01*
X118095000Y-48783000D02*
X127762000Y-48783000D01*
%TO.N,Net-(JP5-C)*%
X96393000Y-49276000D02*
X101219000Y-49276000D01*
X105791000Y-44704000D02*
X111379000Y-44704000D01*
X29083000Y-44790000D02*
X91907000Y-44790000D01*
X101219000Y-49276000D02*
X105791000Y-44704000D01*
X91907000Y-44790000D02*
X96393000Y-49276000D01*
%TO.N,Net-(J1-P14)*%
X26243000Y-26785000D02*
X39612000Y-26785000D01*
X39612000Y-26785000D02*
X39624000Y-26797000D01*
%TO.N,GND*%
X160020000Y-83185000D02*
X159956500Y-83248500D01*
X28829000Y-80010000D02*
X34925000Y-86106000D01*
X28783000Y-65570000D02*
X28783000Y-73077737D01*
X28829000Y-73123737D02*
X28829000Y-80010000D01*
X45720000Y-89789000D02*
X45720000Y-91567000D01*
X160020000Y-65709000D02*
X160020000Y-83185000D01*
X42037000Y-86106000D02*
X45720000Y-89789000D01*
X34925000Y-86106000D02*
X42037000Y-86106000D01*
X28783000Y-73077737D02*
X28829000Y-73123737D01*
%TO.N,Net-(J1-P20)*%
X26243000Y-43405000D02*
X98889000Y-43405000D01*
X98889000Y-43405000D02*
X99060000Y-43576000D01*
%TO.N,Net-(J1-P18)*%
X26243000Y-37865000D02*
X61233000Y-37865000D01*
X61233000Y-37865000D02*
X63754000Y-40386000D01*
X63754000Y-40386000D02*
X78359000Y-40386000D01*
%TO.N,Net-(U4-R1_In)*%
X68055000Y-42020000D02*
X68072000Y-42037000D01*
X155834000Y-42159000D02*
X155829000Y-42164000D01*
X159720000Y-42159000D02*
X155834000Y-42159000D01*
X68072000Y-63627000D02*
X104013000Y-63627000D01*
X106172000Y-61722000D02*
X140716000Y-61722000D01*
X104140000Y-63754000D02*
X106172000Y-61722000D01*
X104140000Y-75931000D02*
X104140000Y-63754000D01*
X29083000Y-42020000D02*
X68055000Y-42020000D01*
X104013000Y-63627000D02*
X104140000Y-63754000D01*
%TO.N,Net-(U5-R1_In)*%
X135763000Y-59944000D02*
X106426000Y-59944000D01*
X95758000Y-52070000D02*
X106299000Y-52070000D01*
X29083000Y-47560000D02*
X90867000Y-47560000D01*
X159720000Y-47699000D02*
X145214000Y-47699000D01*
X94361000Y-51054000D02*
X95377000Y-52070000D01*
X145214000Y-47699000D02*
X143510000Y-49403000D01*
X95377000Y-52070000D02*
X95758000Y-52070000D01*
X90867000Y-47560000D02*
X94361000Y-51054000D01*
X106426000Y-59944000D02*
X106299000Y-59817000D01*
%TO.N,Net-(J2-P23)*%
X153934000Y-57394000D02*
X153924000Y-57404000D01*
X153926000Y-56009000D02*
X153924000Y-56007000D01*
X153924000Y-53213000D02*
X153924000Y-54610000D01*
X153924000Y-56007000D02*
X153924000Y-57404000D01*
X153924000Y-54610000D02*
X153924000Y-56007000D01*
X159720000Y-56009000D02*
X153926000Y-56009000D01*
X153913000Y-56022000D02*
X153926000Y-56009000D01*
X153962000Y-51854000D02*
X153924000Y-51816000D01*
X162560000Y-57394000D02*
X153934000Y-57394000D01*
X149225000Y-56022000D02*
X153913000Y-56022000D01*
X162560000Y-51854000D02*
X153962000Y-51854000D01*
X153924000Y-58547000D02*
X154156000Y-58779000D01*
X162560000Y-54624000D02*
X153938000Y-54624000D01*
X153924000Y-51816000D02*
X153924000Y-53213000D01*
X154156000Y-58779000D02*
X159720000Y-58779000D01*
X153924000Y-57404000D02*
X153924000Y-58547000D01*
X153938000Y-54624000D02*
X153924000Y-54610000D01*
X153950000Y-53239000D02*
X153924000Y-53213000D01*
X159720000Y-53239000D02*
X153950000Y-53239000D01*
%TO.N,Net-(J2-P22)*%
X135763000Y-52197000D02*
X143510000Y-52197000D01*
X135763000Y-52197000D02*
X138049000Y-54483000D01*
X146685000Y-49022000D02*
X146939000Y-49022000D01*
X146939000Y-49022000D02*
X147001000Y-49084000D01*
X147001000Y-49084000D02*
X162560000Y-49084000D01*
X135509000Y-52197000D02*
X135763000Y-52197000D01*
X129555000Y-46243000D02*
X135509000Y-52197000D01*
X143510000Y-52197000D02*
X146685000Y-49022000D01*
X138303000Y-56896000D02*
X138176000Y-57023000D01*
X138049000Y-54483000D02*
X138303000Y-54483000D01*
X138303000Y-54483000D02*
X138303000Y-56896000D01*
X127762000Y-46243000D02*
X129555000Y-46243000D01*
%TO.N,Net-(JP5-A)*%
X111379000Y-42164000D02*
X135763000Y-42164000D01*
X153006000Y-44929000D02*
X159720000Y-44929000D01*
X135763000Y-42164000D02*
X137668000Y-40259000D01*
X148336000Y-40259000D02*
X153006000Y-44929000D01*
X137668000Y-40259000D02*
X148336000Y-40259000D01*
%TO.N,Net-(J2-P14)*%
X44704000Y-26924000D02*
X162560000Y-26924000D01*
X43434000Y-60960000D02*
X42037000Y-62357000D01*
X39624000Y-24257000D02*
X42037000Y-24257000D01*
X42037000Y-24257000D02*
X44704000Y-26924000D01*
X42037000Y-62357000D02*
X42037000Y-75438000D01*
%TO.N,Net-(JP9-A)*%
X159720000Y-36619000D02*
X80942000Y-36619000D01*
X80942000Y-36619000D02*
X80899000Y-36576000D01*
%TO.N,Net-(J2-P21)*%
X149860000Y-44069000D02*
X152105000Y-46314000D01*
X139319000Y-44069000D02*
X149860000Y-44069000D01*
X152105000Y-46314000D02*
X162560000Y-46314000D01*
%TO.N,Net-(J2-P18)*%
X80899000Y-40386000D02*
X84709000Y-40386000D01*
X87091000Y-38004000D02*
X162560000Y-38004000D01*
X84709000Y-40386000D02*
X87091000Y-38004000D01*
%TO.N,Net-(J2-P20)*%
X150558500Y-40322500D02*
X150495000Y-40259000D01*
X153780000Y-43544000D02*
X150558500Y-40322500D01*
X162560000Y-43544000D02*
X154288000Y-43544000D01*
X154288000Y-43544000D02*
X153780000Y-43544000D01*
%TO.N,Net-(J2-P16)*%
X71882000Y-32464000D02*
X162560000Y-32464000D01*
X69088000Y-29718000D02*
X71834000Y-32464000D01*
X71834000Y-32464000D02*
X71882000Y-32464000D01*
X65024000Y-29718000D02*
X69088000Y-29718000D01*
%TO.N,Net-(J13-Pad48)*%
X27940000Y-94107000D02*
X27940000Y-101473000D01*
%TO.N,Net-(U5-R2_Out)*%
X153670000Y-75677000D02*
X153670000Y-78232000D01*
X119253000Y-130937000D02*
X119380000Y-131064000D01*
X74549000Y-130937000D02*
X119253000Y-130937000D01*
X138651000Y-127922000D02*
X138651000Y-94742000D01*
X135509000Y-131064000D02*
X138651000Y-127922000D01*
X67310000Y-123698000D02*
X74549000Y-130937000D01*
X153670000Y-78232000D02*
X138651000Y-93251000D01*
X138651000Y-93251000D02*
X138651000Y-94742000D01*
X119380000Y-131064000D02*
X135509000Y-131064000D01*
%TO.N,Net-(J13-Pad1)*%
X123190000Y-110744000D02*
X119761000Y-114173000D01*
X35560000Y-111379000D02*
X35560000Y-99187000D01*
X38354000Y-114173000D02*
X35560000Y-111379000D01*
X35560000Y-99187000D02*
X27940000Y-91567000D01*
X119761000Y-114173000D02*
X38354000Y-114173000D01*
X123190000Y-108458000D02*
X123190000Y-110744000D01*
%TO.N,Net-(U4-R2_Out)*%
X121920000Y-89002000D02*
X115926000Y-94996000D01*
X121920000Y-75931000D02*
X121920000Y-89002000D01*
%TO.N,Net-(JP1-B)*%
X34417000Y-66167000D02*
X34417000Y-75438000D01*
%TO.N,Net-(J1-P21)*%
X113411000Y-50927000D02*
X113665000Y-50673000D01*
X138557000Y-80645000D02*
X143510000Y-80645000D01*
X73152000Y-80645000D02*
X77597000Y-80645000D01*
X42037000Y-80518000D02*
X47117000Y-80518000D01*
X91514000Y-46175000D02*
X92710000Y-47371000D01*
X97409000Y-50927000D02*
X113411000Y-50927000D01*
X111633000Y-80518000D02*
X111760000Y-80645000D01*
X96266000Y-50927000D02*
X97409000Y-50927000D01*
X26243000Y-46175000D02*
X91514000Y-46175000D01*
X106680000Y-80518000D02*
X111633000Y-80518000D01*
X92710000Y-47371000D02*
X96266000Y-50927000D01*
X113665000Y-50673000D02*
X119761000Y-44577000D01*
X119761000Y-44577000D02*
X119761000Y-44450000D01*
X77597000Y-80645000D02*
X77724000Y-80772000D01*
%TD*%
M02*
