M48
; DRILL file {KiCad 8.0.6} date 2024-11-17T16:51:16-0800
; FORMAT={-:-/ absolute / inch / decimal}
; #@! TF.CreationDate,2024-11-17T16:51:16-08:00
; #@! TF.GenerationSoftware,Kicad,Pcbnew,8.0.6
; #@! TF.FileFunction,Plated,1,2,PTH
FMAT,2
INCH
; #@! TA.AperFunction,Plated,PTH,ViaDrill
T1C0.0157
; #@! TA.AperFunction,Plated,PTH,ComponentDrill
T2C0.0300
; #@! TA.AperFunction,Plated,PTH,ComponentDrill
T3C0.0394
; #@! TA.AperFunction,Plated,PTH,ComponentDrill
T4C0.1260
%
G90
G05
T1
X1.1Y-3.995
X1.355Y-2.605
X1.425Y-1.0
X1.425Y-2.405
X1.655Y-3.17
X1.71Y-2.4
X1.76Y-1.06
X1.8Y-3.535
X1.855Y-3.17
X2.275Y-1.215
X2.68Y-1.655
X2.68Y-2.505
X2.83Y-1.2781
X2.88Y-2.61
X2.88Y-3.175
X2.8825Y-1.2175
X3.055Y-3.175
X3.15Y-4.075
X3.15Y-4.165
X3.16Y-3.49
X3.345Y-4.075
X3.36Y-3.49
X3.4Y-4.38
X3.4Y-4.54
X3.5Y-3.825
X3.65Y-4.38
X3.7025Y-3.8325
X4.185Y-2.05
X4.185Y-2.355
X4.2Y-3.17
X4.235Y-4.595
X4.35Y-4.64
X4.4Y-3.175
X4.4Y-4.365
X4.715Y-1.75
X5.345Y-2.36
X5.44Y-2.245
X5.455Y-3.175
X5.54Y-2.43
X5.65Y-1.945
X5.65Y-3.175
X5.9275Y-1.5875
X6.135Y-1.66
X6.2975Y-3.2775
T2
X1.0Y-3.605
X1.0Y-3.705
X1.1Y-3.605
X1.1Y-3.705
X1.355Y-2.97
X1.455Y-2.97
X1.555Y-2.97
X1.655Y-2.97
X1.7Y-3.605
X1.7Y-3.705
X1.755Y-2.97
X1.8Y-3.605
X1.8Y-3.705
X1.855Y-2.97
X1.955Y-2.97
X2.055Y-2.97
X2.155Y-2.97
X2.255Y-2.97
X2.55Y-4.27
X2.55Y-4.87
X2.56Y-2.985
X2.65Y-4.27
X2.65Y-4.87
X2.66Y-2.985
X2.75Y-4.27
X2.75Y-4.87
X2.76Y-2.985
X2.85Y-4.27
X2.85Y-4.87
X2.86Y-2.985
X2.95Y-4.27
X2.95Y-4.87
X2.96Y-2.985
X3.05Y-4.27
X3.05Y-4.87
X3.06Y-2.985
X3.15Y-4.27
X3.15Y-4.87
X3.16Y-2.985
X3.25Y-4.27
X3.25Y-4.87
X3.26Y-2.985
X3.35Y-4.27
X3.35Y-4.87
X3.36Y-2.985
X3.45Y-4.27
X3.45Y-4.87
X3.46Y-2.985
X3.55Y-4.27
X3.55Y-4.87
X3.65Y-4.27
X3.65Y-4.87
X3.75Y-4.27
X3.75Y-4.87
X3.85Y-4.27
X3.85Y-4.87
X3.9Y-2.9894
X3.95Y-4.27
X3.95Y-4.87
X4.0Y-2.9894
X4.05Y-4.27
X4.05Y-4.87
X4.1Y-2.9894
X4.15Y-4.27
X4.15Y-4.87
X4.2Y-2.9894
X4.25Y-4.27
X4.25Y-4.87
X4.3Y-2.9894
X4.35Y-4.27
X4.35Y-4.87
X4.4Y-2.9894
X4.45Y-4.27
X4.45Y-4.87
X4.5Y-2.9894
X4.55Y-4.27
X4.55Y-4.87
X4.6Y-2.9894
X4.65Y-4.27
X4.65Y-4.87
X4.7Y-2.9894
X4.75Y-4.27
X4.75Y-4.87
X4.8Y-2.9894
X4.85Y-4.27
X4.85Y-4.87
X5.15Y-2.9794
X5.25Y-2.9794
X5.35Y-2.9794
X5.45Y-2.9794
X5.55Y-2.9794
X5.65Y-2.9794
X5.67Y-3.605
X5.67Y-3.705
X5.75Y-2.9794
X5.77Y-3.605
X5.77Y-3.705
X5.85Y-2.9794
X5.95Y-2.9794
X6.05Y-2.9794
X6.37Y-3.605
X6.37Y-3.705
X6.47Y-3.605
X6.47Y-3.705
T3
X1.0332Y-1.0545
X1.0332Y-1.1636
X1.0332Y-1.2726
X1.0332Y-1.3817
X1.0332Y-1.4907
X1.0332Y-1.5998
X1.0332Y-1.7089
X1.0332Y-1.8179
X1.0332Y-1.927
X1.0332Y-2.036
X1.0332Y-2.1451
X1.0332Y-2.2541
X1.145Y-1.0
X1.145Y-1.1091
X1.145Y-1.2181
X1.145Y-1.3272
X1.145Y-1.4362
X1.145Y-1.5453
X1.145Y-1.6543
X1.145Y-1.7634
X1.145Y-1.8724
X1.145Y-1.9815
X1.145Y-2.0906
X1.145Y-2.1996
X1.145Y-2.3087
X1.56Y-0.955
X1.56Y-1.055
X1.56Y-1.155
X1.995Y-3.795
X2.1919Y-3.795
X2.205Y-4.685
X2.369Y-3.795
X2.56Y-1.17
X2.56Y-1.27
X2.56Y-1.37
X2.885Y-3.775
X3.0819Y-3.775
X3.085Y-1.44
X3.085Y-1.59
X3.185Y-1.44
X3.185Y-1.59
X3.259Y-3.775
X3.9Y-1.6156
X3.9Y-1.7156
X3.9Y-1.8156
X4.19Y-3.74
X4.385Y-1.66
X4.385Y-1.76
X4.385Y-1.86
X4.3869Y-3.74
X4.564Y-3.74
X5.03Y-1.8206
X5.03Y-1.9206
X5.03Y-2.0206
X5.065Y-3.73
X5.2815Y-3.73
X5.375Y-4.76
X5.4587Y-3.73
X5.485Y-1.735
X5.485Y-1.835
X5.485Y-1.935
X5.875Y-2.2056
X5.875Y-2.3056
X5.875Y-2.4056
X6.2882Y-1.0055
X6.2882Y-1.1145
X6.2882Y-1.2236
X6.2882Y-1.3326
X6.2882Y-1.4417
X6.2882Y-1.5507
X6.2882Y-1.6598
X6.2882Y-1.7689
X6.2882Y-1.8779
X6.2882Y-1.987
X6.2882Y-2.096
X6.2882Y-2.2051
X6.2882Y-2.3141
X6.4Y-1.06
X6.4Y-1.1691
X6.4Y-1.2781
X6.4Y-1.3872
X6.4Y-1.4962
X6.4Y-1.6053
X6.4Y-1.7143
X6.4Y-1.8234
X6.4Y-1.9324
X6.4Y-2.0415
X6.4Y-2.1506
X6.4Y-2.2596
T4
X1.1332Y-0.7272
X1.1332Y-2.5815
X6.3Y-0.7326
X6.3Y-2.587
M30
