%TF.GenerationSoftware,KiCad,Pcbnew,8.0.6*%
%TF.CreationDate,2024-11-17T16:51:09-08:00*%
%TF.ProjectId,DFboard,4446626f-6172-4642-9e6b-696361645f70,Rev0.1*%
%TF.SameCoordinates,Original*%
%TF.FileFunction,Drillmap*%
%TF.FilePolarity,Positive*%
%FSLAX45Y45*%
G04 Gerber Fmt 4.5, Leading zero omitted, Abs format (unit mm)*
G04 Created by KiCad (PCBNEW 8.0.6) date 2024-11-17 16:51:09*
%MOMM*%
%LPD*%
G01*
G04 APERTURE LIST*
%ADD10C,0.100000*%
%ADD11C,0.200000*%
%ADD12C,0.320000*%
G04 APERTURE END LIST*
D10*
X2120900Y-13500100D02*
X16789400Y-13487400D01*
X2120900Y-1308100D02*
X16789400Y-1308100D01*
X2120900Y-1308100D02*
X2120900Y-13500100D01*
X16789400Y-1308100D02*
X16789400Y-13487400D01*
D11*
D10*
X2774000Y-10127300D02*
X2814000Y-10167300D01*
X2814000Y-10127300D02*
X2774000Y-10167300D01*
X3421700Y-6596700D02*
X3461700Y-6636700D01*
X3461700Y-6596700D02*
X3421700Y-6636700D01*
X3599500Y-2520000D02*
X3639500Y-2560000D01*
X3639500Y-2520000D02*
X3599500Y-2560000D01*
X3599500Y-6088700D02*
X3639500Y-6128700D01*
X3639500Y-6088700D02*
X3599500Y-6128700D01*
X4183700Y-8031800D02*
X4223700Y-8071800D01*
X4223700Y-8031800D02*
X4183700Y-8071800D01*
X4323400Y-6076000D02*
X4363400Y-6116000D01*
X4363400Y-6076000D02*
X4323400Y-6116000D01*
X4450400Y-2672400D02*
X4490400Y-2712400D01*
X4490400Y-2672400D02*
X4450400Y-2712400D01*
X4552000Y-8958900D02*
X4592000Y-8998900D01*
X4592000Y-8958900D02*
X4552000Y-8998900D01*
X4691700Y-8031800D02*
X4731700Y-8071800D01*
X4731700Y-8031800D02*
X4691700Y-8071800D01*
X5758500Y-3066100D02*
X5798500Y-3106100D01*
X5798500Y-3066100D02*
X5758500Y-3106100D01*
X6787200Y-4183700D02*
X6827200Y-4223700D01*
X6827200Y-4183700D02*
X6787200Y-4223700D01*
X6787200Y-6342700D02*
X6827200Y-6382700D01*
X6827200Y-6342700D02*
X6787200Y-6382700D01*
X7168200Y-3226400D02*
X7208200Y-3266400D01*
X7208200Y-3226400D02*
X7168200Y-3266400D01*
X7295200Y-6609400D02*
X7335200Y-6649400D01*
X7335200Y-6609400D02*
X7295200Y-6649400D01*
X7295200Y-8044500D02*
X7335200Y-8084500D01*
X7335200Y-8044500D02*
X7295200Y-8084500D01*
X7301550Y-3072450D02*
X7341550Y-3112450D01*
X7341550Y-3072450D02*
X7301550Y-3112450D01*
X7739700Y-8044500D02*
X7779700Y-8084500D01*
X7779700Y-8044500D02*
X7739700Y-8084500D01*
X7981000Y-10330500D02*
X8021000Y-10370500D01*
X8021000Y-10330500D02*
X7981000Y-10370500D01*
X7981000Y-10559100D02*
X8021000Y-10599100D01*
X8021000Y-10559100D02*
X7981000Y-10599100D01*
X8006400Y-8844600D02*
X8046400Y-8884600D01*
X8046400Y-8844600D02*
X8006400Y-8884600D01*
X8476300Y-10330500D02*
X8516300Y-10370500D01*
X8516300Y-10330500D02*
X8476300Y-10370500D01*
X8514400Y-8844600D02*
X8554400Y-8884600D01*
X8554400Y-8844600D02*
X8514400Y-8884600D01*
X8616000Y-11105200D02*
X8656000Y-11145200D01*
X8656000Y-11105200D02*
X8616000Y-11145200D01*
X8616000Y-11511600D02*
X8656000Y-11551600D01*
X8656000Y-11511600D02*
X8616000Y-11551600D01*
X8870000Y-9695500D02*
X8910000Y-9735500D01*
X8910000Y-9695500D02*
X8870000Y-9735500D01*
X9251000Y-11105200D02*
X9291000Y-11145200D01*
X9291000Y-11105200D02*
X9251000Y-11145200D01*
X9384350Y-9714550D02*
X9424350Y-9754550D01*
X9424350Y-9714550D02*
X9384350Y-9754550D01*
X10609900Y-5187000D02*
X10649900Y-5227000D01*
X10649900Y-5187000D02*
X10609900Y-5227000D01*
X10609900Y-5961700D02*
X10649900Y-6001700D01*
X10649900Y-5961700D02*
X10609900Y-6001700D01*
X10648000Y-8031800D02*
X10688000Y-8071800D01*
X10688000Y-8031800D02*
X10648000Y-8071800D01*
X10736900Y-11651300D02*
X10776900Y-11691300D01*
X10776900Y-11651300D02*
X10736900Y-11691300D01*
X11029000Y-11765600D02*
X11069000Y-11805600D01*
X11069000Y-11765600D02*
X11029000Y-11805600D01*
X11156000Y-8044500D02*
X11196000Y-8084500D01*
X11196000Y-8044500D02*
X11156000Y-8084500D01*
X11156000Y-11067100D02*
X11196000Y-11107100D01*
X11196000Y-11067100D02*
X11156000Y-11107100D01*
X11956100Y-4425000D02*
X11996100Y-4465000D01*
X11996100Y-4425000D02*
X11956100Y-4465000D01*
X13556300Y-5974400D02*
X13596300Y-6014400D01*
X13596300Y-5974400D02*
X13556300Y-6014400D01*
X13797600Y-5682300D02*
X13837600Y-5722300D01*
X13837600Y-5682300D02*
X13797600Y-5722300D01*
X13835700Y-8044500D02*
X13875700Y-8084500D01*
X13875700Y-8044500D02*
X13835700Y-8084500D01*
X14051600Y-6152200D02*
X14091600Y-6192200D01*
X14091600Y-6152200D02*
X14051600Y-6192200D01*
X14331000Y-4920300D02*
X14371000Y-4960300D01*
X14371000Y-4920300D02*
X14331000Y-4960300D01*
X14331000Y-8044500D02*
X14371000Y-8084500D01*
X14371000Y-8044500D02*
X14331000Y-8084500D01*
X15035850Y-4012250D02*
X15075850Y-4052250D01*
X15075850Y-4012250D02*
X15035850Y-4052250D01*
X15562900Y-4196400D02*
X15602900Y-4236400D01*
X15602900Y-4196400D02*
X15562900Y-4236400D01*
X15975650Y-8304850D02*
X16015650Y-8344850D01*
X16015650Y-8304850D02*
X15975650Y-8344850D01*
X2578100Y-9156700D02*
G75*
G02*
X2501900Y-9156700I-38100J0D01*
G01*
X2501900Y-9156700D02*
G75*
G02*
X2578100Y-9156700I38100J0D01*
G01*
X2578100Y-9410700D02*
G75*
G02*
X2501900Y-9410700I-38100J0D01*
G01*
X2501900Y-9410700D02*
G75*
G02*
X2578100Y-9410700I38100J0D01*
G01*
X2832100Y-9156700D02*
G75*
G02*
X2755900Y-9156700I-38100J0D01*
G01*
X2755900Y-9156700D02*
G75*
G02*
X2832100Y-9156700I38100J0D01*
G01*
X2832100Y-9410700D02*
G75*
G02*
X2755900Y-9410700I-38100J0D01*
G01*
X2755900Y-9410700D02*
G75*
G02*
X2832100Y-9410700I38100J0D01*
G01*
X3479800Y-7543800D02*
G75*
G02*
X3403600Y-7543800I-38100J0D01*
G01*
X3403600Y-7543800D02*
G75*
G02*
X3479800Y-7543800I38100J0D01*
G01*
X3733800Y-7543800D02*
G75*
G02*
X3657600Y-7543800I-38100J0D01*
G01*
X3657600Y-7543800D02*
G75*
G02*
X3733800Y-7543800I38100J0D01*
G01*
X3987800Y-7543800D02*
G75*
G02*
X3911600Y-7543800I-38100J0D01*
G01*
X3911600Y-7543800D02*
G75*
G02*
X3987800Y-7543800I38100J0D01*
G01*
X4241800Y-7543800D02*
G75*
G02*
X4165600Y-7543800I-38100J0D01*
G01*
X4165600Y-7543800D02*
G75*
G02*
X4241800Y-7543800I38100J0D01*
G01*
X4356100Y-9156700D02*
G75*
G02*
X4279900Y-9156700I-38100J0D01*
G01*
X4279900Y-9156700D02*
G75*
G02*
X4356100Y-9156700I38100J0D01*
G01*
X4356100Y-9410700D02*
G75*
G02*
X4279900Y-9410700I-38100J0D01*
G01*
X4279900Y-9410700D02*
G75*
G02*
X4356100Y-9410700I38100J0D01*
G01*
X4495800Y-7543800D02*
G75*
G02*
X4419600Y-7543800I-38100J0D01*
G01*
X4419600Y-7543800D02*
G75*
G02*
X4495800Y-7543800I38100J0D01*
G01*
X4610100Y-9156700D02*
G75*
G02*
X4533900Y-9156700I-38100J0D01*
G01*
X4533900Y-9156700D02*
G75*
G02*
X4610100Y-9156700I38100J0D01*
G01*
X4610100Y-9410700D02*
G75*
G02*
X4533900Y-9410700I-38100J0D01*
G01*
X4533900Y-9410700D02*
G75*
G02*
X4610100Y-9410700I38100J0D01*
G01*
X4749800Y-7543800D02*
G75*
G02*
X4673600Y-7543800I-38100J0D01*
G01*
X4673600Y-7543800D02*
G75*
G02*
X4749800Y-7543800I38100J0D01*
G01*
X5003800Y-7543800D02*
G75*
G02*
X4927600Y-7543800I-38100J0D01*
G01*
X4927600Y-7543800D02*
G75*
G02*
X5003800Y-7543800I38100J0D01*
G01*
X5257800Y-7543800D02*
G75*
G02*
X5181600Y-7543800I-38100J0D01*
G01*
X5181600Y-7543800D02*
G75*
G02*
X5257800Y-7543800I38100J0D01*
G01*
X5511800Y-7543800D02*
G75*
G02*
X5435600Y-7543800I-38100J0D01*
G01*
X5435600Y-7543800D02*
G75*
G02*
X5511800Y-7543800I38100J0D01*
G01*
X5765800Y-7543800D02*
G75*
G02*
X5689600Y-7543800I-38100J0D01*
G01*
X5689600Y-7543800D02*
G75*
G02*
X5765800Y-7543800I38100J0D01*
G01*
X6515100Y-10845800D02*
G75*
G02*
X6438900Y-10845800I-38100J0D01*
G01*
X6438900Y-10845800D02*
G75*
G02*
X6515100Y-10845800I38100J0D01*
G01*
X6515100Y-12369800D02*
G75*
G02*
X6438900Y-12369800I-38100J0D01*
G01*
X6438900Y-12369800D02*
G75*
G02*
X6515100Y-12369800I38100J0D01*
G01*
X6540500Y-7581900D02*
G75*
G02*
X6464300Y-7581900I-38100J0D01*
G01*
X6464300Y-7581900D02*
G75*
G02*
X6540500Y-7581900I38100J0D01*
G01*
X6769100Y-10845800D02*
G75*
G02*
X6692900Y-10845800I-38100J0D01*
G01*
X6692900Y-10845800D02*
G75*
G02*
X6769100Y-10845800I38100J0D01*
G01*
X6769100Y-12369800D02*
G75*
G02*
X6692900Y-12369800I-38100J0D01*
G01*
X6692900Y-12369800D02*
G75*
G02*
X6769100Y-12369800I38100J0D01*
G01*
X6794500Y-7581900D02*
G75*
G02*
X6718300Y-7581900I-38100J0D01*
G01*
X6718300Y-7581900D02*
G75*
G02*
X6794500Y-7581900I38100J0D01*
G01*
X7023100Y-10845800D02*
G75*
G02*
X6946900Y-10845800I-38100J0D01*
G01*
X6946900Y-10845800D02*
G75*
G02*
X7023100Y-10845800I38100J0D01*
G01*
X7023100Y-12369800D02*
G75*
G02*
X6946900Y-12369800I-38100J0D01*
G01*
X6946900Y-12369800D02*
G75*
G02*
X7023100Y-12369800I38100J0D01*
G01*
X7048500Y-7581900D02*
G75*
G02*
X6972300Y-7581900I-38100J0D01*
G01*
X6972300Y-7581900D02*
G75*
G02*
X7048500Y-7581900I38100J0D01*
G01*
X7277100Y-10845800D02*
G75*
G02*
X7200900Y-10845800I-38100J0D01*
G01*
X7200900Y-10845800D02*
G75*
G02*
X7277100Y-10845800I38100J0D01*
G01*
X7277100Y-12369800D02*
G75*
G02*
X7200900Y-12369800I-38100J0D01*
G01*
X7200900Y-12369800D02*
G75*
G02*
X7277100Y-12369800I38100J0D01*
G01*
X7302500Y-7581900D02*
G75*
G02*
X7226300Y-7581900I-38100J0D01*
G01*
X7226300Y-7581900D02*
G75*
G02*
X7302500Y-7581900I38100J0D01*
G01*
X7531100Y-10845800D02*
G75*
G02*
X7454900Y-10845800I-38100J0D01*
G01*
X7454900Y-10845800D02*
G75*
G02*
X7531100Y-10845800I38100J0D01*
G01*
X7531100Y-12369800D02*
G75*
G02*
X7454900Y-12369800I-38100J0D01*
G01*
X7454900Y-12369800D02*
G75*
G02*
X7531100Y-12369800I38100J0D01*
G01*
X7556500Y-7581900D02*
G75*
G02*
X7480300Y-7581900I-38100J0D01*
G01*
X7480300Y-7581900D02*
G75*
G02*
X7556500Y-7581900I38100J0D01*
G01*
X7785100Y-10845800D02*
G75*
G02*
X7708900Y-10845800I-38100J0D01*
G01*
X7708900Y-10845800D02*
G75*
G02*
X7785100Y-10845800I38100J0D01*
G01*
X7785100Y-12369800D02*
G75*
G02*
X7708900Y-12369800I-38100J0D01*
G01*
X7708900Y-12369800D02*
G75*
G02*
X7785100Y-12369800I38100J0D01*
G01*
X7810500Y-7581900D02*
G75*
G02*
X7734300Y-7581900I-38100J0D01*
G01*
X7734300Y-7581900D02*
G75*
G02*
X7810500Y-7581900I38100J0D01*
G01*
X8039100Y-10845800D02*
G75*
G02*
X7962900Y-10845800I-38100J0D01*
G01*
X7962900Y-10845800D02*
G75*
G02*
X8039100Y-10845800I38100J0D01*
G01*
X8039100Y-12369800D02*
G75*
G02*
X7962900Y-12369800I-38100J0D01*
G01*
X7962900Y-12369800D02*
G75*
G02*
X8039100Y-12369800I38100J0D01*
G01*
X8064500Y-7581900D02*
G75*
G02*
X7988300Y-7581900I-38100J0D01*
G01*
X7988300Y-7581900D02*
G75*
G02*
X8064500Y-7581900I38100J0D01*
G01*
X8293100Y-10845800D02*
G75*
G02*
X8216900Y-10845800I-38100J0D01*
G01*
X8216900Y-10845800D02*
G75*
G02*
X8293100Y-10845800I38100J0D01*
G01*
X8293100Y-12369800D02*
G75*
G02*
X8216900Y-12369800I-38100J0D01*
G01*
X8216900Y-12369800D02*
G75*
G02*
X8293100Y-12369800I38100J0D01*
G01*
X8318500Y-7581900D02*
G75*
G02*
X8242300Y-7581900I-38100J0D01*
G01*
X8242300Y-7581900D02*
G75*
G02*
X8318500Y-7581900I38100J0D01*
G01*
X8547100Y-10845800D02*
G75*
G02*
X8470900Y-10845800I-38100J0D01*
G01*
X8470900Y-10845800D02*
G75*
G02*
X8547100Y-10845800I38100J0D01*
G01*
X8547100Y-12369800D02*
G75*
G02*
X8470900Y-12369800I-38100J0D01*
G01*
X8470900Y-12369800D02*
G75*
G02*
X8547100Y-12369800I38100J0D01*
G01*
X8572500Y-7581900D02*
G75*
G02*
X8496300Y-7581900I-38100J0D01*
G01*
X8496300Y-7581900D02*
G75*
G02*
X8572500Y-7581900I38100J0D01*
G01*
X8801100Y-10845800D02*
G75*
G02*
X8724900Y-10845800I-38100J0D01*
G01*
X8724900Y-10845800D02*
G75*
G02*
X8801100Y-10845800I38100J0D01*
G01*
X8801100Y-12369800D02*
G75*
G02*
X8724900Y-12369800I-38100J0D01*
G01*
X8724900Y-12369800D02*
G75*
G02*
X8801100Y-12369800I38100J0D01*
G01*
X8826500Y-7581900D02*
G75*
G02*
X8750300Y-7581900I-38100J0D01*
G01*
X8750300Y-7581900D02*
G75*
G02*
X8826500Y-7581900I38100J0D01*
G01*
X9055100Y-10845800D02*
G75*
G02*
X8978900Y-10845800I-38100J0D01*
G01*
X8978900Y-10845800D02*
G75*
G02*
X9055100Y-10845800I38100J0D01*
G01*
X9055100Y-12369800D02*
G75*
G02*
X8978900Y-12369800I-38100J0D01*
G01*
X8978900Y-12369800D02*
G75*
G02*
X9055100Y-12369800I38100J0D01*
G01*
X9309100Y-10845800D02*
G75*
G02*
X9232900Y-10845800I-38100J0D01*
G01*
X9232900Y-10845800D02*
G75*
G02*
X9309100Y-10845800I38100J0D01*
G01*
X9309100Y-12369800D02*
G75*
G02*
X9232900Y-12369800I-38100J0D01*
G01*
X9232900Y-12369800D02*
G75*
G02*
X9309100Y-12369800I38100J0D01*
G01*
X9563100Y-10845800D02*
G75*
G02*
X9486900Y-10845800I-38100J0D01*
G01*
X9486900Y-10845800D02*
G75*
G02*
X9563100Y-10845800I38100J0D01*
G01*
X9563100Y-12369800D02*
G75*
G02*
X9486900Y-12369800I-38100J0D01*
G01*
X9486900Y-12369800D02*
G75*
G02*
X9563100Y-12369800I38100J0D01*
G01*
X9817100Y-10845800D02*
G75*
G02*
X9740900Y-10845800I-38100J0D01*
G01*
X9740900Y-10845800D02*
G75*
G02*
X9817100Y-10845800I38100J0D01*
G01*
X9817100Y-12369800D02*
G75*
G02*
X9740900Y-12369800I-38100J0D01*
G01*
X9740900Y-12369800D02*
G75*
G02*
X9817100Y-12369800I38100J0D01*
G01*
X9944100Y-7593100D02*
G75*
G02*
X9867900Y-7593100I-38100J0D01*
G01*
X9867900Y-7593100D02*
G75*
G02*
X9944100Y-7593100I38100J0D01*
G01*
X10071100Y-10845800D02*
G75*
G02*
X9994900Y-10845800I-38100J0D01*
G01*
X9994900Y-10845800D02*
G75*
G02*
X10071100Y-10845800I38100J0D01*
G01*
X10071100Y-12369800D02*
G75*
G02*
X9994900Y-12369800I-38100J0D01*
G01*
X9994900Y-12369800D02*
G75*
G02*
X10071100Y-12369800I38100J0D01*
G01*
X10198100Y-7593100D02*
G75*
G02*
X10121900Y-7593100I-38100J0D01*
G01*
X10121900Y-7593100D02*
G75*
G02*
X10198100Y-7593100I38100J0D01*
G01*
X10325100Y-10845800D02*
G75*
G02*
X10248900Y-10845800I-38100J0D01*
G01*
X10248900Y-10845800D02*
G75*
G02*
X10325100Y-10845800I38100J0D01*
G01*
X10325100Y-12369800D02*
G75*
G02*
X10248900Y-12369800I-38100J0D01*
G01*
X10248900Y-12369800D02*
G75*
G02*
X10325100Y-12369800I38100J0D01*
G01*
X10452100Y-7593100D02*
G75*
G02*
X10375900Y-7593100I-38100J0D01*
G01*
X10375900Y-7593100D02*
G75*
G02*
X10452100Y-7593100I38100J0D01*
G01*
X10579100Y-10845800D02*
G75*
G02*
X10502900Y-10845800I-38100J0D01*
G01*
X10502900Y-10845800D02*
G75*
G02*
X10579100Y-10845800I38100J0D01*
G01*
X10579100Y-12369800D02*
G75*
G02*
X10502900Y-12369800I-38100J0D01*
G01*
X10502900Y-12369800D02*
G75*
G02*
X10579100Y-12369800I38100J0D01*
G01*
X10706100Y-7593100D02*
G75*
G02*
X10629900Y-7593100I-38100J0D01*
G01*
X10629900Y-7593100D02*
G75*
G02*
X10706100Y-7593100I38100J0D01*
G01*
X10833100Y-10845800D02*
G75*
G02*
X10756900Y-10845800I-38100J0D01*
G01*
X10756900Y-10845800D02*
G75*
G02*
X10833100Y-10845800I38100J0D01*
G01*
X10833100Y-12369800D02*
G75*
G02*
X10756900Y-12369800I-38100J0D01*
G01*
X10756900Y-12369800D02*
G75*
G02*
X10833100Y-12369800I38100J0D01*
G01*
X10960100Y-7593100D02*
G75*
G02*
X10883900Y-7593100I-38100J0D01*
G01*
X10883900Y-7593100D02*
G75*
G02*
X10960100Y-7593100I38100J0D01*
G01*
X11087100Y-10845800D02*
G75*
G02*
X11010900Y-10845800I-38100J0D01*
G01*
X11010900Y-10845800D02*
G75*
G02*
X11087100Y-10845800I38100J0D01*
G01*
X11087100Y-12369800D02*
G75*
G02*
X11010900Y-12369800I-38100J0D01*
G01*
X11010900Y-12369800D02*
G75*
G02*
X11087100Y-12369800I38100J0D01*
G01*
X11214100Y-7593100D02*
G75*
G02*
X11137900Y-7593100I-38100J0D01*
G01*
X11137900Y-7593100D02*
G75*
G02*
X11214100Y-7593100I38100J0D01*
G01*
X11341100Y-10845800D02*
G75*
G02*
X11264900Y-10845800I-38100J0D01*
G01*
X11264900Y-10845800D02*
G75*
G02*
X11341100Y-10845800I38100J0D01*
G01*
X11341100Y-12369800D02*
G75*
G02*
X11264900Y-12369800I-38100J0D01*
G01*
X11264900Y-12369800D02*
G75*
G02*
X11341100Y-12369800I38100J0D01*
G01*
X11468100Y-7593100D02*
G75*
G02*
X11391900Y-7593100I-38100J0D01*
G01*
X11391900Y-7593100D02*
G75*
G02*
X11468100Y-7593100I38100J0D01*
G01*
X11595100Y-10845800D02*
G75*
G02*
X11518900Y-10845800I-38100J0D01*
G01*
X11518900Y-10845800D02*
G75*
G02*
X11595100Y-10845800I38100J0D01*
G01*
X11595100Y-12369800D02*
G75*
G02*
X11518900Y-12369800I-38100J0D01*
G01*
X11518900Y-12369800D02*
G75*
G02*
X11595100Y-12369800I38100J0D01*
G01*
X11722100Y-7593100D02*
G75*
G02*
X11645900Y-7593100I-38100J0D01*
G01*
X11645900Y-7593100D02*
G75*
G02*
X11722100Y-7593100I38100J0D01*
G01*
X11849100Y-10845800D02*
G75*
G02*
X11772900Y-10845800I-38100J0D01*
G01*
X11772900Y-10845800D02*
G75*
G02*
X11849100Y-10845800I38100J0D01*
G01*
X11849100Y-12369800D02*
G75*
G02*
X11772900Y-12369800I-38100J0D01*
G01*
X11772900Y-12369800D02*
G75*
G02*
X11849100Y-12369800I38100J0D01*
G01*
X11976100Y-7593100D02*
G75*
G02*
X11899900Y-7593100I-38100J0D01*
G01*
X11899900Y-7593100D02*
G75*
G02*
X11976100Y-7593100I38100J0D01*
G01*
X12103100Y-10845800D02*
G75*
G02*
X12026900Y-10845800I-38100J0D01*
G01*
X12026900Y-10845800D02*
G75*
G02*
X12103100Y-10845800I38100J0D01*
G01*
X12103100Y-12369800D02*
G75*
G02*
X12026900Y-12369800I-38100J0D01*
G01*
X12026900Y-12369800D02*
G75*
G02*
X12103100Y-12369800I38100J0D01*
G01*
X12230100Y-7593100D02*
G75*
G02*
X12153900Y-7593100I-38100J0D01*
G01*
X12153900Y-7593100D02*
G75*
G02*
X12230100Y-7593100I38100J0D01*
G01*
X12357100Y-10845800D02*
G75*
G02*
X12280900Y-10845800I-38100J0D01*
G01*
X12280900Y-10845800D02*
G75*
G02*
X12357100Y-10845800I38100J0D01*
G01*
X12357100Y-12369800D02*
G75*
G02*
X12280900Y-12369800I-38100J0D01*
G01*
X12280900Y-12369800D02*
G75*
G02*
X12357100Y-12369800I38100J0D01*
G01*
X13119100Y-7567700D02*
G75*
G02*
X13042900Y-7567700I-38100J0D01*
G01*
X13042900Y-7567700D02*
G75*
G02*
X13119100Y-7567700I38100J0D01*
G01*
X13373100Y-7567700D02*
G75*
G02*
X13296900Y-7567700I-38100J0D01*
G01*
X13296900Y-7567700D02*
G75*
G02*
X13373100Y-7567700I38100J0D01*
G01*
X13627100Y-7567700D02*
G75*
G02*
X13550900Y-7567700I-38100J0D01*
G01*
X13550900Y-7567700D02*
G75*
G02*
X13627100Y-7567700I38100J0D01*
G01*
X13881100Y-7567700D02*
G75*
G02*
X13804900Y-7567700I-38100J0D01*
G01*
X13804900Y-7567700D02*
G75*
G02*
X13881100Y-7567700I38100J0D01*
G01*
X14135100Y-7567700D02*
G75*
G02*
X14058900Y-7567700I-38100J0D01*
G01*
X14058900Y-7567700D02*
G75*
G02*
X14135100Y-7567700I38100J0D01*
G01*
X14389100Y-7567700D02*
G75*
G02*
X14312900Y-7567700I-38100J0D01*
G01*
X14312900Y-7567700D02*
G75*
G02*
X14389100Y-7567700I38100J0D01*
G01*
X14439900Y-9156700D02*
G75*
G02*
X14363700Y-9156700I-38100J0D01*
G01*
X14363700Y-9156700D02*
G75*
G02*
X14439900Y-9156700I38100J0D01*
G01*
X14439900Y-9410700D02*
G75*
G02*
X14363700Y-9410700I-38100J0D01*
G01*
X14363700Y-9410700D02*
G75*
G02*
X14439900Y-9410700I38100J0D01*
G01*
X14643100Y-7567700D02*
G75*
G02*
X14566900Y-7567700I-38100J0D01*
G01*
X14566900Y-7567700D02*
G75*
G02*
X14643100Y-7567700I38100J0D01*
G01*
X14693900Y-9156700D02*
G75*
G02*
X14617700Y-9156700I-38100J0D01*
G01*
X14617700Y-9156700D02*
G75*
G02*
X14693900Y-9156700I38100J0D01*
G01*
X14693900Y-9410700D02*
G75*
G02*
X14617700Y-9410700I-38100J0D01*
G01*
X14617700Y-9410700D02*
G75*
G02*
X14693900Y-9410700I38100J0D01*
G01*
X14897100Y-7567700D02*
G75*
G02*
X14820900Y-7567700I-38100J0D01*
G01*
X14820900Y-7567700D02*
G75*
G02*
X14897100Y-7567700I38100J0D01*
G01*
X15151100Y-7567700D02*
G75*
G02*
X15074900Y-7567700I-38100J0D01*
G01*
X15074900Y-7567700D02*
G75*
G02*
X15151100Y-7567700I38100J0D01*
G01*
X15405100Y-7567700D02*
G75*
G02*
X15328900Y-7567700I-38100J0D01*
G01*
X15328900Y-7567700D02*
G75*
G02*
X15405100Y-7567700I38100J0D01*
G01*
X16217900Y-9156700D02*
G75*
G02*
X16141700Y-9156700I-38100J0D01*
G01*
X16141700Y-9156700D02*
G75*
G02*
X16217900Y-9156700I38100J0D01*
G01*
X16217900Y-9410700D02*
G75*
G02*
X16141700Y-9410700I-38100J0D01*
G01*
X16141700Y-9410700D02*
G75*
G02*
X16217900Y-9410700I38100J0D01*
G01*
X16471900Y-9156700D02*
G75*
G02*
X16395700Y-9156700I-38100J0D01*
G01*
X16395700Y-9156700D02*
G75*
G02*
X16471900Y-9156700I38100J0D01*
G01*
X16471900Y-9410700D02*
G75*
G02*
X16395700Y-9410700I-38100J0D01*
G01*
X16395700Y-9410700D02*
G75*
G02*
X16471900Y-9410700I38100J0D01*
G01*
X2624300Y-2628500D02*
X2624300Y-2728500D01*
X2574300Y-2678500D02*
X2674300Y-2678500D01*
X2624300Y-2905500D02*
X2624300Y-3005500D01*
X2574300Y-2955500D02*
X2674300Y-2955500D01*
X2624300Y-3182500D02*
X2624300Y-3282500D01*
X2574300Y-3232500D02*
X2674300Y-3232500D01*
X2624300Y-3459500D02*
X2624300Y-3559500D01*
X2574300Y-3509500D02*
X2674300Y-3509500D01*
X2624300Y-3736500D02*
X2624300Y-3836500D01*
X2574300Y-3786500D02*
X2674300Y-3786500D01*
X2624300Y-4013500D02*
X2624300Y-4113500D01*
X2574300Y-4063500D02*
X2674300Y-4063500D01*
X2624300Y-4290500D02*
X2624300Y-4390500D01*
X2574300Y-4340500D02*
X2674300Y-4340500D01*
X2624300Y-4567500D02*
X2624300Y-4667500D01*
X2574300Y-4617500D02*
X2674300Y-4617500D01*
X2624300Y-4844500D02*
X2624300Y-4944500D01*
X2574300Y-4894500D02*
X2674300Y-4894500D01*
X2624300Y-5121500D02*
X2624300Y-5221500D01*
X2574300Y-5171500D02*
X2674300Y-5171500D01*
X2624300Y-5398500D02*
X2624300Y-5498500D01*
X2574300Y-5448500D02*
X2674300Y-5448500D01*
X2624300Y-5675500D02*
X2624300Y-5775500D01*
X2574300Y-5725500D02*
X2674300Y-5725500D01*
X2908300Y-2490000D02*
X2908300Y-2590000D01*
X2858300Y-2540000D02*
X2958300Y-2540000D01*
X2908300Y-2767000D02*
X2908300Y-2867000D01*
X2858300Y-2817000D02*
X2958300Y-2817000D01*
X2908300Y-3044000D02*
X2908300Y-3144000D01*
X2858300Y-3094000D02*
X2958300Y-3094000D01*
X2908300Y-3321000D02*
X2908300Y-3421000D01*
X2858300Y-3371000D02*
X2958300Y-3371000D01*
X2908300Y-3598000D02*
X2908300Y-3698000D01*
X2858300Y-3648000D02*
X2958300Y-3648000D01*
X2908300Y-3875000D02*
X2908300Y-3975000D01*
X2858300Y-3925000D02*
X2958300Y-3925000D01*
X2908300Y-4152000D02*
X2908300Y-4252000D01*
X2858300Y-4202000D02*
X2958300Y-4202000D01*
X2908300Y-4429000D02*
X2908300Y-4529000D01*
X2858300Y-4479000D02*
X2958300Y-4479000D01*
X2908300Y-4706000D02*
X2908300Y-4806000D01*
X2858300Y-4756000D02*
X2958300Y-4756000D01*
X2908300Y-4983000D02*
X2908300Y-5083000D01*
X2858300Y-5033000D02*
X2958300Y-5033000D01*
X2908300Y-5260000D02*
X2908300Y-5360000D01*
X2858300Y-5310000D02*
X2958300Y-5310000D01*
X2908300Y-5537000D02*
X2908300Y-5637000D01*
X2858300Y-5587000D02*
X2958300Y-5587000D01*
X2908300Y-5814000D02*
X2908300Y-5914000D01*
X2858300Y-5864000D02*
X2958300Y-5864000D01*
X3962400Y-2375700D02*
X3962400Y-2475700D01*
X3912400Y-2425700D02*
X4012400Y-2425700D01*
X3962400Y-2629700D02*
X3962400Y-2729700D01*
X3912400Y-2679700D02*
X4012400Y-2679700D01*
X3962400Y-2883700D02*
X3962400Y-2983700D01*
X3912400Y-2933700D02*
X4012400Y-2933700D01*
X5067300Y-9589300D02*
X5067300Y-9689300D01*
X5017300Y-9639300D02*
X5117300Y-9639300D01*
X5567300Y-9589300D02*
X5567300Y-9689300D01*
X5517300Y-9639300D02*
X5617300Y-9639300D01*
X5600700Y-11849900D02*
X5600700Y-11949900D01*
X5550700Y-11899900D02*
X5650700Y-11899900D01*
X6017300Y-9589300D02*
X6017300Y-9689300D01*
X5967300Y-9639300D02*
X6067300Y-9639300D01*
X6502400Y-2921800D02*
X6502400Y-3021800D01*
X6452400Y-2971800D02*
X6552400Y-2971800D01*
X6502400Y-3175800D02*
X6502400Y-3275800D01*
X6452400Y-3225800D02*
X6552400Y-3225800D01*
X6502400Y-3429800D02*
X6502400Y-3529800D01*
X6452400Y-3479800D02*
X6552400Y-3479800D01*
X7327900Y-9538500D02*
X7327900Y-9638500D01*
X7277900Y-9588500D02*
X7377900Y-9588500D01*
X7827900Y-9538500D02*
X7827900Y-9638500D01*
X7777900Y-9588500D02*
X7877900Y-9588500D01*
X7835900Y-3607600D02*
X7835900Y-3707600D01*
X7785900Y-3657600D02*
X7885900Y-3657600D01*
X7835900Y-3988600D02*
X7835900Y-4088600D01*
X7785900Y-4038600D02*
X7885900Y-4038600D01*
X8089900Y-3607600D02*
X8089900Y-3707600D01*
X8039900Y-3657600D02*
X8139900Y-3657600D01*
X8089900Y-3988600D02*
X8089900Y-4088600D01*
X8039900Y-4038600D02*
X8139900Y-4038600D01*
X8277900Y-9538500D02*
X8277900Y-9638500D01*
X8227900Y-9588500D02*
X8327900Y-9588500D01*
X9906000Y-4053600D02*
X9906000Y-4153600D01*
X9856000Y-4103600D02*
X9956000Y-4103600D01*
X9906000Y-4307600D02*
X9906000Y-4407600D01*
X9856000Y-4357600D02*
X9956000Y-4357600D01*
X9906000Y-4561600D02*
X9906000Y-4661600D01*
X9856000Y-4611600D02*
X9956000Y-4611600D01*
X10642600Y-9449600D02*
X10642600Y-9549600D01*
X10592600Y-9499600D02*
X10692600Y-9499600D01*
X11137900Y-4166400D02*
X11137900Y-4266400D01*
X11087900Y-4216400D02*
X11187900Y-4216400D01*
X11137900Y-4420400D02*
X11137900Y-4520400D01*
X11087900Y-4470400D02*
X11187900Y-4470400D01*
X11137900Y-4674400D02*
X11137900Y-4774400D01*
X11087900Y-4724400D02*
X11187900Y-4724400D01*
X11142600Y-9449600D02*
X11142600Y-9549600D01*
X11092600Y-9499600D02*
X11192600Y-9499600D01*
X11592600Y-9449600D02*
X11592600Y-9549600D01*
X11542600Y-9499600D02*
X11642600Y-9499600D01*
X12776200Y-4574300D02*
X12776200Y-4674300D01*
X12726200Y-4624300D02*
X12826200Y-4624300D01*
X12776200Y-4828300D02*
X12776200Y-4928300D01*
X12726200Y-4878300D02*
X12826200Y-4878300D01*
X12776200Y-5082300D02*
X12776200Y-5182300D01*
X12726200Y-5132300D02*
X12826200Y-5132300D01*
X12865100Y-9424200D02*
X12865100Y-9524200D01*
X12815100Y-9474200D02*
X12915100Y-9474200D01*
X13415100Y-9424200D02*
X13415100Y-9524200D01*
X13365100Y-9474200D02*
X13465100Y-9474200D01*
X13652500Y-12040400D02*
X13652500Y-12140400D01*
X13602500Y-12090400D02*
X13702500Y-12090400D01*
X13865100Y-9424200D02*
X13865100Y-9524200D01*
X13815100Y-9474200D02*
X13915100Y-9474200D01*
X13931900Y-4356900D02*
X13931900Y-4456900D01*
X13881900Y-4406900D02*
X13981900Y-4406900D01*
X13931900Y-4610900D02*
X13931900Y-4710900D01*
X13881900Y-4660900D02*
X13981900Y-4660900D01*
X13931900Y-4864900D02*
X13931900Y-4964900D01*
X13881900Y-4914900D02*
X13981900Y-4914900D01*
X14922500Y-5552200D02*
X14922500Y-5652200D01*
X14872500Y-5602200D02*
X14972500Y-5602200D01*
X14922500Y-5806200D02*
X14922500Y-5906200D01*
X14872500Y-5856200D02*
X14972500Y-5856200D01*
X14922500Y-6060200D02*
X14922500Y-6160200D01*
X14872500Y-6110200D02*
X14972500Y-6110200D01*
X15972000Y-2503900D02*
X15972000Y-2603900D01*
X15922000Y-2553900D02*
X16022000Y-2553900D01*
X15972000Y-2780900D02*
X15972000Y-2880900D01*
X15922000Y-2830900D02*
X16022000Y-2830900D01*
X15972000Y-3057900D02*
X15972000Y-3157900D01*
X15922000Y-3107900D02*
X16022000Y-3107900D01*
X15972000Y-3334900D02*
X15972000Y-3434900D01*
X15922000Y-3384900D02*
X16022000Y-3384900D01*
X15972000Y-3611900D02*
X15972000Y-3711900D01*
X15922000Y-3661900D02*
X16022000Y-3661900D01*
X15972000Y-3888900D02*
X15972000Y-3988900D01*
X15922000Y-3938900D02*
X16022000Y-3938900D01*
X15972000Y-4165900D02*
X15972000Y-4265900D01*
X15922000Y-4215900D02*
X16022000Y-4215900D01*
X15972000Y-4442900D02*
X15972000Y-4542900D01*
X15922000Y-4492900D02*
X16022000Y-4492900D01*
X15972000Y-4719900D02*
X15972000Y-4819900D01*
X15922000Y-4769900D02*
X16022000Y-4769900D01*
X15972000Y-4996900D02*
X15972000Y-5096900D01*
X15922000Y-5046900D02*
X16022000Y-5046900D01*
X15972000Y-5273900D02*
X15972000Y-5373900D01*
X15922000Y-5323900D02*
X16022000Y-5323900D01*
X15972000Y-5550900D02*
X15972000Y-5650900D01*
X15922000Y-5600900D02*
X16022000Y-5600900D01*
X15972000Y-5827900D02*
X15972000Y-5927900D01*
X15922000Y-5877900D02*
X16022000Y-5877900D01*
X16256000Y-2642400D02*
X16256000Y-2742400D01*
X16206000Y-2692400D02*
X16306000Y-2692400D01*
X16256000Y-2919400D02*
X16256000Y-3019400D01*
X16206000Y-2969400D02*
X16306000Y-2969400D01*
X16256000Y-3196400D02*
X16256000Y-3296400D01*
X16206000Y-3246400D02*
X16306000Y-3246400D01*
X16256000Y-3473400D02*
X16256000Y-3573400D01*
X16206000Y-3523400D02*
X16306000Y-3523400D01*
X16256000Y-3750400D02*
X16256000Y-3850400D01*
X16206000Y-3800400D02*
X16306000Y-3800400D01*
X16256000Y-4027400D02*
X16256000Y-4127400D01*
X16206000Y-4077400D02*
X16306000Y-4077400D01*
X16256000Y-4304400D02*
X16256000Y-4404400D01*
X16206000Y-4354400D02*
X16306000Y-4354400D01*
X16256000Y-4581400D02*
X16256000Y-4681400D01*
X16206000Y-4631400D02*
X16306000Y-4631400D01*
X16256000Y-4858400D02*
X16256000Y-4958400D01*
X16206000Y-4908400D02*
X16306000Y-4908400D01*
X16256000Y-5135400D02*
X16256000Y-5235400D01*
X16206000Y-5185400D02*
X16306000Y-5185400D01*
X16256000Y-5412400D02*
X16256000Y-5512400D01*
X16206000Y-5462400D02*
X16306000Y-5462400D01*
X16256000Y-5689400D02*
X16256000Y-5789400D01*
X16206000Y-5739400D02*
X16306000Y-5739400D01*
D12*
X2991438Y-1960138D02*
X2991438Y-1733862D01*
X2765162Y-1733862D01*
X2765162Y-1960138D01*
X2991438Y-1960138D01*
X2991438Y-6670138D02*
X2991438Y-6443862D01*
X2765162Y-6443862D01*
X2765162Y-6670138D01*
X2991438Y-6670138D01*
X16115138Y-1974038D02*
X16115138Y-1747762D01*
X15888862Y-1747762D01*
X15888862Y-1974038D01*
X16115138Y-1974038D01*
X16115138Y-6684038D02*
X16115138Y-6457762D01*
X15888862Y-6457762D01*
X15888862Y-6684038D01*
X16115138Y-6684038D01*
D11*
X2376677Y-13816584D02*
X2376677Y-13616584D01*
X2376677Y-13616584D02*
X2424296Y-13616584D01*
X2424296Y-13616584D02*
X2452867Y-13626108D01*
X2452867Y-13626108D02*
X2471915Y-13645155D01*
X2471915Y-13645155D02*
X2481439Y-13664203D01*
X2481439Y-13664203D02*
X2490963Y-13702298D01*
X2490963Y-13702298D02*
X2490963Y-13730869D01*
X2490963Y-13730869D02*
X2481439Y-13768965D01*
X2481439Y-13768965D02*
X2471915Y-13788012D01*
X2471915Y-13788012D02*
X2452867Y-13807060D01*
X2452867Y-13807060D02*
X2424296Y-13816584D01*
X2424296Y-13816584D02*
X2376677Y-13816584D01*
X2576677Y-13816584D02*
X2576677Y-13683250D01*
X2576677Y-13721346D02*
X2586201Y-13702298D01*
X2586201Y-13702298D02*
X2595724Y-13692774D01*
X2595724Y-13692774D02*
X2614772Y-13683250D01*
X2614772Y-13683250D02*
X2633820Y-13683250D01*
X2700486Y-13816584D02*
X2700486Y-13683250D01*
X2700486Y-13616584D02*
X2690963Y-13626108D01*
X2690963Y-13626108D02*
X2700486Y-13635631D01*
X2700486Y-13635631D02*
X2710010Y-13626108D01*
X2710010Y-13626108D02*
X2700486Y-13616584D01*
X2700486Y-13616584D02*
X2700486Y-13635631D01*
X2824296Y-13816584D02*
X2805248Y-13807060D01*
X2805248Y-13807060D02*
X2795724Y-13788012D01*
X2795724Y-13788012D02*
X2795724Y-13616584D01*
X2929058Y-13816584D02*
X2910010Y-13807060D01*
X2910010Y-13807060D02*
X2900486Y-13788012D01*
X2900486Y-13788012D02*
X2900486Y-13616584D01*
X3157629Y-13816584D02*
X3157629Y-13616584D01*
X3157629Y-13616584D02*
X3224296Y-13759441D01*
X3224296Y-13759441D02*
X3290962Y-13616584D01*
X3290962Y-13616584D02*
X3290962Y-13816584D01*
X3471915Y-13816584D02*
X3471915Y-13711822D01*
X3471915Y-13711822D02*
X3462391Y-13692774D01*
X3462391Y-13692774D02*
X3443343Y-13683250D01*
X3443343Y-13683250D02*
X3405248Y-13683250D01*
X3405248Y-13683250D02*
X3386201Y-13692774D01*
X3471915Y-13807060D02*
X3452867Y-13816584D01*
X3452867Y-13816584D02*
X3405248Y-13816584D01*
X3405248Y-13816584D02*
X3386201Y-13807060D01*
X3386201Y-13807060D02*
X3376677Y-13788012D01*
X3376677Y-13788012D02*
X3376677Y-13768965D01*
X3376677Y-13768965D02*
X3386201Y-13749917D01*
X3386201Y-13749917D02*
X3405248Y-13740393D01*
X3405248Y-13740393D02*
X3452867Y-13740393D01*
X3452867Y-13740393D02*
X3471915Y-13730869D01*
X3567153Y-13683250D02*
X3567153Y-13883250D01*
X3567153Y-13692774D02*
X3586201Y-13683250D01*
X3586201Y-13683250D02*
X3624296Y-13683250D01*
X3624296Y-13683250D02*
X3643343Y-13692774D01*
X3643343Y-13692774D02*
X3652867Y-13702298D01*
X3652867Y-13702298D02*
X3662391Y-13721346D01*
X3662391Y-13721346D02*
X3662391Y-13778488D01*
X3662391Y-13778488D02*
X3652867Y-13797536D01*
X3652867Y-13797536D02*
X3643343Y-13807060D01*
X3643343Y-13807060D02*
X3624296Y-13816584D01*
X3624296Y-13816584D02*
X3586201Y-13816584D01*
X3586201Y-13816584D02*
X3567153Y-13807060D01*
X3748105Y-13797536D02*
X3757629Y-13807060D01*
X3757629Y-13807060D02*
X3748105Y-13816584D01*
X3748105Y-13816584D02*
X3738582Y-13807060D01*
X3738582Y-13807060D02*
X3748105Y-13797536D01*
X3748105Y-13797536D02*
X3748105Y-13816584D01*
X3748105Y-13692774D02*
X3757629Y-13702298D01*
X3757629Y-13702298D02*
X3748105Y-13711822D01*
X3748105Y-13711822D02*
X3738582Y-13702298D01*
X3738582Y-13702298D02*
X3748105Y-13692774D01*
X3748105Y-13692774D02*
X3748105Y-13711822D01*
D10*
X2075900Y-14125100D02*
X2115900Y-14165100D01*
X2115900Y-14125100D02*
X2075900Y-14165100D01*
D11*
X2414772Y-14036584D02*
X2433820Y-14036584D01*
X2433820Y-14036584D02*
X2452867Y-14046108D01*
X2452867Y-14046108D02*
X2462391Y-14055631D01*
X2462391Y-14055631D02*
X2471915Y-14074679D01*
X2471915Y-14074679D02*
X2481439Y-14112774D01*
X2481439Y-14112774D02*
X2481439Y-14160393D01*
X2481439Y-14160393D02*
X2471915Y-14198488D01*
X2471915Y-14198488D02*
X2462391Y-14217536D01*
X2462391Y-14217536D02*
X2452867Y-14227060D01*
X2452867Y-14227060D02*
X2433820Y-14236584D01*
X2433820Y-14236584D02*
X2414772Y-14236584D01*
X2414772Y-14236584D02*
X2395724Y-14227060D01*
X2395724Y-14227060D02*
X2386201Y-14217536D01*
X2386201Y-14217536D02*
X2376677Y-14198488D01*
X2376677Y-14198488D02*
X2367153Y-14160393D01*
X2367153Y-14160393D02*
X2367153Y-14112774D01*
X2367153Y-14112774D02*
X2376677Y-14074679D01*
X2376677Y-14074679D02*
X2386201Y-14055631D01*
X2386201Y-14055631D02*
X2395724Y-14046108D01*
X2395724Y-14046108D02*
X2414772Y-14036584D01*
X2567153Y-14217536D02*
X2576677Y-14227060D01*
X2576677Y-14227060D02*
X2567153Y-14236584D01*
X2567153Y-14236584D02*
X2557629Y-14227060D01*
X2557629Y-14227060D02*
X2567153Y-14217536D01*
X2567153Y-14217536D02*
X2567153Y-14236584D01*
X2748105Y-14103250D02*
X2748105Y-14236584D01*
X2700486Y-14027060D02*
X2652867Y-14169917D01*
X2652867Y-14169917D02*
X2776677Y-14169917D01*
X2890962Y-14036584D02*
X2910010Y-14036584D01*
X2910010Y-14036584D02*
X2929058Y-14046108D01*
X2929058Y-14046108D02*
X2938582Y-14055631D01*
X2938582Y-14055631D02*
X2948105Y-14074679D01*
X2948105Y-14074679D02*
X2957629Y-14112774D01*
X2957629Y-14112774D02*
X2957629Y-14160393D01*
X2957629Y-14160393D02*
X2948105Y-14198488D01*
X2948105Y-14198488D02*
X2938582Y-14217536D01*
X2938582Y-14217536D02*
X2929058Y-14227060D01*
X2929058Y-14227060D02*
X2910010Y-14236584D01*
X2910010Y-14236584D02*
X2890962Y-14236584D01*
X2890962Y-14236584D02*
X2871915Y-14227060D01*
X2871915Y-14227060D02*
X2862391Y-14217536D01*
X2862391Y-14217536D02*
X2852867Y-14198488D01*
X2852867Y-14198488D02*
X2843343Y-14160393D01*
X2843343Y-14160393D02*
X2843343Y-14112774D01*
X2843343Y-14112774D02*
X2852867Y-14074679D01*
X2852867Y-14074679D02*
X2862391Y-14055631D01*
X2862391Y-14055631D02*
X2871915Y-14046108D01*
X2871915Y-14046108D02*
X2890962Y-14036584D01*
X3081439Y-14036584D02*
X3100486Y-14036584D01*
X3100486Y-14036584D02*
X3119534Y-14046108D01*
X3119534Y-14046108D02*
X3129058Y-14055631D01*
X3129058Y-14055631D02*
X3138582Y-14074679D01*
X3138582Y-14074679D02*
X3148105Y-14112774D01*
X3148105Y-14112774D02*
X3148105Y-14160393D01*
X3148105Y-14160393D02*
X3138582Y-14198488D01*
X3138582Y-14198488D02*
X3129058Y-14217536D01*
X3129058Y-14217536D02*
X3119534Y-14227060D01*
X3119534Y-14227060D02*
X3100486Y-14236584D01*
X3100486Y-14236584D02*
X3081439Y-14236584D01*
X3081439Y-14236584D02*
X3062391Y-14227060D01*
X3062391Y-14227060D02*
X3052867Y-14217536D01*
X3052867Y-14217536D02*
X3043343Y-14198488D01*
X3043343Y-14198488D02*
X3033820Y-14160393D01*
X3033820Y-14160393D02*
X3033820Y-14112774D01*
X3033820Y-14112774D02*
X3043343Y-14074679D01*
X3043343Y-14074679D02*
X3052867Y-14055631D01*
X3052867Y-14055631D02*
X3062391Y-14046108D01*
X3062391Y-14046108D02*
X3081439Y-14036584D01*
X3233820Y-14236584D02*
X3233820Y-14103250D01*
X3233820Y-14122298D02*
X3243343Y-14112774D01*
X3243343Y-14112774D02*
X3262391Y-14103250D01*
X3262391Y-14103250D02*
X3290963Y-14103250D01*
X3290963Y-14103250D02*
X3310010Y-14112774D01*
X3310010Y-14112774D02*
X3319534Y-14131822D01*
X3319534Y-14131822D02*
X3319534Y-14236584D01*
X3319534Y-14131822D02*
X3329058Y-14112774D01*
X3329058Y-14112774D02*
X3348105Y-14103250D01*
X3348105Y-14103250D02*
X3376677Y-14103250D01*
X3376677Y-14103250D02*
X3395724Y-14112774D01*
X3395724Y-14112774D02*
X3405248Y-14131822D01*
X3405248Y-14131822D02*
X3405248Y-14236584D01*
X3500486Y-14236584D02*
X3500486Y-14103250D01*
X3500486Y-14122298D02*
X3510010Y-14112774D01*
X3510010Y-14112774D02*
X3529058Y-14103250D01*
X3529058Y-14103250D02*
X3557629Y-14103250D01*
X3557629Y-14103250D02*
X3576677Y-14112774D01*
X3576677Y-14112774D02*
X3586201Y-14131822D01*
X3586201Y-14131822D02*
X3586201Y-14236584D01*
X3586201Y-14131822D02*
X3595724Y-14112774D01*
X3595724Y-14112774D02*
X3614772Y-14103250D01*
X3614772Y-14103250D02*
X3643343Y-14103250D01*
X3643343Y-14103250D02*
X3662391Y-14112774D01*
X3662391Y-14112774D02*
X3671915Y-14131822D01*
X3671915Y-14131822D02*
X3671915Y-14236584D01*
X4062391Y-14027060D02*
X3890963Y-14284203D01*
X4319534Y-14036584D02*
X4338582Y-14036584D01*
X4338582Y-14036584D02*
X4357629Y-14046108D01*
X4357629Y-14046108D02*
X4367153Y-14055631D01*
X4367153Y-14055631D02*
X4376677Y-14074679D01*
X4376677Y-14074679D02*
X4386201Y-14112774D01*
X4386201Y-14112774D02*
X4386201Y-14160393D01*
X4386201Y-14160393D02*
X4376677Y-14198488D01*
X4376677Y-14198488D02*
X4367153Y-14217536D01*
X4367153Y-14217536D02*
X4357629Y-14227060D01*
X4357629Y-14227060D02*
X4338582Y-14236584D01*
X4338582Y-14236584D02*
X4319534Y-14236584D01*
X4319534Y-14236584D02*
X4300487Y-14227060D01*
X4300487Y-14227060D02*
X4290963Y-14217536D01*
X4290963Y-14217536D02*
X4281439Y-14198488D01*
X4281439Y-14198488D02*
X4271915Y-14160393D01*
X4271915Y-14160393D02*
X4271915Y-14112774D01*
X4271915Y-14112774D02*
X4281439Y-14074679D01*
X4281439Y-14074679D02*
X4290963Y-14055631D01*
X4290963Y-14055631D02*
X4300487Y-14046108D01*
X4300487Y-14046108D02*
X4319534Y-14036584D01*
X4471915Y-14217536D02*
X4481439Y-14227060D01*
X4481439Y-14227060D02*
X4471915Y-14236584D01*
X4471915Y-14236584D02*
X4462391Y-14227060D01*
X4462391Y-14227060D02*
X4471915Y-14217536D01*
X4471915Y-14217536D02*
X4471915Y-14236584D01*
X4605248Y-14036584D02*
X4624296Y-14036584D01*
X4624296Y-14036584D02*
X4643344Y-14046108D01*
X4643344Y-14046108D02*
X4652868Y-14055631D01*
X4652868Y-14055631D02*
X4662391Y-14074679D01*
X4662391Y-14074679D02*
X4671915Y-14112774D01*
X4671915Y-14112774D02*
X4671915Y-14160393D01*
X4671915Y-14160393D02*
X4662391Y-14198488D01*
X4662391Y-14198488D02*
X4652868Y-14217536D01*
X4652868Y-14217536D02*
X4643344Y-14227060D01*
X4643344Y-14227060D02*
X4624296Y-14236584D01*
X4624296Y-14236584D02*
X4605248Y-14236584D01*
X4605248Y-14236584D02*
X4586201Y-14227060D01*
X4586201Y-14227060D02*
X4576677Y-14217536D01*
X4576677Y-14217536D02*
X4567153Y-14198488D01*
X4567153Y-14198488D02*
X4557629Y-14160393D01*
X4557629Y-14160393D02*
X4557629Y-14112774D01*
X4557629Y-14112774D02*
X4567153Y-14074679D01*
X4567153Y-14074679D02*
X4576677Y-14055631D01*
X4576677Y-14055631D02*
X4586201Y-14046108D01*
X4586201Y-14046108D02*
X4605248Y-14036584D01*
X4862391Y-14236584D02*
X4748106Y-14236584D01*
X4805248Y-14236584D02*
X4805248Y-14036584D01*
X4805248Y-14036584D02*
X4786201Y-14065155D01*
X4786201Y-14065155D02*
X4767153Y-14084203D01*
X4767153Y-14084203D02*
X4748106Y-14093727D01*
X5043344Y-14036584D02*
X4948106Y-14036584D01*
X4948106Y-14036584D02*
X4938582Y-14131822D01*
X4938582Y-14131822D02*
X4948106Y-14122298D01*
X4948106Y-14122298D02*
X4967153Y-14112774D01*
X4967153Y-14112774D02*
X5014772Y-14112774D01*
X5014772Y-14112774D02*
X5033820Y-14122298D01*
X5033820Y-14122298D02*
X5043344Y-14131822D01*
X5043344Y-14131822D02*
X5052868Y-14150869D01*
X5052868Y-14150869D02*
X5052868Y-14198488D01*
X5052868Y-14198488D02*
X5043344Y-14217536D01*
X5043344Y-14217536D02*
X5033820Y-14227060D01*
X5033820Y-14227060D02*
X5014772Y-14236584D01*
X5014772Y-14236584D02*
X4967153Y-14236584D01*
X4967153Y-14236584D02*
X4948106Y-14227060D01*
X4948106Y-14227060D02*
X4938582Y-14217536D01*
X5119534Y-14036584D02*
X5252868Y-14036584D01*
X5252868Y-14036584D02*
X5167153Y-14236584D01*
X5319534Y-14036584D02*
X5319534Y-14074679D01*
X5395725Y-14036584D02*
X5395725Y-14074679D01*
X5690963Y-14312774D02*
X5681439Y-14303250D01*
X5681439Y-14303250D02*
X5662391Y-14274679D01*
X5662391Y-14274679D02*
X5652868Y-14255631D01*
X5652868Y-14255631D02*
X5643344Y-14227060D01*
X5643344Y-14227060D02*
X5633820Y-14179441D01*
X5633820Y-14179441D02*
X5633820Y-14141346D01*
X5633820Y-14141346D02*
X5643344Y-14093727D01*
X5643344Y-14093727D02*
X5652868Y-14065155D01*
X5652868Y-14065155D02*
X5662391Y-14046108D01*
X5662391Y-14046108D02*
X5681439Y-14017536D01*
X5681439Y-14017536D02*
X5690963Y-14008012D01*
X5852868Y-14103250D02*
X5852868Y-14236584D01*
X5805248Y-14027060D02*
X5757629Y-14169917D01*
X5757629Y-14169917D02*
X5881439Y-14169917D01*
X6043344Y-14103250D02*
X6043344Y-14236584D01*
X5995725Y-14027060D02*
X5948106Y-14169917D01*
X5948106Y-14169917D02*
X6071915Y-14169917D01*
X6300487Y-14236584D02*
X6300487Y-14036584D01*
X6386201Y-14236584D02*
X6386201Y-14131822D01*
X6386201Y-14131822D02*
X6376677Y-14112774D01*
X6376677Y-14112774D02*
X6357630Y-14103250D01*
X6357630Y-14103250D02*
X6329058Y-14103250D01*
X6329058Y-14103250D02*
X6310010Y-14112774D01*
X6310010Y-14112774D02*
X6300487Y-14122298D01*
X6510010Y-14236584D02*
X6490963Y-14227060D01*
X6490963Y-14227060D02*
X6481439Y-14217536D01*
X6481439Y-14217536D02*
X6471915Y-14198488D01*
X6471915Y-14198488D02*
X6471915Y-14141346D01*
X6471915Y-14141346D02*
X6481439Y-14122298D01*
X6481439Y-14122298D02*
X6490963Y-14112774D01*
X6490963Y-14112774D02*
X6510010Y-14103250D01*
X6510010Y-14103250D02*
X6538582Y-14103250D01*
X6538582Y-14103250D02*
X6557630Y-14112774D01*
X6557630Y-14112774D02*
X6567153Y-14122298D01*
X6567153Y-14122298D02*
X6576677Y-14141346D01*
X6576677Y-14141346D02*
X6576677Y-14198488D01*
X6576677Y-14198488D02*
X6567153Y-14217536D01*
X6567153Y-14217536D02*
X6557630Y-14227060D01*
X6557630Y-14227060D02*
X6538582Y-14236584D01*
X6538582Y-14236584D02*
X6510010Y-14236584D01*
X6690963Y-14236584D02*
X6671915Y-14227060D01*
X6671915Y-14227060D02*
X6662391Y-14208012D01*
X6662391Y-14208012D02*
X6662391Y-14036584D01*
X6843344Y-14227060D02*
X6824296Y-14236584D01*
X6824296Y-14236584D02*
X6786201Y-14236584D01*
X6786201Y-14236584D02*
X6767153Y-14227060D01*
X6767153Y-14227060D02*
X6757630Y-14208012D01*
X6757630Y-14208012D02*
X6757630Y-14131822D01*
X6757630Y-14131822D02*
X6767153Y-14112774D01*
X6767153Y-14112774D02*
X6786201Y-14103250D01*
X6786201Y-14103250D02*
X6824296Y-14103250D01*
X6824296Y-14103250D02*
X6843344Y-14112774D01*
X6843344Y-14112774D02*
X6852868Y-14131822D01*
X6852868Y-14131822D02*
X6852868Y-14150869D01*
X6852868Y-14150869D02*
X6757630Y-14169917D01*
X6929058Y-14227060D02*
X6948106Y-14236584D01*
X6948106Y-14236584D02*
X6986201Y-14236584D01*
X6986201Y-14236584D02*
X7005249Y-14227060D01*
X7005249Y-14227060D02*
X7014772Y-14208012D01*
X7014772Y-14208012D02*
X7014772Y-14198488D01*
X7014772Y-14198488D02*
X7005249Y-14179441D01*
X7005249Y-14179441D02*
X6986201Y-14169917D01*
X6986201Y-14169917D02*
X6957630Y-14169917D01*
X6957630Y-14169917D02*
X6938582Y-14160393D01*
X6938582Y-14160393D02*
X6929058Y-14141346D01*
X6929058Y-14141346D02*
X6929058Y-14131822D01*
X6929058Y-14131822D02*
X6938582Y-14112774D01*
X6938582Y-14112774D02*
X6957630Y-14103250D01*
X6957630Y-14103250D02*
X6986201Y-14103250D01*
X6986201Y-14103250D02*
X7005249Y-14112774D01*
X7081439Y-14312774D02*
X7090963Y-14303250D01*
X7090963Y-14303250D02*
X7110011Y-14274679D01*
X7110011Y-14274679D02*
X7119534Y-14255631D01*
X7119534Y-14255631D02*
X7129058Y-14227060D01*
X7129058Y-14227060D02*
X7138582Y-14179441D01*
X7138582Y-14179441D02*
X7138582Y-14141346D01*
X7138582Y-14141346D02*
X7129058Y-14093727D01*
X7129058Y-14093727D02*
X7119534Y-14065155D01*
X7119534Y-14065155D02*
X7110011Y-14046108D01*
X7110011Y-14046108D02*
X7090963Y-14017536D01*
X7090963Y-14017536D02*
X7081439Y-14008012D01*
D10*
X2115900Y-14409100D02*
G75*
G02*
X2039700Y-14409100I-38100J0D01*
G01*
X2039700Y-14409100D02*
G75*
G02*
X2115900Y-14409100I38100J0D01*
G01*
D11*
X2414772Y-14300584D02*
X2433820Y-14300584D01*
X2433820Y-14300584D02*
X2452867Y-14310108D01*
X2452867Y-14310108D02*
X2462391Y-14319631D01*
X2462391Y-14319631D02*
X2471915Y-14338679D01*
X2471915Y-14338679D02*
X2481439Y-14376774D01*
X2481439Y-14376774D02*
X2481439Y-14424393D01*
X2481439Y-14424393D02*
X2471915Y-14462488D01*
X2471915Y-14462488D02*
X2462391Y-14481536D01*
X2462391Y-14481536D02*
X2452867Y-14491060D01*
X2452867Y-14491060D02*
X2433820Y-14500584D01*
X2433820Y-14500584D02*
X2414772Y-14500584D01*
X2414772Y-14500584D02*
X2395724Y-14491060D01*
X2395724Y-14491060D02*
X2386201Y-14481536D01*
X2386201Y-14481536D02*
X2376677Y-14462488D01*
X2376677Y-14462488D02*
X2367153Y-14424393D01*
X2367153Y-14424393D02*
X2367153Y-14376774D01*
X2367153Y-14376774D02*
X2376677Y-14338679D01*
X2376677Y-14338679D02*
X2386201Y-14319631D01*
X2386201Y-14319631D02*
X2395724Y-14310108D01*
X2395724Y-14310108D02*
X2414772Y-14300584D01*
X2567153Y-14481536D02*
X2576677Y-14491060D01*
X2576677Y-14491060D02*
X2567153Y-14500584D01*
X2567153Y-14500584D02*
X2557629Y-14491060D01*
X2557629Y-14491060D02*
X2567153Y-14481536D01*
X2567153Y-14481536D02*
X2567153Y-14500584D01*
X2643344Y-14300584D02*
X2776677Y-14300584D01*
X2776677Y-14300584D02*
X2690963Y-14500584D01*
X2938582Y-14300584D02*
X2900486Y-14300584D01*
X2900486Y-14300584D02*
X2881439Y-14310108D01*
X2881439Y-14310108D02*
X2871915Y-14319631D01*
X2871915Y-14319631D02*
X2852867Y-14348203D01*
X2852867Y-14348203D02*
X2843343Y-14386298D01*
X2843343Y-14386298D02*
X2843343Y-14462488D01*
X2843343Y-14462488D02*
X2852867Y-14481536D01*
X2852867Y-14481536D02*
X2862391Y-14491060D01*
X2862391Y-14491060D02*
X2881439Y-14500584D01*
X2881439Y-14500584D02*
X2919534Y-14500584D01*
X2919534Y-14500584D02*
X2938582Y-14491060D01*
X2938582Y-14491060D02*
X2948105Y-14481536D01*
X2948105Y-14481536D02*
X2957629Y-14462488D01*
X2957629Y-14462488D02*
X2957629Y-14414869D01*
X2957629Y-14414869D02*
X2948105Y-14395822D01*
X2948105Y-14395822D02*
X2938582Y-14386298D01*
X2938582Y-14386298D02*
X2919534Y-14376774D01*
X2919534Y-14376774D02*
X2881439Y-14376774D01*
X2881439Y-14376774D02*
X2862391Y-14386298D01*
X2862391Y-14386298D02*
X2852867Y-14395822D01*
X2852867Y-14395822D02*
X2843343Y-14414869D01*
X3033820Y-14319631D02*
X3043343Y-14310108D01*
X3043343Y-14310108D02*
X3062391Y-14300584D01*
X3062391Y-14300584D02*
X3110010Y-14300584D01*
X3110010Y-14300584D02*
X3129058Y-14310108D01*
X3129058Y-14310108D02*
X3138582Y-14319631D01*
X3138582Y-14319631D02*
X3148105Y-14338679D01*
X3148105Y-14338679D02*
X3148105Y-14357727D01*
X3148105Y-14357727D02*
X3138582Y-14386298D01*
X3138582Y-14386298D02*
X3024296Y-14500584D01*
X3024296Y-14500584D02*
X3148105Y-14500584D01*
X3233820Y-14500584D02*
X3233820Y-14367250D01*
X3233820Y-14386298D02*
X3243343Y-14376774D01*
X3243343Y-14376774D02*
X3262391Y-14367250D01*
X3262391Y-14367250D02*
X3290963Y-14367250D01*
X3290963Y-14367250D02*
X3310010Y-14376774D01*
X3310010Y-14376774D02*
X3319534Y-14395822D01*
X3319534Y-14395822D02*
X3319534Y-14500584D01*
X3319534Y-14395822D02*
X3329058Y-14376774D01*
X3329058Y-14376774D02*
X3348105Y-14367250D01*
X3348105Y-14367250D02*
X3376677Y-14367250D01*
X3376677Y-14367250D02*
X3395724Y-14376774D01*
X3395724Y-14376774D02*
X3405248Y-14395822D01*
X3405248Y-14395822D02*
X3405248Y-14500584D01*
X3500486Y-14500584D02*
X3500486Y-14367250D01*
X3500486Y-14386298D02*
X3510010Y-14376774D01*
X3510010Y-14376774D02*
X3529058Y-14367250D01*
X3529058Y-14367250D02*
X3557629Y-14367250D01*
X3557629Y-14367250D02*
X3576677Y-14376774D01*
X3576677Y-14376774D02*
X3586201Y-14395822D01*
X3586201Y-14395822D02*
X3586201Y-14500584D01*
X3586201Y-14395822D02*
X3595724Y-14376774D01*
X3595724Y-14376774D02*
X3614772Y-14367250D01*
X3614772Y-14367250D02*
X3643343Y-14367250D01*
X3643343Y-14367250D02*
X3662391Y-14376774D01*
X3662391Y-14376774D02*
X3671915Y-14395822D01*
X3671915Y-14395822D02*
X3671915Y-14500584D01*
X4062391Y-14291060D02*
X3890963Y-14548203D01*
X4319534Y-14300584D02*
X4338582Y-14300584D01*
X4338582Y-14300584D02*
X4357629Y-14310108D01*
X4357629Y-14310108D02*
X4367153Y-14319631D01*
X4367153Y-14319631D02*
X4376677Y-14338679D01*
X4376677Y-14338679D02*
X4386201Y-14376774D01*
X4386201Y-14376774D02*
X4386201Y-14424393D01*
X4386201Y-14424393D02*
X4376677Y-14462488D01*
X4376677Y-14462488D02*
X4367153Y-14481536D01*
X4367153Y-14481536D02*
X4357629Y-14491060D01*
X4357629Y-14491060D02*
X4338582Y-14500584D01*
X4338582Y-14500584D02*
X4319534Y-14500584D01*
X4319534Y-14500584D02*
X4300487Y-14491060D01*
X4300487Y-14491060D02*
X4290963Y-14481536D01*
X4290963Y-14481536D02*
X4281439Y-14462488D01*
X4281439Y-14462488D02*
X4271915Y-14424393D01*
X4271915Y-14424393D02*
X4271915Y-14376774D01*
X4271915Y-14376774D02*
X4281439Y-14338679D01*
X4281439Y-14338679D02*
X4290963Y-14319631D01*
X4290963Y-14319631D02*
X4300487Y-14310108D01*
X4300487Y-14310108D02*
X4319534Y-14300584D01*
X4471915Y-14481536D02*
X4481439Y-14491060D01*
X4481439Y-14491060D02*
X4471915Y-14500584D01*
X4471915Y-14500584D02*
X4462391Y-14491060D01*
X4462391Y-14491060D02*
X4471915Y-14481536D01*
X4471915Y-14481536D02*
X4471915Y-14500584D01*
X4605248Y-14300584D02*
X4624296Y-14300584D01*
X4624296Y-14300584D02*
X4643344Y-14310108D01*
X4643344Y-14310108D02*
X4652868Y-14319631D01*
X4652868Y-14319631D02*
X4662391Y-14338679D01*
X4662391Y-14338679D02*
X4671915Y-14376774D01*
X4671915Y-14376774D02*
X4671915Y-14424393D01*
X4671915Y-14424393D02*
X4662391Y-14462488D01*
X4662391Y-14462488D02*
X4652868Y-14481536D01*
X4652868Y-14481536D02*
X4643344Y-14491060D01*
X4643344Y-14491060D02*
X4624296Y-14500584D01*
X4624296Y-14500584D02*
X4605248Y-14500584D01*
X4605248Y-14500584D02*
X4586201Y-14491060D01*
X4586201Y-14491060D02*
X4576677Y-14481536D01*
X4576677Y-14481536D02*
X4567153Y-14462488D01*
X4567153Y-14462488D02*
X4557629Y-14424393D01*
X4557629Y-14424393D02*
X4557629Y-14376774D01*
X4557629Y-14376774D02*
X4567153Y-14338679D01*
X4567153Y-14338679D02*
X4576677Y-14319631D01*
X4576677Y-14319631D02*
X4586201Y-14310108D01*
X4586201Y-14310108D02*
X4605248Y-14300584D01*
X4738582Y-14300584D02*
X4862391Y-14300584D01*
X4862391Y-14300584D02*
X4795725Y-14376774D01*
X4795725Y-14376774D02*
X4824296Y-14376774D01*
X4824296Y-14376774D02*
X4843344Y-14386298D01*
X4843344Y-14386298D02*
X4852868Y-14395822D01*
X4852868Y-14395822D02*
X4862391Y-14414869D01*
X4862391Y-14414869D02*
X4862391Y-14462488D01*
X4862391Y-14462488D02*
X4852868Y-14481536D01*
X4852868Y-14481536D02*
X4843344Y-14491060D01*
X4843344Y-14491060D02*
X4824296Y-14500584D01*
X4824296Y-14500584D02*
X4767153Y-14500584D01*
X4767153Y-14500584D02*
X4748106Y-14491060D01*
X4748106Y-14491060D02*
X4738582Y-14481536D01*
X4986201Y-14300584D02*
X5005249Y-14300584D01*
X5005249Y-14300584D02*
X5024296Y-14310108D01*
X5024296Y-14310108D02*
X5033820Y-14319631D01*
X5033820Y-14319631D02*
X5043344Y-14338679D01*
X5043344Y-14338679D02*
X5052868Y-14376774D01*
X5052868Y-14376774D02*
X5052868Y-14424393D01*
X5052868Y-14424393D02*
X5043344Y-14462488D01*
X5043344Y-14462488D02*
X5033820Y-14481536D01*
X5033820Y-14481536D02*
X5024296Y-14491060D01*
X5024296Y-14491060D02*
X5005249Y-14500584D01*
X5005249Y-14500584D02*
X4986201Y-14500584D01*
X4986201Y-14500584D02*
X4967153Y-14491060D01*
X4967153Y-14491060D02*
X4957629Y-14481536D01*
X4957629Y-14481536D02*
X4948106Y-14462488D01*
X4948106Y-14462488D02*
X4938582Y-14424393D01*
X4938582Y-14424393D02*
X4938582Y-14376774D01*
X4938582Y-14376774D02*
X4948106Y-14338679D01*
X4948106Y-14338679D02*
X4957629Y-14319631D01*
X4957629Y-14319631D02*
X4967153Y-14310108D01*
X4967153Y-14310108D02*
X4986201Y-14300584D01*
X5176677Y-14300584D02*
X5195725Y-14300584D01*
X5195725Y-14300584D02*
X5214772Y-14310108D01*
X5214772Y-14310108D02*
X5224296Y-14319631D01*
X5224296Y-14319631D02*
X5233820Y-14338679D01*
X5233820Y-14338679D02*
X5243344Y-14376774D01*
X5243344Y-14376774D02*
X5243344Y-14424393D01*
X5243344Y-14424393D02*
X5233820Y-14462488D01*
X5233820Y-14462488D02*
X5224296Y-14481536D01*
X5224296Y-14481536D02*
X5214772Y-14491060D01*
X5214772Y-14491060D02*
X5195725Y-14500584D01*
X5195725Y-14500584D02*
X5176677Y-14500584D01*
X5176677Y-14500584D02*
X5157629Y-14491060D01*
X5157629Y-14491060D02*
X5148106Y-14481536D01*
X5148106Y-14481536D02*
X5138582Y-14462488D01*
X5138582Y-14462488D02*
X5129058Y-14424393D01*
X5129058Y-14424393D02*
X5129058Y-14376774D01*
X5129058Y-14376774D02*
X5138582Y-14338679D01*
X5138582Y-14338679D02*
X5148106Y-14319631D01*
X5148106Y-14319631D02*
X5157629Y-14310108D01*
X5157629Y-14310108D02*
X5176677Y-14300584D01*
X5319534Y-14300584D02*
X5319534Y-14338679D01*
X5395725Y-14300584D02*
X5395725Y-14338679D01*
X5690963Y-14576774D02*
X5681439Y-14567250D01*
X5681439Y-14567250D02*
X5662391Y-14538679D01*
X5662391Y-14538679D02*
X5652868Y-14519631D01*
X5652868Y-14519631D02*
X5643344Y-14491060D01*
X5643344Y-14491060D02*
X5633820Y-14443441D01*
X5633820Y-14443441D02*
X5633820Y-14405346D01*
X5633820Y-14405346D02*
X5643344Y-14357727D01*
X5643344Y-14357727D02*
X5652868Y-14329155D01*
X5652868Y-14329155D02*
X5662391Y-14310108D01*
X5662391Y-14310108D02*
X5681439Y-14281536D01*
X5681439Y-14281536D02*
X5690963Y-14272012D01*
X5871915Y-14500584D02*
X5757629Y-14500584D01*
X5814772Y-14500584D02*
X5814772Y-14300584D01*
X5814772Y-14300584D02*
X5795725Y-14329155D01*
X5795725Y-14329155D02*
X5776677Y-14348203D01*
X5776677Y-14348203D02*
X5757629Y-14357727D01*
X5995725Y-14300584D02*
X6014772Y-14300584D01*
X6014772Y-14300584D02*
X6033820Y-14310108D01*
X6033820Y-14310108D02*
X6043344Y-14319631D01*
X6043344Y-14319631D02*
X6052868Y-14338679D01*
X6052868Y-14338679D02*
X6062391Y-14376774D01*
X6062391Y-14376774D02*
X6062391Y-14424393D01*
X6062391Y-14424393D02*
X6052868Y-14462488D01*
X6052868Y-14462488D02*
X6043344Y-14481536D01*
X6043344Y-14481536D02*
X6033820Y-14491060D01*
X6033820Y-14491060D02*
X6014772Y-14500584D01*
X6014772Y-14500584D02*
X5995725Y-14500584D01*
X5995725Y-14500584D02*
X5976677Y-14491060D01*
X5976677Y-14491060D02*
X5967153Y-14481536D01*
X5967153Y-14481536D02*
X5957629Y-14462488D01*
X5957629Y-14462488D02*
X5948106Y-14424393D01*
X5948106Y-14424393D02*
X5948106Y-14376774D01*
X5948106Y-14376774D02*
X5957629Y-14338679D01*
X5957629Y-14338679D02*
X5967153Y-14319631D01*
X5967153Y-14319631D02*
X5976677Y-14310108D01*
X5976677Y-14310108D02*
X5995725Y-14300584D01*
X6233820Y-14367250D02*
X6233820Y-14500584D01*
X6186201Y-14291060D02*
X6138582Y-14433917D01*
X6138582Y-14433917D02*
X6262391Y-14433917D01*
X6490963Y-14500584D02*
X6490963Y-14300584D01*
X6576677Y-14500584D02*
X6576677Y-14395822D01*
X6576677Y-14395822D02*
X6567153Y-14376774D01*
X6567153Y-14376774D02*
X6548106Y-14367250D01*
X6548106Y-14367250D02*
X6519534Y-14367250D01*
X6519534Y-14367250D02*
X6500487Y-14376774D01*
X6500487Y-14376774D02*
X6490963Y-14386298D01*
X6700487Y-14500584D02*
X6681439Y-14491060D01*
X6681439Y-14491060D02*
X6671915Y-14481536D01*
X6671915Y-14481536D02*
X6662391Y-14462488D01*
X6662391Y-14462488D02*
X6662391Y-14405346D01*
X6662391Y-14405346D02*
X6671915Y-14386298D01*
X6671915Y-14386298D02*
X6681439Y-14376774D01*
X6681439Y-14376774D02*
X6700487Y-14367250D01*
X6700487Y-14367250D02*
X6729058Y-14367250D01*
X6729058Y-14367250D02*
X6748106Y-14376774D01*
X6748106Y-14376774D02*
X6757630Y-14386298D01*
X6757630Y-14386298D02*
X6767153Y-14405346D01*
X6767153Y-14405346D02*
X6767153Y-14462488D01*
X6767153Y-14462488D02*
X6757630Y-14481536D01*
X6757630Y-14481536D02*
X6748106Y-14491060D01*
X6748106Y-14491060D02*
X6729058Y-14500584D01*
X6729058Y-14500584D02*
X6700487Y-14500584D01*
X6881439Y-14500584D02*
X6862391Y-14491060D01*
X6862391Y-14491060D02*
X6852868Y-14472012D01*
X6852868Y-14472012D02*
X6852868Y-14300584D01*
X7033820Y-14491060D02*
X7014772Y-14500584D01*
X7014772Y-14500584D02*
X6976677Y-14500584D01*
X6976677Y-14500584D02*
X6957630Y-14491060D01*
X6957630Y-14491060D02*
X6948106Y-14472012D01*
X6948106Y-14472012D02*
X6948106Y-14395822D01*
X6948106Y-14395822D02*
X6957630Y-14376774D01*
X6957630Y-14376774D02*
X6976677Y-14367250D01*
X6976677Y-14367250D02*
X7014772Y-14367250D01*
X7014772Y-14367250D02*
X7033820Y-14376774D01*
X7033820Y-14376774D02*
X7043344Y-14395822D01*
X7043344Y-14395822D02*
X7043344Y-14414869D01*
X7043344Y-14414869D02*
X6948106Y-14433917D01*
X7119534Y-14491060D02*
X7138582Y-14500584D01*
X7138582Y-14500584D02*
X7176677Y-14500584D01*
X7176677Y-14500584D02*
X7195725Y-14491060D01*
X7195725Y-14491060D02*
X7205249Y-14472012D01*
X7205249Y-14472012D02*
X7205249Y-14462488D01*
X7205249Y-14462488D02*
X7195725Y-14443441D01*
X7195725Y-14443441D02*
X7176677Y-14433917D01*
X7176677Y-14433917D02*
X7148106Y-14433917D01*
X7148106Y-14433917D02*
X7129058Y-14424393D01*
X7129058Y-14424393D02*
X7119534Y-14405346D01*
X7119534Y-14405346D02*
X7119534Y-14395822D01*
X7119534Y-14395822D02*
X7129058Y-14376774D01*
X7129058Y-14376774D02*
X7148106Y-14367250D01*
X7148106Y-14367250D02*
X7176677Y-14367250D01*
X7176677Y-14367250D02*
X7195725Y-14376774D01*
X7271915Y-14576774D02*
X7281439Y-14567250D01*
X7281439Y-14567250D02*
X7300487Y-14538679D01*
X7300487Y-14538679D02*
X7310011Y-14519631D01*
X7310011Y-14519631D02*
X7319534Y-14491060D01*
X7319534Y-14491060D02*
X7329058Y-14443441D01*
X7329058Y-14443441D02*
X7329058Y-14405346D01*
X7329058Y-14405346D02*
X7319534Y-14357727D01*
X7319534Y-14357727D02*
X7310011Y-14329155D01*
X7310011Y-14329155D02*
X7300487Y-14310108D01*
X7300487Y-14310108D02*
X7281439Y-14281536D01*
X7281439Y-14281536D02*
X7271915Y-14272012D01*
D10*
X2065900Y-14623100D02*
X2065900Y-14723100D01*
X2015900Y-14673100D02*
X2115900Y-14673100D01*
D11*
X2481439Y-14764584D02*
X2367153Y-14764584D01*
X2424296Y-14764584D02*
X2424296Y-14564584D01*
X2424296Y-14564584D02*
X2405248Y-14593155D01*
X2405248Y-14593155D02*
X2386201Y-14612203D01*
X2386201Y-14612203D02*
X2367153Y-14621727D01*
X2567153Y-14745536D02*
X2576677Y-14755060D01*
X2576677Y-14755060D02*
X2567153Y-14764584D01*
X2567153Y-14764584D02*
X2557629Y-14755060D01*
X2557629Y-14755060D02*
X2567153Y-14745536D01*
X2567153Y-14745536D02*
X2567153Y-14764584D01*
X2700486Y-14564584D02*
X2719534Y-14564584D01*
X2719534Y-14564584D02*
X2738582Y-14574108D01*
X2738582Y-14574108D02*
X2748105Y-14583631D01*
X2748105Y-14583631D02*
X2757629Y-14602679D01*
X2757629Y-14602679D02*
X2767153Y-14640774D01*
X2767153Y-14640774D02*
X2767153Y-14688393D01*
X2767153Y-14688393D02*
X2757629Y-14726488D01*
X2757629Y-14726488D02*
X2748105Y-14745536D01*
X2748105Y-14745536D02*
X2738582Y-14755060D01*
X2738582Y-14755060D02*
X2719534Y-14764584D01*
X2719534Y-14764584D02*
X2700486Y-14764584D01*
X2700486Y-14764584D02*
X2681439Y-14755060D01*
X2681439Y-14755060D02*
X2671915Y-14745536D01*
X2671915Y-14745536D02*
X2662391Y-14726488D01*
X2662391Y-14726488D02*
X2652867Y-14688393D01*
X2652867Y-14688393D02*
X2652867Y-14640774D01*
X2652867Y-14640774D02*
X2662391Y-14602679D01*
X2662391Y-14602679D02*
X2671915Y-14583631D01*
X2671915Y-14583631D02*
X2681439Y-14574108D01*
X2681439Y-14574108D02*
X2700486Y-14564584D01*
X2890962Y-14564584D02*
X2910010Y-14564584D01*
X2910010Y-14564584D02*
X2929058Y-14574108D01*
X2929058Y-14574108D02*
X2938582Y-14583631D01*
X2938582Y-14583631D02*
X2948105Y-14602679D01*
X2948105Y-14602679D02*
X2957629Y-14640774D01*
X2957629Y-14640774D02*
X2957629Y-14688393D01*
X2957629Y-14688393D02*
X2948105Y-14726488D01*
X2948105Y-14726488D02*
X2938582Y-14745536D01*
X2938582Y-14745536D02*
X2929058Y-14755060D01*
X2929058Y-14755060D02*
X2910010Y-14764584D01*
X2910010Y-14764584D02*
X2890962Y-14764584D01*
X2890962Y-14764584D02*
X2871915Y-14755060D01*
X2871915Y-14755060D02*
X2862391Y-14745536D01*
X2862391Y-14745536D02*
X2852867Y-14726488D01*
X2852867Y-14726488D02*
X2843343Y-14688393D01*
X2843343Y-14688393D02*
X2843343Y-14640774D01*
X2843343Y-14640774D02*
X2852867Y-14602679D01*
X2852867Y-14602679D02*
X2862391Y-14583631D01*
X2862391Y-14583631D02*
X2871915Y-14574108D01*
X2871915Y-14574108D02*
X2890962Y-14564584D01*
X3081439Y-14564584D02*
X3100486Y-14564584D01*
X3100486Y-14564584D02*
X3119534Y-14574108D01*
X3119534Y-14574108D02*
X3129058Y-14583631D01*
X3129058Y-14583631D02*
X3138582Y-14602679D01*
X3138582Y-14602679D02*
X3148105Y-14640774D01*
X3148105Y-14640774D02*
X3148105Y-14688393D01*
X3148105Y-14688393D02*
X3138582Y-14726488D01*
X3138582Y-14726488D02*
X3129058Y-14745536D01*
X3129058Y-14745536D02*
X3119534Y-14755060D01*
X3119534Y-14755060D02*
X3100486Y-14764584D01*
X3100486Y-14764584D02*
X3081439Y-14764584D01*
X3081439Y-14764584D02*
X3062391Y-14755060D01*
X3062391Y-14755060D02*
X3052867Y-14745536D01*
X3052867Y-14745536D02*
X3043343Y-14726488D01*
X3043343Y-14726488D02*
X3033820Y-14688393D01*
X3033820Y-14688393D02*
X3033820Y-14640774D01*
X3033820Y-14640774D02*
X3043343Y-14602679D01*
X3043343Y-14602679D02*
X3052867Y-14583631D01*
X3052867Y-14583631D02*
X3062391Y-14574108D01*
X3062391Y-14574108D02*
X3081439Y-14564584D01*
X3233820Y-14764584D02*
X3233820Y-14631250D01*
X3233820Y-14650298D02*
X3243343Y-14640774D01*
X3243343Y-14640774D02*
X3262391Y-14631250D01*
X3262391Y-14631250D02*
X3290963Y-14631250D01*
X3290963Y-14631250D02*
X3310010Y-14640774D01*
X3310010Y-14640774D02*
X3319534Y-14659822D01*
X3319534Y-14659822D02*
X3319534Y-14764584D01*
X3319534Y-14659822D02*
X3329058Y-14640774D01*
X3329058Y-14640774D02*
X3348105Y-14631250D01*
X3348105Y-14631250D02*
X3376677Y-14631250D01*
X3376677Y-14631250D02*
X3395724Y-14640774D01*
X3395724Y-14640774D02*
X3405248Y-14659822D01*
X3405248Y-14659822D02*
X3405248Y-14764584D01*
X3500486Y-14764584D02*
X3500486Y-14631250D01*
X3500486Y-14650298D02*
X3510010Y-14640774D01*
X3510010Y-14640774D02*
X3529058Y-14631250D01*
X3529058Y-14631250D02*
X3557629Y-14631250D01*
X3557629Y-14631250D02*
X3576677Y-14640774D01*
X3576677Y-14640774D02*
X3586201Y-14659822D01*
X3586201Y-14659822D02*
X3586201Y-14764584D01*
X3586201Y-14659822D02*
X3595724Y-14640774D01*
X3595724Y-14640774D02*
X3614772Y-14631250D01*
X3614772Y-14631250D02*
X3643343Y-14631250D01*
X3643343Y-14631250D02*
X3662391Y-14640774D01*
X3662391Y-14640774D02*
X3671915Y-14659822D01*
X3671915Y-14659822D02*
X3671915Y-14764584D01*
X4062391Y-14555060D02*
X3890963Y-14812203D01*
X4319534Y-14564584D02*
X4338582Y-14564584D01*
X4338582Y-14564584D02*
X4357629Y-14574108D01*
X4357629Y-14574108D02*
X4367153Y-14583631D01*
X4367153Y-14583631D02*
X4376677Y-14602679D01*
X4376677Y-14602679D02*
X4386201Y-14640774D01*
X4386201Y-14640774D02*
X4386201Y-14688393D01*
X4386201Y-14688393D02*
X4376677Y-14726488D01*
X4376677Y-14726488D02*
X4367153Y-14745536D01*
X4367153Y-14745536D02*
X4357629Y-14755060D01*
X4357629Y-14755060D02*
X4338582Y-14764584D01*
X4338582Y-14764584D02*
X4319534Y-14764584D01*
X4319534Y-14764584D02*
X4300487Y-14755060D01*
X4300487Y-14755060D02*
X4290963Y-14745536D01*
X4290963Y-14745536D02*
X4281439Y-14726488D01*
X4281439Y-14726488D02*
X4271915Y-14688393D01*
X4271915Y-14688393D02*
X4271915Y-14640774D01*
X4271915Y-14640774D02*
X4281439Y-14602679D01*
X4281439Y-14602679D02*
X4290963Y-14583631D01*
X4290963Y-14583631D02*
X4300487Y-14574108D01*
X4300487Y-14574108D02*
X4319534Y-14564584D01*
X4471915Y-14745536D02*
X4481439Y-14755060D01*
X4481439Y-14755060D02*
X4471915Y-14764584D01*
X4471915Y-14764584D02*
X4462391Y-14755060D01*
X4462391Y-14755060D02*
X4471915Y-14745536D01*
X4471915Y-14745536D02*
X4471915Y-14764584D01*
X4605248Y-14564584D02*
X4624296Y-14564584D01*
X4624296Y-14564584D02*
X4643344Y-14574108D01*
X4643344Y-14574108D02*
X4652868Y-14583631D01*
X4652868Y-14583631D02*
X4662391Y-14602679D01*
X4662391Y-14602679D02*
X4671915Y-14640774D01*
X4671915Y-14640774D02*
X4671915Y-14688393D01*
X4671915Y-14688393D02*
X4662391Y-14726488D01*
X4662391Y-14726488D02*
X4652868Y-14745536D01*
X4652868Y-14745536D02*
X4643344Y-14755060D01*
X4643344Y-14755060D02*
X4624296Y-14764584D01*
X4624296Y-14764584D02*
X4605248Y-14764584D01*
X4605248Y-14764584D02*
X4586201Y-14755060D01*
X4586201Y-14755060D02*
X4576677Y-14745536D01*
X4576677Y-14745536D02*
X4567153Y-14726488D01*
X4567153Y-14726488D02*
X4557629Y-14688393D01*
X4557629Y-14688393D02*
X4557629Y-14640774D01*
X4557629Y-14640774D02*
X4567153Y-14602679D01*
X4567153Y-14602679D02*
X4576677Y-14583631D01*
X4576677Y-14583631D02*
X4586201Y-14574108D01*
X4586201Y-14574108D02*
X4605248Y-14564584D01*
X4738582Y-14564584D02*
X4862391Y-14564584D01*
X4862391Y-14564584D02*
X4795725Y-14640774D01*
X4795725Y-14640774D02*
X4824296Y-14640774D01*
X4824296Y-14640774D02*
X4843344Y-14650298D01*
X4843344Y-14650298D02*
X4852868Y-14659822D01*
X4852868Y-14659822D02*
X4862391Y-14678869D01*
X4862391Y-14678869D02*
X4862391Y-14726488D01*
X4862391Y-14726488D02*
X4852868Y-14745536D01*
X4852868Y-14745536D02*
X4843344Y-14755060D01*
X4843344Y-14755060D02*
X4824296Y-14764584D01*
X4824296Y-14764584D02*
X4767153Y-14764584D01*
X4767153Y-14764584D02*
X4748106Y-14755060D01*
X4748106Y-14755060D02*
X4738582Y-14745536D01*
X4957629Y-14764584D02*
X4995725Y-14764584D01*
X4995725Y-14764584D02*
X5014772Y-14755060D01*
X5014772Y-14755060D02*
X5024296Y-14745536D01*
X5024296Y-14745536D02*
X5043344Y-14716965D01*
X5043344Y-14716965D02*
X5052868Y-14678869D01*
X5052868Y-14678869D02*
X5052868Y-14602679D01*
X5052868Y-14602679D02*
X5043344Y-14583631D01*
X5043344Y-14583631D02*
X5033820Y-14574108D01*
X5033820Y-14574108D02*
X5014772Y-14564584D01*
X5014772Y-14564584D02*
X4976677Y-14564584D01*
X4976677Y-14564584D02*
X4957629Y-14574108D01*
X4957629Y-14574108D02*
X4948106Y-14583631D01*
X4948106Y-14583631D02*
X4938582Y-14602679D01*
X4938582Y-14602679D02*
X4938582Y-14650298D01*
X4938582Y-14650298D02*
X4948106Y-14669346D01*
X4948106Y-14669346D02*
X4957629Y-14678869D01*
X4957629Y-14678869D02*
X4976677Y-14688393D01*
X4976677Y-14688393D02*
X5014772Y-14688393D01*
X5014772Y-14688393D02*
X5033820Y-14678869D01*
X5033820Y-14678869D02*
X5043344Y-14669346D01*
X5043344Y-14669346D02*
X5052868Y-14650298D01*
X5224296Y-14631250D02*
X5224296Y-14764584D01*
X5176677Y-14555060D02*
X5129058Y-14697917D01*
X5129058Y-14697917D02*
X5252868Y-14697917D01*
X5319534Y-14564584D02*
X5319534Y-14602679D01*
X5395725Y-14564584D02*
X5395725Y-14602679D01*
X5690963Y-14840774D02*
X5681439Y-14831250D01*
X5681439Y-14831250D02*
X5662391Y-14802679D01*
X5662391Y-14802679D02*
X5652868Y-14783631D01*
X5652868Y-14783631D02*
X5643344Y-14755060D01*
X5643344Y-14755060D02*
X5633820Y-14707441D01*
X5633820Y-14707441D02*
X5633820Y-14669346D01*
X5633820Y-14669346D02*
X5643344Y-14621727D01*
X5643344Y-14621727D02*
X5652868Y-14593155D01*
X5652868Y-14593155D02*
X5662391Y-14574108D01*
X5662391Y-14574108D02*
X5681439Y-14545536D01*
X5681439Y-14545536D02*
X5690963Y-14536012D01*
X5795725Y-14650298D02*
X5776677Y-14640774D01*
X5776677Y-14640774D02*
X5767153Y-14631250D01*
X5767153Y-14631250D02*
X5757629Y-14612203D01*
X5757629Y-14612203D02*
X5757629Y-14602679D01*
X5757629Y-14602679D02*
X5767153Y-14583631D01*
X5767153Y-14583631D02*
X5776677Y-14574108D01*
X5776677Y-14574108D02*
X5795725Y-14564584D01*
X5795725Y-14564584D02*
X5833820Y-14564584D01*
X5833820Y-14564584D02*
X5852868Y-14574108D01*
X5852868Y-14574108D02*
X5862391Y-14583631D01*
X5862391Y-14583631D02*
X5871915Y-14602679D01*
X5871915Y-14602679D02*
X5871915Y-14612203D01*
X5871915Y-14612203D02*
X5862391Y-14631250D01*
X5862391Y-14631250D02*
X5852868Y-14640774D01*
X5852868Y-14640774D02*
X5833820Y-14650298D01*
X5833820Y-14650298D02*
X5795725Y-14650298D01*
X5795725Y-14650298D02*
X5776677Y-14659822D01*
X5776677Y-14659822D02*
X5767153Y-14669346D01*
X5767153Y-14669346D02*
X5757629Y-14688393D01*
X5757629Y-14688393D02*
X5757629Y-14726488D01*
X5757629Y-14726488D02*
X5767153Y-14745536D01*
X5767153Y-14745536D02*
X5776677Y-14755060D01*
X5776677Y-14755060D02*
X5795725Y-14764584D01*
X5795725Y-14764584D02*
X5833820Y-14764584D01*
X5833820Y-14764584D02*
X5852868Y-14755060D01*
X5852868Y-14755060D02*
X5862391Y-14745536D01*
X5862391Y-14745536D02*
X5871915Y-14726488D01*
X5871915Y-14726488D02*
X5871915Y-14688393D01*
X5871915Y-14688393D02*
X5862391Y-14669346D01*
X5862391Y-14669346D02*
X5852868Y-14659822D01*
X5852868Y-14659822D02*
X5833820Y-14650298D01*
X5967153Y-14764584D02*
X6005248Y-14764584D01*
X6005248Y-14764584D02*
X6024296Y-14755060D01*
X6024296Y-14755060D02*
X6033820Y-14745536D01*
X6033820Y-14745536D02*
X6052868Y-14716965D01*
X6052868Y-14716965D02*
X6062391Y-14678869D01*
X6062391Y-14678869D02*
X6062391Y-14602679D01*
X6062391Y-14602679D02*
X6052868Y-14583631D01*
X6052868Y-14583631D02*
X6043344Y-14574108D01*
X6043344Y-14574108D02*
X6024296Y-14564584D01*
X6024296Y-14564584D02*
X5986201Y-14564584D01*
X5986201Y-14564584D02*
X5967153Y-14574108D01*
X5967153Y-14574108D02*
X5957629Y-14583631D01*
X5957629Y-14583631D02*
X5948106Y-14602679D01*
X5948106Y-14602679D02*
X5948106Y-14650298D01*
X5948106Y-14650298D02*
X5957629Y-14669346D01*
X5957629Y-14669346D02*
X5967153Y-14678869D01*
X5967153Y-14678869D02*
X5986201Y-14688393D01*
X5986201Y-14688393D02*
X6024296Y-14688393D01*
X6024296Y-14688393D02*
X6043344Y-14678869D01*
X6043344Y-14678869D02*
X6052868Y-14669346D01*
X6052868Y-14669346D02*
X6062391Y-14650298D01*
X6300487Y-14764584D02*
X6300487Y-14564584D01*
X6386201Y-14764584D02*
X6386201Y-14659822D01*
X6386201Y-14659822D02*
X6376677Y-14640774D01*
X6376677Y-14640774D02*
X6357630Y-14631250D01*
X6357630Y-14631250D02*
X6329058Y-14631250D01*
X6329058Y-14631250D02*
X6310010Y-14640774D01*
X6310010Y-14640774D02*
X6300487Y-14650298D01*
X6510010Y-14764584D02*
X6490963Y-14755060D01*
X6490963Y-14755060D02*
X6481439Y-14745536D01*
X6481439Y-14745536D02*
X6471915Y-14726488D01*
X6471915Y-14726488D02*
X6471915Y-14669346D01*
X6471915Y-14669346D02*
X6481439Y-14650298D01*
X6481439Y-14650298D02*
X6490963Y-14640774D01*
X6490963Y-14640774D02*
X6510010Y-14631250D01*
X6510010Y-14631250D02*
X6538582Y-14631250D01*
X6538582Y-14631250D02*
X6557630Y-14640774D01*
X6557630Y-14640774D02*
X6567153Y-14650298D01*
X6567153Y-14650298D02*
X6576677Y-14669346D01*
X6576677Y-14669346D02*
X6576677Y-14726488D01*
X6576677Y-14726488D02*
X6567153Y-14745536D01*
X6567153Y-14745536D02*
X6557630Y-14755060D01*
X6557630Y-14755060D02*
X6538582Y-14764584D01*
X6538582Y-14764584D02*
X6510010Y-14764584D01*
X6690963Y-14764584D02*
X6671915Y-14755060D01*
X6671915Y-14755060D02*
X6662391Y-14736012D01*
X6662391Y-14736012D02*
X6662391Y-14564584D01*
X6843344Y-14755060D02*
X6824296Y-14764584D01*
X6824296Y-14764584D02*
X6786201Y-14764584D01*
X6786201Y-14764584D02*
X6767153Y-14755060D01*
X6767153Y-14755060D02*
X6757630Y-14736012D01*
X6757630Y-14736012D02*
X6757630Y-14659822D01*
X6757630Y-14659822D02*
X6767153Y-14640774D01*
X6767153Y-14640774D02*
X6786201Y-14631250D01*
X6786201Y-14631250D02*
X6824296Y-14631250D01*
X6824296Y-14631250D02*
X6843344Y-14640774D01*
X6843344Y-14640774D02*
X6852868Y-14659822D01*
X6852868Y-14659822D02*
X6852868Y-14678869D01*
X6852868Y-14678869D02*
X6757630Y-14697917D01*
X6929058Y-14755060D02*
X6948106Y-14764584D01*
X6948106Y-14764584D02*
X6986201Y-14764584D01*
X6986201Y-14764584D02*
X7005249Y-14755060D01*
X7005249Y-14755060D02*
X7014772Y-14736012D01*
X7014772Y-14736012D02*
X7014772Y-14726488D01*
X7014772Y-14726488D02*
X7005249Y-14707441D01*
X7005249Y-14707441D02*
X6986201Y-14697917D01*
X6986201Y-14697917D02*
X6957630Y-14697917D01*
X6957630Y-14697917D02*
X6938582Y-14688393D01*
X6938582Y-14688393D02*
X6929058Y-14669346D01*
X6929058Y-14669346D02*
X6929058Y-14659822D01*
X6929058Y-14659822D02*
X6938582Y-14640774D01*
X6938582Y-14640774D02*
X6957630Y-14631250D01*
X6957630Y-14631250D02*
X6986201Y-14631250D01*
X6986201Y-14631250D02*
X7005249Y-14640774D01*
X7081439Y-14840774D02*
X7090963Y-14831250D01*
X7090963Y-14831250D02*
X7110011Y-14802679D01*
X7110011Y-14802679D02*
X7119534Y-14783631D01*
X7119534Y-14783631D02*
X7129058Y-14755060D01*
X7129058Y-14755060D02*
X7138582Y-14707441D01*
X7138582Y-14707441D02*
X7138582Y-14669346D01*
X7138582Y-14669346D02*
X7129058Y-14621727D01*
X7129058Y-14621727D02*
X7119534Y-14593155D01*
X7119534Y-14593155D02*
X7110011Y-14574108D01*
X7110011Y-14574108D02*
X7090963Y-14545536D01*
X7090963Y-14545536D02*
X7081439Y-14536012D01*
X2086611Y-15007811D02*
X2086611Y-14866389D01*
X1945189Y-14866389D01*
X1945189Y-15007811D01*
X2086611Y-15007811D01*
X2357629Y-14828584D02*
X2481439Y-14828584D01*
X2481439Y-14828584D02*
X2414772Y-14904774D01*
X2414772Y-14904774D02*
X2443344Y-14904774D01*
X2443344Y-14904774D02*
X2462391Y-14914298D01*
X2462391Y-14914298D02*
X2471915Y-14923822D01*
X2471915Y-14923822D02*
X2481439Y-14942869D01*
X2481439Y-14942869D02*
X2481439Y-14990488D01*
X2481439Y-14990488D02*
X2471915Y-15009536D01*
X2471915Y-15009536D02*
X2462391Y-15019060D01*
X2462391Y-15019060D02*
X2443344Y-15028584D01*
X2443344Y-15028584D02*
X2386201Y-15028584D01*
X2386201Y-15028584D02*
X2367153Y-15019060D01*
X2367153Y-15019060D02*
X2357629Y-15009536D01*
X2567153Y-15009536D02*
X2576677Y-15019060D01*
X2576677Y-15019060D02*
X2567153Y-15028584D01*
X2567153Y-15028584D02*
X2557629Y-15019060D01*
X2557629Y-15019060D02*
X2567153Y-15009536D01*
X2567153Y-15009536D02*
X2567153Y-15028584D01*
X2652867Y-14847631D02*
X2662391Y-14838108D01*
X2662391Y-14838108D02*
X2681439Y-14828584D01*
X2681439Y-14828584D02*
X2729058Y-14828584D01*
X2729058Y-14828584D02*
X2748105Y-14838108D01*
X2748105Y-14838108D02*
X2757629Y-14847631D01*
X2757629Y-14847631D02*
X2767153Y-14866679D01*
X2767153Y-14866679D02*
X2767153Y-14885727D01*
X2767153Y-14885727D02*
X2757629Y-14914298D01*
X2757629Y-14914298D02*
X2643344Y-15028584D01*
X2643344Y-15028584D02*
X2767153Y-15028584D01*
X2890962Y-14828584D02*
X2910010Y-14828584D01*
X2910010Y-14828584D02*
X2929058Y-14838108D01*
X2929058Y-14838108D02*
X2938582Y-14847631D01*
X2938582Y-14847631D02*
X2948105Y-14866679D01*
X2948105Y-14866679D02*
X2957629Y-14904774D01*
X2957629Y-14904774D02*
X2957629Y-14952393D01*
X2957629Y-14952393D02*
X2948105Y-14990488D01*
X2948105Y-14990488D02*
X2938582Y-15009536D01*
X2938582Y-15009536D02*
X2929058Y-15019060D01*
X2929058Y-15019060D02*
X2910010Y-15028584D01*
X2910010Y-15028584D02*
X2890962Y-15028584D01*
X2890962Y-15028584D02*
X2871915Y-15019060D01*
X2871915Y-15019060D02*
X2862391Y-15009536D01*
X2862391Y-15009536D02*
X2852867Y-14990488D01*
X2852867Y-14990488D02*
X2843343Y-14952393D01*
X2843343Y-14952393D02*
X2843343Y-14904774D01*
X2843343Y-14904774D02*
X2852867Y-14866679D01*
X2852867Y-14866679D02*
X2862391Y-14847631D01*
X2862391Y-14847631D02*
X2871915Y-14838108D01*
X2871915Y-14838108D02*
X2890962Y-14828584D01*
X3081439Y-14828584D02*
X3100486Y-14828584D01*
X3100486Y-14828584D02*
X3119534Y-14838108D01*
X3119534Y-14838108D02*
X3129058Y-14847631D01*
X3129058Y-14847631D02*
X3138582Y-14866679D01*
X3138582Y-14866679D02*
X3148105Y-14904774D01*
X3148105Y-14904774D02*
X3148105Y-14952393D01*
X3148105Y-14952393D02*
X3138582Y-14990488D01*
X3138582Y-14990488D02*
X3129058Y-15009536D01*
X3129058Y-15009536D02*
X3119534Y-15019060D01*
X3119534Y-15019060D02*
X3100486Y-15028584D01*
X3100486Y-15028584D02*
X3081439Y-15028584D01*
X3081439Y-15028584D02*
X3062391Y-15019060D01*
X3062391Y-15019060D02*
X3052867Y-15009536D01*
X3052867Y-15009536D02*
X3043343Y-14990488D01*
X3043343Y-14990488D02*
X3033820Y-14952393D01*
X3033820Y-14952393D02*
X3033820Y-14904774D01*
X3033820Y-14904774D02*
X3043343Y-14866679D01*
X3043343Y-14866679D02*
X3052867Y-14847631D01*
X3052867Y-14847631D02*
X3062391Y-14838108D01*
X3062391Y-14838108D02*
X3081439Y-14828584D01*
X3233820Y-15028584D02*
X3233820Y-14895250D01*
X3233820Y-14914298D02*
X3243343Y-14904774D01*
X3243343Y-14904774D02*
X3262391Y-14895250D01*
X3262391Y-14895250D02*
X3290963Y-14895250D01*
X3290963Y-14895250D02*
X3310010Y-14904774D01*
X3310010Y-14904774D02*
X3319534Y-14923822D01*
X3319534Y-14923822D02*
X3319534Y-15028584D01*
X3319534Y-14923822D02*
X3329058Y-14904774D01*
X3329058Y-14904774D02*
X3348105Y-14895250D01*
X3348105Y-14895250D02*
X3376677Y-14895250D01*
X3376677Y-14895250D02*
X3395724Y-14904774D01*
X3395724Y-14904774D02*
X3405248Y-14923822D01*
X3405248Y-14923822D02*
X3405248Y-15028584D01*
X3500486Y-15028584D02*
X3500486Y-14895250D01*
X3500486Y-14914298D02*
X3510010Y-14904774D01*
X3510010Y-14904774D02*
X3529058Y-14895250D01*
X3529058Y-14895250D02*
X3557629Y-14895250D01*
X3557629Y-14895250D02*
X3576677Y-14904774D01*
X3576677Y-14904774D02*
X3586201Y-14923822D01*
X3586201Y-14923822D02*
X3586201Y-15028584D01*
X3586201Y-14923822D02*
X3595724Y-14904774D01*
X3595724Y-14904774D02*
X3614772Y-14895250D01*
X3614772Y-14895250D02*
X3643343Y-14895250D01*
X3643343Y-14895250D02*
X3662391Y-14904774D01*
X3662391Y-14904774D02*
X3671915Y-14923822D01*
X3671915Y-14923822D02*
X3671915Y-15028584D01*
X4062391Y-14819060D02*
X3890963Y-15076203D01*
X4319534Y-14828584D02*
X4338582Y-14828584D01*
X4338582Y-14828584D02*
X4357629Y-14838108D01*
X4357629Y-14838108D02*
X4367153Y-14847631D01*
X4367153Y-14847631D02*
X4376677Y-14866679D01*
X4376677Y-14866679D02*
X4386201Y-14904774D01*
X4386201Y-14904774D02*
X4386201Y-14952393D01*
X4386201Y-14952393D02*
X4376677Y-14990488D01*
X4376677Y-14990488D02*
X4367153Y-15009536D01*
X4367153Y-15009536D02*
X4357629Y-15019060D01*
X4357629Y-15019060D02*
X4338582Y-15028584D01*
X4338582Y-15028584D02*
X4319534Y-15028584D01*
X4319534Y-15028584D02*
X4300487Y-15019060D01*
X4300487Y-15019060D02*
X4290963Y-15009536D01*
X4290963Y-15009536D02*
X4281439Y-14990488D01*
X4281439Y-14990488D02*
X4271915Y-14952393D01*
X4271915Y-14952393D02*
X4271915Y-14904774D01*
X4271915Y-14904774D02*
X4281439Y-14866679D01*
X4281439Y-14866679D02*
X4290963Y-14847631D01*
X4290963Y-14847631D02*
X4300487Y-14838108D01*
X4300487Y-14838108D02*
X4319534Y-14828584D01*
X4471915Y-15009536D02*
X4481439Y-15019060D01*
X4481439Y-15019060D02*
X4471915Y-15028584D01*
X4471915Y-15028584D02*
X4462391Y-15019060D01*
X4462391Y-15019060D02*
X4471915Y-15009536D01*
X4471915Y-15009536D02*
X4471915Y-15028584D01*
X4671915Y-15028584D02*
X4557629Y-15028584D01*
X4614772Y-15028584D02*
X4614772Y-14828584D01*
X4614772Y-14828584D02*
X4595725Y-14857155D01*
X4595725Y-14857155D02*
X4576677Y-14876203D01*
X4576677Y-14876203D02*
X4557629Y-14885727D01*
X4748106Y-14847631D02*
X4757629Y-14838108D01*
X4757629Y-14838108D02*
X4776677Y-14828584D01*
X4776677Y-14828584D02*
X4824296Y-14828584D01*
X4824296Y-14828584D02*
X4843344Y-14838108D01*
X4843344Y-14838108D02*
X4852868Y-14847631D01*
X4852868Y-14847631D02*
X4862391Y-14866679D01*
X4862391Y-14866679D02*
X4862391Y-14885727D01*
X4862391Y-14885727D02*
X4852868Y-14914298D01*
X4852868Y-14914298D02*
X4738582Y-15028584D01*
X4738582Y-15028584D02*
X4862391Y-15028584D01*
X5033820Y-14828584D02*
X4995725Y-14828584D01*
X4995725Y-14828584D02*
X4976677Y-14838108D01*
X4976677Y-14838108D02*
X4967153Y-14847631D01*
X4967153Y-14847631D02*
X4948106Y-14876203D01*
X4948106Y-14876203D02*
X4938582Y-14914298D01*
X4938582Y-14914298D02*
X4938582Y-14990488D01*
X4938582Y-14990488D02*
X4948106Y-15009536D01*
X4948106Y-15009536D02*
X4957629Y-15019060D01*
X4957629Y-15019060D02*
X4976677Y-15028584D01*
X4976677Y-15028584D02*
X5014772Y-15028584D01*
X5014772Y-15028584D02*
X5033820Y-15019060D01*
X5033820Y-15019060D02*
X5043344Y-15009536D01*
X5043344Y-15009536D02*
X5052868Y-14990488D01*
X5052868Y-14990488D02*
X5052868Y-14942869D01*
X5052868Y-14942869D02*
X5043344Y-14923822D01*
X5043344Y-14923822D02*
X5033820Y-14914298D01*
X5033820Y-14914298D02*
X5014772Y-14904774D01*
X5014772Y-14904774D02*
X4976677Y-14904774D01*
X4976677Y-14904774D02*
X4957629Y-14914298D01*
X4957629Y-14914298D02*
X4948106Y-14923822D01*
X4948106Y-14923822D02*
X4938582Y-14942869D01*
X5176677Y-14828584D02*
X5195725Y-14828584D01*
X5195725Y-14828584D02*
X5214772Y-14838108D01*
X5214772Y-14838108D02*
X5224296Y-14847631D01*
X5224296Y-14847631D02*
X5233820Y-14866679D01*
X5233820Y-14866679D02*
X5243344Y-14904774D01*
X5243344Y-14904774D02*
X5243344Y-14952393D01*
X5243344Y-14952393D02*
X5233820Y-14990488D01*
X5233820Y-14990488D02*
X5224296Y-15009536D01*
X5224296Y-15009536D02*
X5214772Y-15019060D01*
X5214772Y-15019060D02*
X5195725Y-15028584D01*
X5195725Y-15028584D02*
X5176677Y-15028584D01*
X5176677Y-15028584D02*
X5157629Y-15019060D01*
X5157629Y-15019060D02*
X5148106Y-15009536D01*
X5148106Y-15009536D02*
X5138582Y-14990488D01*
X5138582Y-14990488D02*
X5129058Y-14952393D01*
X5129058Y-14952393D02*
X5129058Y-14904774D01*
X5129058Y-14904774D02*
X5138582Y-14866679D01*
X5138582Y-14866679D02*
X5148106Y-14847631D01*
X5148106Y-14847631D02*
X5157629Y-14838108D01*
X5157629Y-14838108D02*
X5176677Y-14828584D01*
X5319534Y-14828584D02*
X5319534Y-14866679D01*
X5395725Y-14828584D02*
X5395725Y-14866679D01*
X5690963Y-15104774D02*
X5681439Y-15095250D01*
X5681439Y-15095250D02*
X5662391Y-15066679D01*
X5662391Y-15066679D02*
X5652868Y-15047631D01*
X5652868Y-15047631D02*
X5643344Y-15019060D01*
X5643344Y-15019060D02*
X5633820Y-14971441D01*
X5633820Y-14971441D02*
X5633820Y-14933346D01*
X5633820Y-14933346D02*
X5643344Y-14885727D01*
X5643344Y-14885727D02*
X5652868Y-14857155D01*
X5652868Y-14857155D02*
X5662391Y-14838108D01*
X5662391Y-14838108D02*
X5681439Y-14809536D01*
X5681439Y-14809536D02*
X5690963Y-14800012D01*
X5852868Y-14895250D02*
X5852868Y-15028584D01*
X5805248Y-14819060D02*
X5757629Y-14961917D01*
X5757629Y-14961917D02*
X5881439Y-14961917D01*
X6110010Y-15028584D02*
X6110010Y-14828584D01*
X6195725Y-15028584D02*
X6195725Y-14923822D01*
X6195725Y-14923822D02*
X6186201Y-14904774D01*
X6186201Y-14904774D02*
X6167153Y-14895250D01*
X6167153Y-14895250D02*
X6138582Y-14895250D01*
X6138582Y-14895250D02*
X6119534Y-14904774D01*
X6119534Y-14904774D02*
X6110010Y-14914298D01*
X6319534Y-15028584D02*
X6300487Y-15019060D01*
X6300487Y-15019060D02*
X6290963Y-15009536D01*
X6290963Y-15009536D02*
X6281439Y-14990488D01*
X6281439Y-14990488D02*
X6281439Y-14933346D01*
X6281439Y-14933346D02*
X6290963Y-14914298D01*
X6290963Y-14914298D02*
X6300487Y-14904774D01*
X6300487Y-14904774D02*
X6319534Y-14895250D01*
X6319534Y-14895250D02*
X6348106Y-14895250D01*
X6348106Y-14895250D02*
X6367153Y-14904774D01*
X6367153Y-14904774D02*
X6376677Y-14914298D01*
X6376677Y-14914298D02*
X6386201Y-14933346D01*
X6386201Y-14933346D02*
X6386201Y-14990488D01*
X6386201Y-14990488D02*
X6376677Y-15009536D01*
X6376677Y-15009536D02*
X6367153Y-15019060D01*
X6367153Y-15019060D02*
X6348106Y-15028584D01*
X6348106Y-15028584D02*
X6319534Y-15028584D01*
X6500487Y-15028584D02*
X6481439Y-15019060D01*
X6481439Y-15019060D02*
X6471915Y-15000012D01*
X6471915Y-15000012D02*
X6471915Y-14828584D01*
X6652868Y-15019060D02*
X6633820Y-15028584D01*
X6633820Y-15028584D02*
X6595725Y-15028584D01*
X6595725Y-15028584D02*
X6576677Y-15019060D01*
X6576677Y-15019060D02*
X6567153Y-15000012D01*
X6567153Y-15000012D02*
X6567153Y-14923822D01*
X6567153Y-14923822D02*
X6576677Y-14904774D01*
X6576677Y-14904774D02*
X6595725Y-14895250D01*
X6595725Y-14895250D02*
X6633820Y-14895250D01*
X6633820Y-14895250D02*
X6652868Y-14904774D01*
X6652868Y-14904774D02*
X6662391Y-14923822D01*
X6662391Y-14923822D02*
X6662391Y-14942869D01*
X6662391Y-14942869D02*
X6567153Y-14961917D01*
X6738582Y-15019060D02*
X6757630Y-15028584D01*
X6757630Y-15028584D02*
X6795725Y-15028584D01*
X6795725Y-15028584D02*
X6814772Y-15019060D01*
X6814772Y-15019060D02*
X6824296Y-15000012D01*
X6824296Y-15000012D02*
X6824296Y-14990488D01*
X6824296Y-14990488D02*
X6814772Y-14971441D01*
X6814772Y-14971441D02*
X6795725Y-14961917D01*
X6795725Y-14961917D02*
X6767153Y-14961917D01*
X6767153Y-14961917D02*
X6748106Y-14952393D01*
X6748106Y-14952393D02*
X6738582Y-14933346D01*
X6738582Y-14933346D02*
X6738582Y-14923822D01*
X6738582Y-14923822D02*
X6748106Y-14904774D01*
X6748106Y-14904774D02*
X6767153Y-14895250D01*
X6767153Y-14895250D02*
X6795725Y-14895250D01*
X6795725Y-14895250D02*
X6814772Y-14904774D01*
X6890963Y-15104774D02*
X6900487Y-15095250D01*
X6900487Y-15095250D02*
X6919534Y-15066679D01*
X6919534Y-15066679D02*
X6929058Y-15047631D01*
X6929058Y-15047631D02*
X6938582Y-15019060D01*
X6938582Y-15019060D02*
X6948106Y-14971441D01*
X6948106Y-14971441D02*
X6948106Y-14933346D01*
X6948106Y-14933346D02*
X6938582Y-14885727D01*
X6938582Y-14885727D02*
X6929058Y-14857155D01*
X6929058Y-14857155D02*
X6919534Y-14838108D01*
X6919534Y-14838108D02*
X6900487Y-14809536D01*
X6900487Y-14809536D02*
X6890963Y-14800012D01*
M02*
