M48
; DRILL file {KiCad (6.0.8)} date Thu Jan  5 18:44:44 2023
; FORMAT={-:-/ absolute / inch / decimal}
; #@! TF.CreationDate,2023-01-05T18:44:44-08:00
; #@! TF.GenerationSoftware,Kicad,Pcbnew,(6.0.8)
; #@! TF.FileFunction,Plated,1,2,PTH
FMAT,2
INCH
; #@! TA.AperFunction,Plated,PTH,ViaDrill
T1C0.0157
; #@! TA.AperFunction,Plated,PTH,ComponentDrill
T2C0.0276
; #@! TA.AperFunction,Plated,PTH,ComponentDrill
T3C0.0300
; #@! TA.AperFunction,Plated,PTH,ComponentDrill
T4C0.0315
; #@! TA.AperFunction,Plated,PTH,ComponentDrill
T5C0.0472
%
G90
G05
T1
X2.5Y-1.9
X2.6Y-2.9
X2.6Y-6.6
X2.7Y-4.0
X3.0Y-3.6
X3.0Y-3.9
X3.0Y-4.5
X3.0Y-4.7
X3.0Y-5.6
X3.1Y-3.5
X3.1Y-4.0
X3.1Y-4.7
X3.2Y-3.5
X3.3Y-3.5
X3.3Y-4.4
X3.3Y-4.6
X3.5Y-3.4
X3.5Y-4.6
X3.6Y-3.4
X3.6Y-3.8
T2
X3.2Y-0.94
X3.2Y-1.04
X3.2Y-1.14
X3.2Y-1.24
X3.2Y-1.34
X3.2Y-1.44
X3.2Y-1.54
X3.2Y-1.64
X3.2Y-1.74
X3.2Y-1.84
X3.2Y-1.94
X3.2Y-2.04
X3.2Y-2.14
X3.2Y-2.24
X3.2Y-2.34
X3.2Y-2.44
X3.2Y-2.54
X3.2Y-2.64
X3.2Y-2.74
X3.2Y-2.84
X3.2Y-2.94
X3.2Y-3.04
X3.2Y-3.14
X3.2Y-3.24
X3.8Y-0.94
X3.8Y-1.04
X3.8Y-1.14
X3.8Y-1.24
X3.8Y-1.34
X3.8Y-1.44
X3.8Y-1.54
X3.8Y-1.64
X3.8Y-1.74
X3.8Y-1.84
X3.8Y-1.94
X3.8Y-2.04
X3.8Y-2.14
X3.8Y-2.24
X3.8Y-2.34
X3.8Y-2.44
X3.8Y-2.54
X3.8Y-2.64
X3.8Y-2.74
X3.8Y-2.84
X3.8Y-2.94
X3.8Y-3.04
X3.8Y-3.14
X3.8Y-3.24
T3
X2.9937Y-4.1717
X2.9937Y-4.2717
X3.0937Y-4.1717
X3.0937Y-4.2717
X3.6937Y-4.1717
X3.6937Y-4.2717
X3.7937Y-4.1717
X3.7937Y-4.2717
T4
X2.31Y-6.75
X2.33Y-2.67
X2.33Y-3.67
X2.33Y-4.7
X2.33Y-5.7
X2.35Y-1.62
X2.61Y-6.75
X2.63Y-2.67
X2.63Y-3.67
X2.63Y-4.7
X2.63Y-5.7
X2.65Y-1.62
T5
X1.7848Y-1.9705
X1.7848Y-2.2705
X1.7848Y-2.3705
X1.7848Y-2.6705
X1.7848Y-2.9705
X1.7848Y-3.2705
X1.7848Y-3.3705
X1.7848Y-3.6705
X1.7969Y-0.9
X1.7969Y-1.2
X1.7969Y-1.3005
X1.7969Y-1.6005
X1.7969Y-4.0
X1.7969Y-4.3
X1.7969Y-4.4
X1.7969Y-4.7
X1.7969Y-5.0
X1.7969Y-5.3
X1.7969Y-5.4
X1.7969Y-5.7
X1.7969Y-6.05
X1.7969Y-6.35
X1.7969Y-6.45
X1.7969Y-6.75
X2.088Y-1.9705
X2.088Y-2.0705
X2.088Y-2.1705
X2.088Y-2.2705
X2.088Y-2.3705
X2.088Y-2.4705
X2.088Y-2.5705
X2.088Y-2.6705
X2.088Y-2.9705
X2.088Y-3.0705
X2.088Y-3.1705
X2.088Y-3.2705
X2.088Y-3.3705
X2.088Y-3.4705
X2.088Y-3.5705
X2.088Y-3.6705
X2.1Y-0.9
X2.1Y-1.0
X2.1Y-1.1
X2.1Y-1.2
X2.1Y-1.3005
X2.1Y-1.4005
X2.1Y-1.5005
X2.1Y-1.6005
X2.1Y-4.0
X2.1Y-4.1
X2.1Y-4.2
X2.1Y-4.3
X2.1Y-4.4
X2.1Y-4.5
X2.1Y-4.6
X2.1Y-4.7
X2.1Y-5.0
X2.1Y-5.1
X2.1Y-5.2
X2.1Y-5.3
X2.1Y-5.4
X2.1Y-5.5
X2.1Y-5.6
X2.1Y-5.7
X2.1Y-6.05
X2.1Y-6.15
X2.1Y-6.25
X2.1Y-6.35
X2.1Y-6.45
X2.1Y-6.55
X2.1Y-6.65
X2.1Y-6.75
T0
M30
