%TF.GenerationSoftware,KiCad,Pcbnew,8.0.6*%
%TF.CreationDate,2024-11-17T16:51:09-08:00*%
%TF.ProjectId,DFboard,4446626f-6172-4642-9e6b-696361645f70,Rev0.1*%
%TF.SameCoordinates,Original*%
%TF.FileFunction,Drillmap*%
%TF.FilePolarity,Positive*%
%FSLAX45Y45*%
G04 Gerber Fmt 4.5, Leading zero omitted, Abs format (unit mm)*
G04 Created by KiCad (PCBNEW 8.0.6) date 2024-11-17 16:51:09*
%MOMM*%
%LPD*%
G01*
G04 APERTURE LIST*
%ADD10C,0.100000*%
%ADD11C,0.200000*%
G04 APERTURE END LIST*
D10*
X2120900Y-13500100D02*
X16789400Y-13487400D01*
X2120900Y-1308100D02*
X16789400Y-1308100D01*
X2120900Y-1308100D02*
X2120900Y-13500100D01*
X16789400Y-1308100D02*
X16789400Y-13487400D01*
D11*
X2376677Y-13816584D02*
X2376677Y-13616584D01*
X2376677Y-13616584D02*
X2424296Y-13616584D01*
X2424296Y-13616584D02*
X2452867Y-13626108D01*
X2452867Y-13626108D02*
X2471915Y-13645155D01*
X2471915Y-13645155D02*
X2481439Y-13664203D01*
X2481439Y-13664203D02*
X2490963Y-13702298D01*
X2490963Y-13702298D02*
X2490963Y-13730869D01*
X2490963Y-13730869D02*
X2481439Y-13768965D01*
X2481439Y-13768965D02*
X2471915Y-13788012D01*
X2471915Y-13788012D02*
X2452867Y-13807060D01*
X2452867Y-13807060D02*
X2424296Y-13816584D01*
X2424296Y-13816584D02*
X2376677Y-13816584D01*
X2576677Y-13816584D02*
X2576677Y-13683250D01*
X2576677Y-13721346D02*
X2586201Y-13702298D01*
X2586201Y-13702298D02*
X2595724Y-13692774D01*
X2595724Y-13692774D02*
X2614772Y-13683250D01*
X2614772Y-13683250D02*
X2633820Y-13683250D01*
X2700486Y-13816584D02*
X2700486Y-13683250D01*
X2700486Y-13616584D02*
X2690963Y-13626108D01*
X2690963Y-13626108D02*
X2700486Y-13635631D01*
X2700486Y-13635631D02*
X2710010Y-13626108D01*
X2710010Y-13626108D02*
X2700486Y-13616584D01*
X2700486Y-13616584D02*
X2700486Y-13635631D01*
X2824296Y-13816584D02*
X2805248Y-13807060D01*
X2805248Y-13807060D02*
X2795724Y-13788012D01*
X2795724Y-13788012D02*
X2795724Y-13616584D01*
X2929058Y-13816584D02*
X2910010Y-13807060D01*
X2910010Y-13807060D02*
X2900486Y-13788012D01*
X2900486Y-13788012D02*
X2900486Y-13616584D01*
X3157629Y-13816584D02*
X3157629Y-13616584D01*
X3157629Y-13616584D02*
X3224296Y-13759441D01*
X3224296Y-13759441D02*
X3290962Y-13616584D01*
X3290962Y-13616584D02*
X3290962Y-13816584D01*
X3471915Y-13816584D02*
X3471915Y-13711822D01*
X3471915Y-13711822D02*
X3462391Y-13692774D01*
X3462391Y-13692774D02*
X3443343Y-13683250D01*
X3443343Y-13683250D02*
X3405248Y-13683250D01*
X3405248Y-13683250D02*
X3386201Y-13692774D01*
X3471915Y-13807060D02*
X3452867Y-13816584D01*
X3452867Y-13816584D02*
X3405248Y-13816584D01*
X3405248Y-13816584D02*
X3386201Y-13807060D01*
X3386201Y-13807060D02*
X3376677Y-13788012D01*
X3376677Y-13788012D02*
X3376677Y-13768965D01*
X3376677Y-13768965D02*
X3386201Y-13749917D01*
X3386201Y-13749917D02*
X3405248Y-13740393D01*
X3405248Y-13740393D02*
X3452867Y-13740393D01*
X3452867Y-13740393D02*
X3471915Y-13730869D01*
X3567153Y-13683250D02*
X3567153Y-13883250D01*
X3567153Y-13692774D02*
X3586201Y-13683250D01*
X3586201Y-13683250D02*
X3624296Y-13683250D01*
X3624296Y-13683250D02*
X3643343Y-13692774D01*
X3643343Y-13692774D02*
X3652867Y-13702298D01*
X3652867Y-13702298D02*
X3662391Y-13721346D01*
X3662391Y-13721346D02*
X3662391Y-13778488D01*
X3662391Y-13778488D02*
X3652867Y-13797536D01*
X3652867Y-13797536D02*
X3643343Y-13807060D01*
X3643343Y-13807060D02*
X3624296Y-13816584D01*
X3624296Y-13816584D02*
X3586201Y-13816584D01*
X3586201Y-13816584D02*
X3567153Y-13807060D01*
X3748105Y-13797536D02*
X3757629Y-13807060D01*
X3757629Y-13807060D02*
X3748105Y-13816584D01*
X3748105Y-13816584D02*
X3738582Y-13807060D01*
X3738582Y-13807060D02*
X3748105Y-13797536D01*
X3748105Y-13797536D02*
X3748105Y-13816584D01*
X3748105Y-13692774D02*
X3757629Y-13702298D01*
X3757629Y-13702298D02*
X3748105Y-13711822D01*
X3748105Y-13711822D02*
X3738582Y-13702298D01*
X3738582Y-13702298D02*
X3748105Y-13692774D01*
X3748105Y-13692774D02*
X3748105Y-13711822D01*
M02*
