%TF.GenerationSoftware,KiCad,Pcbnew,8.0.6*%
%TF.CreationDate,2024-11-30T14:44:09-08:00*%
%TF.ProjectId,DFboard,4446626f-6172-4642-9e6b-696361645f70,Rev0.1*%
%TF.SameCoordinates,Original*%
%TF.FileFunction,Copper,L2,Bot*%
%TF.FilePolarity,Positive*%
%FSLAX46Y46*%
G04 Gerber Fmt 4.6, Leading zero omitted, Abs format (unit mm)*
G04 Created by KiCad (PCBNEW 8.0.6) date 2024-11-30 14:44:09*
%MOMM*%
%LPD*%
G01*
G04 APERTURE LIST*
%TA.AperFunction,ComponentPad*%
%ADD10R,1.700000X1.700000*%
%TD*%
%TA.AperFunction,ComponentPad*%
%ADD11O,1.700000X1.700000*%
%TD*%
%TA.AperFunction,ComponentPad*%
%ADD12R,1.524000X1.524000*%
%TD*%
%TA.AperFunction,ComponentPad*%
%ADD13C,1.524000*%
%TD*%
%TA.AperFunction,ComponentPad*%
%ADD14C,4.000000*%
%TD*%
%TA.AperFunction,ComponentPad*%
%ADD15R,1.600000X1.600000*%
%TD*%
%TA.AperFunction,ComponentPad*%
%ADD16C,1.600000*%
%TD*%
%TA.AperFunction,ComponentPad*%
%ADD17C,1.514000*%
%TD*%
%TA.AperFunction,ViaPad*%
%ADD18C,0.800000*%
%TD*%
%TA.AperFunction,Conductor*%
%ADD19C,0.254000*%
%TD*%
G04 APERTURE END LIST*
D10*
%TO.P,JP5,1,A*%
%TO.N,Net-(JP5-A)*%
X111379000Y-42164000D03*
D11*
%TO.P,JP5,2,C*%
%TO.N,Net-(JP5-C)*%
X111379000Y-44704000D03*
%TO.P,JP5,3,B*%
%TO.N,unconnected-(JP5-B-Pad3)*%
X111379000Y-47244000D03*
%TD*%
D10*
%TO.P,TP9,1,1*%
%TO.N,Net-(U4-R2_Out)*%
X115926000Y-94996000D03*
%TD*%
D12*
%TO.P,U6,1,Ground*%
%TO.N,unconnected-(U6-Ground-Pad1)*%
X164338000Y-91567000D03*
D13*
%TO.P,U6,2,Ground*%
%TO.N,Net-(J1-P21)*%
X161798000Y-91567000D03*
%TO.P,U6,8,Ground*%
%TO.N,unconnected-(U6-Ground-Pad8)*%
X146558000Y-91567000D03*
%TO.P,U6,9,Ground*%
%TO.N,unconnected-(U6-Ground-Pad9)*%
X144018000Y-91567000D03*
%TO.P,U6,10,3.3V*%
%TO.N,unconnected-(U6-3.3V-Pad10)*%
X144018000Y-94107000D03*
%TO.P,U6,11,3.3V*%
%TO.N,unconnected-(U6-3.3V-Pad11)*%
X146558000Y-94107000D03*
%TO.P,U6,17,3.3V*%
%TO.N,unconnected-(U6-3.3V-Pad17)*%
X161798000Y-94107000D03*
%TO.P,U6,18,3.3V*%
%TO.N,Net-(JP7-B)*%
X164338000Y-94107000D03*
%TD*%
D10*
%TO.P,JP1,1,A*%
%TO.N,Net-(J2-P14)*%
X39624000Y-24257000D03*
D11*
%TO.P,JP1,2,C*%
%TO.N,Net-(J1-P14)*%
X39624000Y-26797000D03*
%TO.P,JP1,3,B*%
%TO.N,Net-(JP1-B)*%
X39624000Y-29337000D03*
%TD*%
D10*
%TO.P,TP10,1,1*%
%TO.N,Net-(U5-R2_Out)*%
X138651000Y-94742000D03*
%TD*%
D12*
%TO.P,U4,1,T1_Out*%
%TO.N,Net-(JP3-B)*%
X99060000Y-75931000D03*
D13*
%TO.P,U4,2,T2_Out*%
%TO.N,unconnected-(U4-T2_Out-Pad2)*%
X101600000Y-75931000D03*
%TO.P,U4,3,R1_In*%
%TO.N,Net-(U4-R1_In)*%
X104140000Y-75931000D03*
%TO.P,U4,4,R2_In*%
%TO.N,Net-(J2-P20)*%
X106680000Y-75931000D03*
%TO.P,U4,5,3-5.5V*%
%TO.N,Net-(U2-3-5.5V)*%
X109220000Y-75931000D03*
%TO.P,U4,6,GND*%
%TO.N,Net-(J1-P21)*%
X111760000Y-75931000D03*
%TO.P,U4,7,T1_In*%
%TO.N,/TX3*%
X114300000Y-75931000D03*
%TO.P,U4,8,T2_In*%
%TO.N,unconnected-(U4-T2_In-Pad8)*%
X116840000Y-75931000D03*
%TO.P,U4,9,R1_Out*%
%TO.N,/RX3*%
X119380000Y-75931000D03*
%TO.P,U4,10,R2_Out*%
%TO.N,Net-(U4-R2_Out)*%
X121920000Y-75931000D03*
%TD*%
D10*
%TO.P,JP4,1,A*%
%TO.N,Net-(J2-P22)*%
X127762000Y-46243000D03*
D11*
%TO.P,JP4,2,C*%
%TO.N,Net-(J1-P22)*%
X127762000Y-48783000D03*
%TO.P,JP4,3,B*%
%TO.N,Net-(JP4-B)*%
X127762000Y-51323000D03*
%TD*%
D10*
%TO.P,TP2,1,1*%
%TO.N,/TX1*%
X50673000Y-96393000D03*
%TD*%
D14*
%TO.P,J1,0,PAD*%
%TO.N,GND*%
X28783000Y-18470000D03*
X28783000Y-65570000D03*
D15*
%TO.P,J1,1,1*%
%TO.N,Net-(U2-R1_In)*%
X29083000Y-25400000D03*
D16*
%TO.P,J1,2,2*%
%TO.N,unconnected-(J1-Pad2)*%
X29083000Y-28170000D03*
%TO.P,J1,3,3*%
%TO.N,Net-(U3-R1_In)*%
X29083000Y-30940000D03*
%TO.P,J1,4,4*%
%TO.N,unconnected-(J1-Pad4)*%
X29083000Y-33710000D03*
%TO.P,J1,5,5*%
%TO.N,Net-(JP9-B)*%
X29083000Y-36480000D03*
%TO.P,J1,6,6*%
%TO.N,unconnected-(J1-Pad6)*%
X29083000Y-39250000D03*
%TO.P,J1,7,7*%
%TO.N,Net-(U4-R1_In)*%
X29083000Y-42020000D03*
%TO.P,J1,8,8*%
%TO.N,Net-(JP5-C)*%
X29083000Y-44790000D03*
%TO.P,J1,9,9*%
%TO.N,Net-(U5-R1_In)*%
X29083000Y-47560000D03*
%TO.P,J1,10,10*%
%TO.N,unconnected-(J1-Pad10)*%
X29083000Y-50330000D03*
%TO.P,J1,11,11*%
%TO.N,Net-(J1-P23)*%
X29083000Y-53100000D03*
%TO.P,J1,12,12*%
X29083000Y-55870000D03*
%TO.P,J1,13,13*%
X29083000Y-58640000D03*
%TO.P,J1,14,P14*%
%TO.N,Net-(J1-P14)*%
X26243000Y-26785000D03*
%TO.P,J1,15,P15*%
%TO.N,unconnected-(J1-P15-Pad15)*%
X26243000Y-29555000D03*
%TO.P,J1,16,P16*%
%TO.N,Net-(J1-P16)*%
X26243000Y-32325000D03*
%TO.P,J1,17,P17*%
%TO.N,unconnected-(J1-P17-Pad17)*%
X26243000Y-35095000D03*
%TO.P,J1,18,P18*%
%TO.N,Net-(J1-P18)*%
X26243000Y-37865000D03*
%TO.P,J1,19,P19*%
%TO.N,unconnected-(J1-P19-Pad19)*%
X26243000Y-40635000D03*
%TO.P,J1,20,P20*%
%TO.N,Net-(J1-P20)*%
X26243000Y-43405000D03*
%TO.P,J1,21,P21*%
%TO.N,Net-(J1-P21)*%
X26243000Y-46175000D03*
%TO.P,J1,22,P22*%
%TO.N,Net-(J1-P22)*%
X26243000Y-48945000D03*
%TO.P,J1,23,P23*%
%TO.N,Net-(J1-P23)*%
X26243000Y-51715000D03*
%TO.P,J1,24,P24*%
X26243000Y-54485000D03*
%TO.P,J1,25,P25*%
X26243000Y-57255000D03*
%TD*%
D14*
%TO.P,J2,0,PAD*%
%TO.N,GND*%
X160020000Y-65709000D03*
X160020000Y-18609000D03*
D15*
%TO.P,J2,1,1*%
%TO.N,Net-(U2-R1_In)*%
X159720000Y-25539000D03*
D16*
%TO.P,J2,2,2*%
%TO.N,unconnected-(J2-Pad2)*%
X159720000Y-28309000D03*
%TO.P,J2,3,3*%
%TO.N,Net-(U3-R1_In)*%
X159720000Y-31079000D03*
%TO.P,J2,4,4*%
%TO.N,unconnected-(J2-Pad4)*%
X159720000Y-33849000D03*
%TO.P,J2,5,5*%
%TO.N,Net-(JP9-A)*%
X159720000Y-36619000D03*
%TO.P,J2,6,6*%
%TO.N,unconnected-(J2-Pad6)*%
X159720000Y-39389000D03*
%TO.P,J2,7,7*%
%TO.N,Net-(U4-R1_In)*%
X159720000Y-42159000D03*
%TO.P,J2,8,8*%
%TO.N,Net-(JP5-A)*%
X159720000Y-44929000D03*
%TO.P,J2,9,9*%
%TO.N,Net-(U5-R1_In)*%
X159720000Y-47699000D03*
%TO.P,J2,10,10*%
%TO.N,unconnected-(J2-Pad10)*%
X159720000Y-50469000D03*
%TO.P,J2,11,11*%
%TO.N,Net-(J2-P23)*%
X159720000Y-53239000D03*
%TO.P,J2,12,12*%
X159720000Y-56009000D03*
%TO.P,J2,13,13*%
X159720000Y-58779000D03*
%TO.P,J2,14,P14*%
%TO.N,Net-(J2-P14)*%
X162560000Y-26924000D03*
%TO.P,J2,15,P15*%
%TO.N,unconnected-(J2-P15-Pad15)*%
X162560000Y-29694000D03*
%TO.P,J2,16,P16*%
%TO.N,Net-(J2-P16)*%
X162560000Y-32464000D03*
%TO.P,J2,17,P17*%
%TO.N,unconnected-(J2-P17-Pad17)*%
X162560000Y-35234000D03*
%TO.P,J2,18,P18*%
%TO.N,Net-(J2-P18)*%
X162560000Y-38004000D03*
%TO.P,J2,19,P19*%
%TO.N,unconnected-(J2-P19-Pad19)*%
X162560000Y-40774000D03*
%TO.P,J2,20,P20*%
%TO.N,Net-(J2-P20)*%
X162560000Y-43544000D03*
%TO.P,J2,21,P21*%
%TO.N,Net-(J2-P21)*%
X162560000Y-46314000D03*
%TO.P,J2,22,P22*%
%TO.N,Net-(J2-P22)*%
X162560000Y-49084000D03*
%TO.P,J2,23,P23*%
%TO.N,Net-(J2-P23)*%
X162560000Y-51854000D03*
%TO.P,J2,24,P24*%
X162560000Y-54624000D03*
%TO.P,J2,25,P25*%
X162560000Y-57394000D03*
%TD*%
D10*
%TO.P,TP1,1,1*%
%TO.N,/RX1*%
X55673000Y-96393000D03*
%TD*%
%TO.P,TP3,1,1*%
%TO.N,/RX2*%
X78279000Y-95885000D03*
%TD*%
D12*
%TO.P,U1,1,Ground*%
%TO.N,GND*%
X45720000Y-91567000D03*
D13*
%TO.P,U1,2,Ground*%
%TO.N,unconnected-(U1-Ground-Pad2)*%
X43180000Y-91567000D03*
%TO.P,U1,8,Ground*%
%TO.N,Net-(J13-Pad1)*%
X27940000Y-91567000D03*
%TO.P,U1,9,Ground*%
%TO.N,Net-(J1-P21)*%
X25400000Y-91567000D03*
%TO.P,U1,10,3.3V*%
%TO.N,Net-(U2-3-5.5V)*%
X25400000Y-94107000D03*
%TO.P,U1,11,3.3V*%
%TO.N,Net-(J13-Pad48)*%
X27940000Y-94107000D03*
%TO.P,U1,17,3.3V*%
%TO.N,unconnected-(U1-3.3V-Pad17)*%
X43180000Y-94107000D03*
%TO.P,U1,18,3.3V*%
%TO.N,unconnected-(U1-3.3V-Pad18)*%
X45720000Y-94107000D03*
%TD*%
D10*
%TO.P,TP11,1,1*%
%TO.N,/RX6*%
X82779000Y-95885000D03*
%TD*%
D12*
%TO.P,J13,1,1*%
%TO.N,Net-(J13-Pad1)*%
X123190000Y-108458000D03*
D13*
%TO.P,J13,2,2*%
%TO.N,/RX1*%
X120650000Y-108458000D03*
%TO.P,J13,3,3*%
%TO.N,/TX1*%
X118110000Y-108458000D03*
%TO.P,J13,4,4*%
%TO.N,unconnected-(J13-Pad4)*%
X115570000Y-108458000D03*
%TO.P,J13,5,5*%
%TO.N,unconnected-(J13-Pad5)*%
X113030000Y-108458000D03*
%TO.P,J13,6,6*%
%TO.N,unconnected-(J13-Pad6)*%
X110490000Y-108458000D03*
%TO.P,J13,7,7*%
%TO.N,unconnected-(J13-Pad7)*%
X107950000Y-108458000D03*
%TO.P,J13,8,8*%
%TO.N,unconnected-(J13-Pad8)*%
X105410000Y-108458000D03*
%TO.P,J13,9,9*%
%TO.N,/RX2*%
X102870000Y-108458000D03*
%TO.P,J13,10,10*%
%TO.N,/TX2*%
X100330000Y-108458000D03*
%TO.P,J13,11,11*%
%TO.N,unconnected-(J13-Pad11)*%
X97790000Y-108458000D03*
%TO.P,J13,12,12*%
%TO.N,unconnected-(J13-Pad12)*%
X95250000Y-108458000D03*
%TO.P,J13,13,13*%
%TO.N,unconnected-(J13-Pad13)*%
X92710000Y-108458000D03*
%TO.P,J13,14,14*%
%TO.N,unconnected-(J13-Pad14)*%
X90170000Y-108458000D03*
%TO.P,J13,15,15*%
%TO.N,unconnected-(J13-Pad15)*%
X87630000Y-108458000D03*
%TO.P,J13,16,16*%
%TO.N,Net-(J13-Pad16)*%
X85090000Y-108458000D03*
%TO.P,J13,17,17*%
%TO.N,/RX6*%
X82550000Y-108458000D03*
%TO.P,J13,18,18*%
%TO.N,unconnected-(J13-Pad18)*%
X80010000Y-108458000D03*
%TO.P,J13,19,19*%
%TO.N,unconnected-(J13-Pad19)*%
X77470000Y-108458000D03*
%TO.P,J13,20,20*%
%TO.N,Net-(U4-R2_Out)*%
X74930000Y-108458000D03*
%TO.P,J13,21,21*%
%TO.N,unconnected-(J13-Pad21)*%
X72390000Y-108458000D03*
%TO.P,J13,22,22*%
%TO.N,unconnected-(J13-Pad22)*%
X69850000Y-108458000D03*
%TO.P,J13,23,23*%
%TO.N,unconnected-(J13-Pad23)*%
X67310000Y-108458000D03*
%TO.P,J13,24,24*%
%TO.N,unconnected-(J13-Pad24)*%
X64770000Y-108458000D03*
%TO.P,J13,25,25*%
%TO.N,unconnected-(J13-Pad25)*%
X64770000Y-123698000D03*
%TO.P,J13,26,26*%
%TO.N,Net-(U5-R2_Out)*%
X67310000Y-123698000D03*
%TO.P,J13,27,27*%
%TO.N,unconnected-(J13-Pad27)*%
X69850000Y-123698000D03*
%TO.P,J13,28,28*%
%TO.N,unconnected-(J13-Pad28)*%
X72390000Y-123698000D03*
D17*
%TO.P,J13,29,29*%
%TO.N,unconnected-(J13-Pad29)*%
X74930000Y-123698000D03*
%TO.P,J13,30,30*%
%TO.N,unconnected-(J13-Pad30)*%
X77470000Y-123698000D03*
%TO.P,J13,31,31*%
%TO.N,unconnected-(J13-Pad31)*%
X80010000Y-123698000D03*
%TO.P,J13,32,32*%
%TO.N,unconnected-(J13-Pad32)*%
X82550000Y-123698000D03*
%TO.P,J13,33,33*%
%TO.N,unconnected-(J13-Pad33)*%
X85090000Y-123698000D03*
%TO.P,J13,34,34*%
%TO.N,unconnected-(J13-Pad34)*%
X87630000Y-123698000D03*
D13*
%TO.P,J13,35,35*%
%TO.N,unconnected-(J13-Pad35)*%
X90170000Y-123698000D03*
%TO.P,J13,36,36*%
%TO.N,/TX3*%
X92710000Y-123698000D03*
%TO.P,J13,37,37*%
%TO.N,/RX3*%
X95250000Y-123698000D03*
%TO.P,J13,38,38*%
%TO.N,/RX4*%
X97790000Y-123698000D03*
%TO.P,J13,39,39*%
%TO.N,/TX4*%
X100330000Y-123698000D03*
%TO.P,J13,40,40*%
%TO.N,unconnected-(J13-Pad40)*%
X102870000Y-123698000D03*
%TO.P,J13,41,41*%
%TO.N,unconnected-(J13-Pad41)*%
X105410000Y-123698000D03*
%TO.P,J13,42,42*%
%TO.N,/TX5*%
X107950000Y-123698000D03*
%TO.P,J13,43,43*%
%TO.N,/RX5*%
X110490000Y-123698000D03*
%TO.P,J13,44,44*%
%TO.N,unconnected-(J13-Pad44)*%
X113030000Y-123698000D03*
%TO.P,J13,45,45*%
%TO.N,unconnected-(J13-Pad45)*%
X115570000Y-123698000D03*
%TO.P,J13,46,46*%
%TO.N,unconnected-(J13-Pad46)*%
X118110000Y-123698000D03*
%TO.P,J13,47,47*%
%TO.N,unconnected-(J13-Pad47)*%
X120650000Y-123698000D03*
%TO.P,J13,48,48*%
%TO.N,Net-(J13-Pad48)*%
X123190000Y-123698000D03*
%TD*%
D10*
%TO.P,TP14,1,1*%
%TO.N,/TX5*%
X136525000Y-120904000D03*
%TD*%
D12*
%TO.P,U2,1,T1_Out*%
%TO.N,Net-(JP1-B)*%
X34417000Y-75438000D03*
D13*
%TO.P,U2,2,T2_Out*%
%TO.N,unconnected-(U2-T2_Out-Pad2)*%
X36957000Y-75438000D03*
%TO.P,U2,3,R1_In*%
%TO.N,Net-(U2-R1_In)*%
X39497000Y-75438000D03*
%TO.P,U2,4,R2_In*%
%TO.N,Net-(J2-P14)*%
X42037000Y-75438000D03*
%TO.P,U2,5,3-5.5V*%
%TO.N,Net-(U2-3-5.5V)*%
X44577000Y-75438000D03*
%TO.P,U2,6,GND*%
%TO.N,Net-(J1-P21)*%
X47117000Y-75438000D03*
%TO.P,U2,7,T1_In*%
%TO.N,/TX1*%
X49657000Y-75438000D03*
%TO.P,U2,8,T2_In*%
%TO.N,unconnected-(U2-T2_In-Pad8)*%
X52197000Y-75438000D03*
%TO.P,U2,9,R1_Out*%
%TO.N,/RX1*%
X54737000Y-75438000D03*
%TO.P,U2,10,R2_Out*%
%TO.N,/RX5*%
X57277000Y-75438000D03*
%TD*%
D10*
%TO.P,TP5,1,1*%
%TO.N,/RX3*%
X111426000Y-94996000D03*
%TD*%
%TO.P,JP9,1,A*%
%TO.N,Net-(JP9-A)*%
X80899000Y-36576000D03*
D11*
%TO.P,JP9,2,B*%
%TO.N,Net-(JP9-B)*%
X78359000Y-36576000D03*
%TD*%
D12*
%TO.P,U5,1,T1_Out*%
%TO.N,Net-(JP4-B)*%
X130810000Y-75677000D03*
D13*
%TO.P,U5,2,T2_Out*%
%TO.N,unconnected-(U5-T2_Out-Pad2)*%
X133350000Y-75677000D03*
%TO.P,U5,3,R1_In*%
%TO.N,Net-(U5-R1_In)*%
X135890000Y-75677000D03*
%TO.P,U5,4,R2_In*%
%TO.N,Net-(J2-P22)*%
X138430000Y-75677000D03*
%TO.P,U5,5,3-5.5V*%
%TO.N,Net-(U2-3-5.5V)*%
X140970000Y-75677000D03*
%TO.P,U5,6,GND*%
%TO.N,Net-(J1-P21)*%
X143510000Y-75677000D03*
%TO.P,U5,7,T1_In*%
%TO.N,/TX4*%
X146050000Y-75677000D03*
%TO.P,U5,8,T2_In*%
%TO.N,unconnected-(U5-T2_In-Pad8)*%
X148590000Y-75677000D03*
%TO.P,U5,9,R1_Out*%
%TO.N,/RX4*%
X151130000Y-75677000D03*
%TO.P,U5,10,R2_Out*%
%TO.N,Net-(U5-R2_Out)*%
X153670000Y-75677000D03*
%TD*%
D10*
%TO.P,JP2,1,A*%
%TO.N,Net-(J2-P16)*%
X65024000Y-29718000D03*
D11*
%TO.P,JP2,2,C*%
%TO.N,Net-(J1-P16)*%
X65024000Y-32258000D03*
%TO.P,JP2,3,B*%
%TO.N,Net-(JP2-B)*%
X65024000Y-34798000D03*
%TD*%
D10*
%TO.P,TP12,1,1*%
%TO.N,/RX5*%
X60173000Y-96393000D03*
%TD*%
%TO.P,TP7,1,1*%
%TO.N,/RX4*%
X134151000Y-94742000D03*
%TD*%
%TO.P,TP13,1,1*%
%TO.N,Net-(J13-Pad16)*%
X56007000Y-118999000D03*
%TD*%
%TO.P,JP8,1,A*%
%TO.N,Net-(J1-P18)*%
X78359000Y-40386000D03*
D11*
%TO.P,JP8,2,B*%
%TO.N,Net-(J2-P18)*%
X80899000Y-40386000D03*
%TD*%
D10*
%TO.P,TP8,1,1*%
%TO.N,/TX4*%
X128651000Y-94742000D03*
%TD*%
%TO.P,JP6,1,A*%
%TO.N,Net-(J2-P21)*%
X139319000Y-44069000D03*
D11*
%TO.P,JP6,2,C*%
%TO.N,Net-(J1-P21)*%
X139319000Y-46609000D03*
%TO.P,JP6,3,B*%
%TO.N,unconnected-(JP6-B-Pad3)*%
X139319000Y-49149000D03*
%TD*%
D12*
%TO.P,U3,1,T1_Out*%
%TO.N,Net-(JP2-B)*%
X65024000Y-75819000D03*
D13*
%TO.P,U3,2,T2_Out*%
%TO.N,unconnected-(U3-T2_Out-Pad2)*%
X67564000Y-75819000D03*
%TO.P,U3,3,R1_In*%
%TO.N,Net-(U3-R1_In)*%
X70104000Y-75819000D03*
%TO.P,U3,4,R2_In*%
%TO.N,Net-(J2-P16)*%
X72644000Y-75819000D03*
%TO.P,U3,5,3-5.5V*%
%TO.N,Net-(U2-3-5.5V)*%
X75184000Y-75819000D03*
%TO.P,U3,6,GND*%
%TO.N,Net-(J1-P21)*%
X77724000Y-75819000D03*
%TO.P,U3,7,T1_In*%
%TO.N,/TX2*%
X80264000Y-75819000D03*
%TO.P,U3,8,T2_In*%
%TO.N,unconnected-(U3-T2_In-Pad8)*%
X82804000Y-75819000D03*
%TO.P,U3,9,R1_Out*%
%TO.N,/RX2*%
X85344000Y-75819000D03*
%TO.P,U3,10,R2_Out*%
%TO.N,/RX6*%
X87884000Y-75819000D03*
%TD*%
D10*
%TO.P,JP7,1,A*%
%TO.N,Net-(J2-P23)*%
X149225000Y-56022000D03*
D11*
%TO.P,JP7,2,C*%
%TO.N,Net-(J1-P23)*%
X149225000Y-58562000D03*
%TO.P,JP7,3,B*%
%TO.N,Net-(JP7-B)*%
X149225000Y-61102000D03*
%TD*%
D10*
%TO.P,TP4,1,1*%
%TO.N,/TX2*%
X73279000Y-95885000D03*
%TD*%
%TO.P,JP3,1,A*%
%TO.N,Net-(J2-P20)*%
X99060000Y-41036000D03*
D11*
%TO.P,JP3,2,C*%
%TO.N,Net-(J1-P20)*%
X99060000Y-43576000D03*
%TO.P,JP3,3,B*%
%TO.N,Net-(JP3-B)*%
X99060000Y-46116000D03*
%TD*%
D10*
%TO.P,TP6,1,1*%
%TO.N,/TX3*%
X106426000Y-94996000D03*
%TD*%
D18*
%TO.N,/RX1*%
X80010000Y-105791000D03*
%TO.N,/RX2*%
X94043500Y-97345500D03*
X85344000Y-88646000D03*
%TO.N,/TX2*%
X88900000Y-97155000D03*
X80264000Y-88646000D03*
%TO.N,/RX5*%
X86360000Y-111252000D03*
X110490000Y-117856000D03*
X80010000Y-103505000D03*
X86360000Y-115316000D03*
X84963000Y-103505000D03*
%TO.N,Net-(U2-R1_In)*%
X36195000Y-61087000D03*
X36195000Y-25400000D03*
%TO.N,/TX4*%
X107569000Y-116713000D03*
%TO.N,/RX3*%
X111760000Y-110871000D03*
%TO.N,/TX3*%
X92710000Y-111252000D03*
%TO.N,Net-(U3-R1_In)*%
X73152000Y-66294000D03*
X73215500Y-30924500D03*
X57785000Y-30861000D03*
%TO.N,GND*%
X159956500Y-83248500D03*
X45720000Y-89789000D03*
%TO.N,Net-(U4-R1_In)*%
X68072000Y-63627000D03*
X155829000Y-42164000D03*
X140716000Y-61722000D03*
X68072000Y-42037000D03*
%TO.N,Net-(U5-R1_In)*%
X135763000Y-59944000D03*
X143510000Y-49403000D03*
X106299000Y-59817000D03*
X106299000Y-52070000D03*
%TO.N,Net-(J2-P22)*%
X138176000Y-57023000D03*
%TO.N,Net-(J2-P14)*%
X44704000Y-26924000D03*
X43434000Y-60960000D03*
%TO.N,Net-(J2-P20)*%
X150558500Y-40322500D03*
%TO.N,Net-(J2-P16)*%
X71882000Y-32464000D03*
%TO.N,Net-(J13-Pad48)*%
X27940000Y-101473000D03*
%TO.N,Net-(JP1-B)*%
X34417000Y-66167000D03*
%TO.N,Net-(J1-P21)*%
X77597000Y-80645000D03*
X47117000Y-80518000D03*
X119761000Y-44450000D03*
X111760000Y-80645000D03*
X138557000Y-80645000D03*
X73152000Y-80645000D03*
X143510000Y-80645000D03*
X106680000Y-80518000D03*
X42037000Y-80518000D03*
%TD*%
D19*
%TO.N,/RX1*%
X117983000Y-105791000D02*
X120650000Y-108458000D01*
X80010000Y-105791000D02*
X117983000Y-105791000D01*
%TO.N,/RX2*%
X85344000Y-88646000D02*
X94043500Y-97345500D01*
X94043500Y-97345500D02*
X94107000Y-97409000D01*
%TO.N,/TX2*%
X88773000Y-97155000D02*
X88900000Y-97155000D01*
X80264000Y-88646000D02*
X88773000Y-97155000D01*
%TO.N,/RX5*%
X86360000Y-111252000D02*
X86360000Y-115316000D01*
X80010000Y-103505000D02*
X84963000Y-103505000D01*
X110490000Y-123698000D02*
X110490000Y-117856000D01*
X110490000Y-117856000D02*
X110490000Y-117729000D01*
%TO.N,Net-(U2-R1_In)*%
X36195000Y-25400000D02*
X36195000Y-61087000D01*
%TO.N,/TX4*%
X107569000Y-116713000D02*
X107315000Y-116713000D01*
X107315000Y-116713000D02*
X100330000Y-123698000D01*
%TO.N,/RX3*%
X95250000Y-123698000D02*
X95250000Y-117475000D01*
X95250000Y-117475000D02*
X101854000Y-110871000D01*
X101854000Y-110871000D02*
X111760000Y-110871000D01*
%TO.N,/TX3*%
X92710000Y-111252000D02*
X92710000Y-111125000D01*
X92710000Y-123698000D02*
X92710000Y-111252000D01*
%TO.N,Net-(U3-R1_In)*%
X73215500Y-30924500D02*
X73215500Y-50736500D01*
X73215500Y-50736500D02*
X73215500Y-66230500D01*
X73215500Y-30924500D02*
X69215000Y-26924000D01*
X61722000Y-26924000D02*
X57785000Y-30861000D01*
X69215000Y-26924000D02*
X61722000Y-26924000D01*
X73215500Y-66230500D02*
X73152000Y-66294000D01*
%TO.N,GND*%
X28783000Y-18470000D02*
X23495000Y-23758000D01*
X160020000Y-18609000D02*
X165481000Y-24070000D01*
X23495000Y-23758000D02*
X23495000Y-60706000D01*
X23919000Y-60706000D02*
X28783000Y-65570000D01*
X165481000Y-60248000D02*
X160020000Y-65709000D01*
X161798000Y-87376000D02*
X161798000Y-91567000D01*
X51181000Y-84328000D02*
X55499000Y-84328000D01*
X158877000Y-84328000D02*
X158877000Y-84455000D01*
X158877000Y-84455000D02*
X161798000Y-87376000D01*
X165481000Y-24070000D02*
X165481000Y-60248000D01*
X55499000Y-84328000D02*
X158877000Y-84328000D01*
X23495000Y-60706000D02*
X23919000Y-60706000D01*
X45720000Y-89789000D02*
X51181000Y-84328000D01*
X158877000Y-84328000D02*
X159956500Y-83248500D01*
%TO.N,Net-(U4-R1_In)*%
X68072000Y-63627000D02*
X68199000Y-63754000D01*
X144780000Y-53213000D02*
X155829000Y-42164000D01*
X68072000Y-42037000D02*
X68072000Y-53721000D01*
X144780000Y-57658000D02*
X144780000Y-53213000D01*
X68072000Y-53721000D02*
X68072000Y-63627000D01*
X140716000Y-61722000D02*
X144780000Y-57658000D01*
%TO.N,Net-(U5-R1_In)*%
X143510000Y-49403000D02*
X139192000Y-53721000D01*
X136017000Y-53721000D02*
X135763000Y-53975000D01*
X135763000Y-59944000D02*
X135890000Y-60071000D01*
X135763000Y-53975000D02*
X135763000Y-59944000D01*
X135890000Y-60071000D02*
X135890000Y-75677000D01*
X106299000Y-52070000D02*
X106299000Y-59817000D01*
X139192000Y-53721000D02*
X136017000Y-53721000D01*
%TO.N,Net-(J2-P22)*%
X138176000Y-57023000D02*
X138430000Y-57277000D01*
X138430000Y-57277000D02*
X138430000Y-75677000D01*
%TO.N,Net-(J2-P14)*%
X43383200Y-28244800D02*
X43383200Y-60909200D01*
X43383200Y-60909200D02*
X43434000Y-60960000D01*
X44704000Y-26924000D02*
X43383200Y-28244800D01*
%TO.N,Net-(J2-P20)*%
X105268000Y-41036000D02*
X108204000Y-38100000D01*
X108204000Y-38100000D02*
X148336000Y-38100000D01*
X148336000Y-38100000D02*
X150558500Y-40322500D01*
X103759000Y-41036000D02*
X105268000Y-41036000D01*
X103759000Y-41036000D02*
X103759000Y-73010000D01*
X99060000Y-41036000D02*
X103759000Y-41036000D01*
X103759000Y-73010000D02*
X106680000Y-75931000D01*
%TO.N,Net-(J2-P16)*%
X72644000Y-75438000D02*
X72644000Y-75819000D01*
X71882000Y-32464000D02*
X71882000Y-74676000D01*
X71882000Y-74676000D02*
X72644000Y-75438000D01*
%TO.N,Net-(J13-Pad48)*%
X27940000Y-125222000D02*
X27940000Y-101473000D01*
X123190000Y-123698000D02*
X123190000Y-126873000D01*
X123190000Y-126873000D02*
X29591000Y-126873000D01*
X29591000Y-126873000D02*
X27940000Y-125222000D01*
%TO.N,Net-(J13-Pad16)*%
X56007000Y-118999000D02*
X82550000Y-118999000D01*
X82550000Y-118999000D02*
X85090000Y-116459000D01*
X85090000Y-108458000D02*
X85090000Y-116459000D01*
%TO.N,Net-(U4-R2_Out)*%
X74930000Y-108458000D02*
X74930000Y-102108000D01*
X115926000Y-96545000D02*
X115926000Y-94996000D01*
X75184000Y-101854000D02*
X110363000Y-101854000D01*
X110363000Y-101854000D02*
X110490000Y-101981000D01*
X74930000Y-102108000D02*
X75184000Y-101854000D01*
X110490000Y-101981000D02*
X115926000Y-96545000D01*
%TO.N,Net-(JP1-B)*%
X39624000Y-61087000D02*
X34544000Y-66167000D01*
X39624000Y-29337000D02*
X39624000Y-61087000D01*
X34544000Y-66167000D02*
X34417000Y-66167000D01*
%TO.N,Net-(JP2-B)*%
X65024000Y-34798000D02*
X65024000Y-75819000D01*
%TO.N,Net-(JP3-B)*%
X99060000Y-46116000D02*
X99060000Y-75931000D01*
%TO.N,Net-(JP4-B)*%
X130810000Y-64008000D02*
X130810000Y-75677000D01*
X127762000Y-51323000D02*
X127762000Y-60960000D01*
X127762000Y-60960000D02*
X130810000Y-64008000D01*
%TO.N,Net-(JP7-B)*%
X155702000Y-67579000D02*
X155702000Y-70104000D01*
X163144200Y-92913200D02*
X164338000Y-94107000D01*
X155702000Y-70104000D02*
X163144200Y-77546200D01*
X163144200Y-77546200D02*
X163144200Y-92913200D01*
X149225000Y-61102000D02*
X155702000Y-67579000D01*
%TO.N,Net-(U2-3-5.5V)*%
X29718000Y-95885000D02*
X43053000Y-82550000D01*
X44767500Y-82486500D02*
X44831000Y-82550000D01*
X44831000Y-82550000D02*
X75184000Y-82550000D01*
X44577000Y-75438000D02*
X44577000Y-82296000D01*
X140589000Y-82550000D02*
X140970000Y-82169000D01*
X75184000Y-75819000D02*
X75184000Y-82550000D01*
X43053000Y-82550000D02*
X44704000Y-82550000D01*
X140970000Y-82169000D02*
X140970000Y-75677000D01*
X75184000Y-82550000D02*
X109220000Y-82550000D01*
X44577000Y-82296000D02*
X44767500Y-82486500D01*
X44704000Y-82550000D02*
X44767500Y-82486500D01*
X109220000Y-82550000D02*
X140589000Y-82550000D01*
X25400000Y-94107000D02*
X27178000Y-95885000D01*
X27178000Y-95885000D02*
X29718000Y-95885000D01*
X109220000Y-75931000D02*
X109220000Y-82550000D01*
%TO.N,Net-(J1-P21)*%
X36449000Y-80518000D02*
X42037000Y-80518000D01*
X25400000Y-91567000D02*
X36449000Y-80518000D01*
X111760000Y-80645000D02*
X138557000Y-80645000D01*
X119761000Y-44450000D02*
X119761000Y-56769000D01*
X111760000Y-75931000D02*
X111760000Y-80645000D01*
X77597000Y-80645000D02*
X106553000Y-80645000D01*
X111760000Y-64770000D02*
X111760000Y-75931000D01*
X119761000Y-56769000D02*
X111760000Y-64770000D01*
X130302000Y-42164000D02*
X134620000Y-46482000D01*
X135382000Y-46482000D02*
X135509000Y-46609000D01*
X77724000Y-75819000D02*
X77724000Y-80518000D01*
X47244000Y-80645000D02*
X73152000Y-80645000D01*
X47117000Y-75438000D02*
X47117000Y-80518000D01*
X47117000Y-80518000D02*
X47244000Y-80645000D01*
X77724000Y-80518000D02*
X77597000Y-80645000D01*
X119761000Y-44450000D02*
X121793000Y-42418000D01*
X121793000Y-42164000D02*
X130302000Y-42164000D01*
X121793000Y-42418000D02*
X121793000Y-42164000D01*
X106553000Y-80645000D02*
X106680000Y-80518000D01*
X143510000Y-75677000D02*
X143510000Y-80645000D01*
X134620000Y-46482000D02*
X135382000Y-46482000D01*
X135509000Y-46609000D02*
X139319000Y-46609000D01*
%TD*%
M02*
